<svg width="2000" height="2000" viewBox="0 0 2000 2000" fill="none" xmlns="http://www.w3.org/2000/svg">
<rect width="2000" height="2000" fill="#014751"/>
<path d="M359 1354.97V1137.57H433.432C471.522 1137.57 499.1 1147.09 516.201 1166.14C533.301 1185.18 541.835 1211.9 541.835 1246.27C541.835 1280.64 533.301 1307.36 516.201 1326.4C499.1 1345.45 471.522 1354.97 433.432 1354.97H359ZM398.308 1323.77H430.632C446.974 1323.77 460.418 1321.16 470.896 1315.96C481.406 1310.75 489.149 1302.48 494.158 1291.15C499.166 1279.81 501.67 1264.85 501.67 1246.27C501.67 1227.69 499.166 1212.73 494.158 1201.39C489.149 1190.06 481.373 1181.79 470.896 1176.58C460.385 1171.38 446.974 1168.77 430.632 1168.77H398.308V1323.77Z" fill="white"/>
<path d="M634.386 1359.16C608.917 1359.16 589.51 1351.22 576.132 1335.34C562.755 1319.45 556.066 1298.04 556.066 1271.09C556.066 1253.26 559.031 1237.84 564.995 1224.82C570.926 1211.81 579.724 1201.69 591.322 1194.45C602.92 1187.2 617.121 1183.57 633.826 1183.57C657.813 1183.57 676.1 1191.05 688.753 1206.01C701.372 1220.97 707.698 1242.85 707.698 1271.65V1280.57H592.87C593.793 1295.8 597.747 1308.09 604.699 1317.38C611.684 1326.67 621.569 1331.32 634.386 1331.32C644.041 1331.32 651.817 1328.52 657.649 1322.95C663.514 1317.38 667.533 1310.23 669.774 1301.5H705.722C703.679 1312.27 699.824 1321.99 694.156 1330.62C688.489 1339.26 680.713 1346.18 670.894 1351.38C661.042 1356.59 648.884 1359.19 634.386 1359.19V1359.16ZM670.894 1255.47C670.136 1241.17 666.578 1230.1 660.153 1222.29C653.728 1214.48 644.864 1210.59 633.53 1210.59C622.195 1210.59 612.541 1214.41 605.655 1222.02C598.768 1229.63 594.584 1240.8 593.101 1255.47H670.894Z" fill="white"/>
<path d="M734.424 1354.97V1137.57H876.567V1169.07H773.172V1225.08H853.437V1254.64H773.172V1354.97H734.424Z" fill="white"/>
<path d="M918.675 1166.54C911.788 1166.54 906.516 1164.63 902.793 1160.84C899.07 1157.01 897.225 1152.07 897.225 1145.91C897.225 1139.75 899.07 1134.81 902.793 1130.98C906.516 1127.16 911.788 1125.28 918.675 1125.28C925.561 1125.28 931.064 1127.19 934.688 1130.98C938.312 1134.81 940.125 1139.75 940.125 1145.91C940.125 1152.07 938.312 1157.01 934.688 1160.84C931.064 1164.66 925.726 1166.54 918.675 1166.54ZM899.729 1354.94V1187.69H937.357V1354.94H899.729Z" fill="white"/>
<path d="M975.258 1187.72H1009.53V1212.8H1016.21C1019.57 1204.07 1024.91 1197.01 1032.23 1191.61C1039.57 1186.24 1049.66 1183.54 1062.47 1183.54C1081.62 1183.54 1095.69 1189.44 1104.72 1201.23C1113.71 1213.03 1118.22 1228.68 1118.22 1248.18V1354.94H1080.6V1255.17C1080.6 1242.15 1078.26 1232.17 1073.64 1225.22C1069 1218.27 1061.65 1214.77 1051.63 1214.77C1039.38 1214.77 1029.85 1219.55 1023.07 1229.14C1016.28 1238.73 1012.89 1250.56 1012.89 1264.69V1355.01H975.258V1187.72Z" fill="white"/>
<path d="M1209.38 1358.6C1194.69 1358.6 1182.4 1354.94 1172.45 1347.59C1162.5 1340.24 1154.99 1330 1149.88 1316.79C1144.77 1303.61 1142.2 1288.35 1142.2 1271.08C1142.2 1253.82 1144.74 1238.37 1149.88 1225.38C1154.99 1212.37 1162.5 1202.25 1172.45 1195C1182.4 1187.76 1194.62 1184.13 1209.09 1184.13C1220.22 1184.13 1229.35 1186.17 1236.4 1190.26C1243.45 1194.35 1248.96 1199.91 1252.84 1207H1259.53V1132.04H1297.16V1355.01H1262.86V1333.26H1256.17C1252.65 1340.15 1247.11 1346.08 1239.6 1351.09C1232.09 1356.09 1222 1358.6 1209.35 1358.6H1209.38ZM1218.58 1330.16C1231.2 1330.16 1241.25 1324.82 1248.69 1314.15C1256.11 1303.47 1259.83 1289.21 1259.83 1271.35C1259.83 1253.49 1256.11 1239.26 1248.69 1228.58C1241.25 1217.9 1231.23 1212.57 1218.58 1212.57C1206.68 1212.57 1197.49 1217.57 1191 1227.62C1184.51 1237.67 1181.25 1252.24 1181.25 1271.38C1181.25 1290.52 1184.51 1305.12 1191 1315.14C1197.49 1325.15 1206.68 1330.2 1218.58 1330.2V1330.16Z" fill="white"/>
<path d="M1402.24 1359.16C1376.77 1359.16 1357.36 1351.22 1343.99 1335.34C1330.61 1319.45 1323.92 1298.04 1323.92 1271.09C1323.92 1253.26 1326.89 1237.84 1332.85 1224.82C1338.78 1211.81 1347.58 1201.69 1359.18 1194.45C1370.77 1187.2 1384.98 1183.57 1401.68 1183.57C1425.67 1183.57 1443.96 1191.05 1456.61 1206.01C1469.23 1220.97 1475.55 1242.85 1475.55 1271.65V1280.57H1360.73C1361.65 1295.8 1365.6 1308.09 1372.59 1317.38C1379.54 1326.67 1389.46 1331.32 1402.27 1331.32C1411.93 1331.32 1419.7 1328.52 1425.54 1322.95C1431.4 1317.38 1435.42 1310.23 1437.66 1301.5H1473.61C1471.57 1312.27 1467.71 1321.99 1462.04 1330.62C1456.38 1339.26 1448.6 1346.18 1438.78 1351.38C1428.93 1356.59 1416.77 1359.19 1402.27 1359.19L1402.24 1359.16ZM1438.75 1255.47C1437.99 1241.17 1434.43 1230.1 1428.01 1222.29C1421.58 1214.48 1412.72 1210.59 1401.38 1210.59C1390.05 1210.59 1380.4 1214.41 1373.51 1222.02C1366.62 1229.63 1362.44 1240.8 1360.96 1255.47H1438.75Z" fill="white"/>
<path d="M1482.8 1354.97V1353.29L1535.49 1267.16L1488.93 1189.4V1187.72H1529.06L1559.74 1241.53H1565.6L1595.42 1187.72H1632.75V1189.4L1587.87 1266.34L1640 1353.29V1354.97H1598.48L1562.8 1291.71H1556.94L1521.81 1354.97H1482.8Z" fill="white"/>
<path d="M1140.16 786.892H1042.89C980.944 786.892 921.502 762.278 877.711 718.454L866.969 707.713C865.124 705.867 861.928 707.185 861.928 709.789V747.22C861.928 748.835 860.61 750.153 858.995 750.153H828.121C826.506 750.153 825.188 748.835 825.188 747.22V642.933C825.188 641.318 826.506 640 828.121 640H932.408C934.023 640 935.341 641.318 935.341 642.933V673.774C935.341 675.389 934.023 676.707 932.408 676.707H894.977C892.341 676.707 891.056 679.87 892.901 681.748C936.725 725.572 996.134 750.186 1058.08 750.186H1119.4C1121.64 750.186 1123.12 747.747 1121.97 745.803C1097.69 704.517 1052.78 676.739 1001.54 676.739H975.046C973.431 676.739 972.113 675.421 972.113 673.807V642.933C972.113 641.318 973.431 640 975.046 640H1001.54C1075.41 640 1138.78 685.636 1165 750.186C1165.04 750.317 1165.1 750.416 1165.14 750.548C1172.15 767.979 1158.94 786.925 1140.16 786.925V786.892Z" fill="#DEC9F4"/>
<path d="M1140.16 845.805H1042.89C980.944 845.805 921.502 870.419 877.711 914.243L866.969 924.985C865.124 926.83 861.928 925.512 861.928 922.909V885.477C861.928 883.863 860.61 882.545 858.995 882.545H828.121C826.507 882.545 825.188 883.863 825.188 885.477V989.765C825.188 991.379 826.507 992.697 828.121 992.697H932.408C934.023 992.697 935.341 991.379 935.341 989.765V958.923C935.341 957.309 934.023 955.991 932.408 955.991H894.977C892.341 955.991 891.056 952.828 892.901 950.949C936.725 907.126 996.134 882.512 1058.08 882.512H1119.4C1121.64 882.512 1123.12 884.95 1121.97 886.894C1097.69 928.181 1052.78 955.958 1001.54 955.958H975.046C973.431 955.958 972.113 957.276 972.113 958.891V989.732C972.113 991.346 973.431 992.664 975.046 992.664H1001.54C1075.41 992.664 1138.78 947.028 1165 882.479C1165.04 882.347 1165.1 882.248 1165.14 882.117C1172.15 864.686 1158.94 845.739 1140.16 845.739V845.805Z" fill="#DEC9F4"/>
</svg>
