<svg width="1500" height="1500" viewBox="0 0 1500 1500" fill="none" xmlns="http://www.w3.org/2000/svg">
<rect width="1500" height="1500" fill="#014751"/>
<path d="M1044.22 689.191H845.27C718.57 689.191 596.992 638.848 507.426 549.214L485.455 527.244C481.681 523.47 475.144 526.166 475.144 531.49V608.049C475.144 611.351 472.448 614.047 469.146 614.047H405.998C402.696 614.047 400 611.351 400 608.049V394.748C400 391.446 402.696 388.75 405.998 388.75H619.299C622.601 388.75 625.297 391.446 625.297 394.748V457.829C625.297 461.131 622.601 463.827 619.299 463.827H542.74C537.348 463.827 534.72 470.296 538.494 474.138C628.128 563.771 749.638 614.115 876.339 614.115H1001.76C1006.34 614.115 1009.37 609.127 1007.02 605.151C957.346 520.707 865.488 463.894 760.691 463.894H706.507C703.204 463.894 700.508 461.198 700.508 457.896V394.748C700.508 391.446 703.204 388.75 706.507 388.75H760.691C911.788 388.75 1041.39 482.09 1095.03 614.115C1095.1 614.384 1095.23 614.586 1095.3 614.856C1109.66 650.507 1082.63 689.258 1044.22 689.258V689.191Z" fill="#DEC9F4"/>
<path d="M1044.22 809.693H845.27C718.57 809.693 596.992 860.036 507.426 949.67L485.455 971.64C481.681 975.414 475.144 972.719 475.144 967.394V890.835C475.144 887.533 472.448 884.837 469.146 884.837H405.998C402.696 884.837 400 887.533 400 890.835V1104.14C400 1107.44 402.696 1110.13 405.998 1110.13H619.299C622.601 1110.13 625.297 1107.44 625.297 1104.14V1041.06C625.297 1037.75 622.601 1035.06 619.299 1035.06H542.74C537.348 1035.06 534.72 1028.59 538.494 1024.75C628.128 935.113 749.639 884.77 876.339 884.77H1001.76C1006.34 884.77 1009.37 889.757 1007.02 893.733C957.346 978.177 865.488 1034.99 760.691 1034.99H706.507C703.204 1034.99 700.509 1037.69 700.509 1040.99V1104.07C700.509 1107.37 703.204 1110.07 706.507 1110.07H760.691C911.788 1110.07 1041.39 1016.73 1095.03 884.702C1095.1 884.433 1095.23 884.231 1095.3 883.961C1109.66 848.31 1082.63 809.558 1044.22 809.558V809.693Z" fill="#DEC9F4"/>
</svg>
