<svg width="360" height="360" viewBox="0 0 360 360" fill="none" xmlns="http://www.w3.org/2000/svg">
<rect x="0.601074" y="0.600739" width="358.601" height="358.601" rx="20" fill="#014751"/>
<path d="M247.901 166.463H201.576C172.074 166.463 143.765 154.74 122.91 133.869L117.794 128.754C116.915 127.875 115.393 128.503 115.393 129.742V147.569C115.393 148.338 114.765 148.966 113.997 148.966H99.2926C98.5237 148.966 97.896 148.338 97.896 147.569V97.9022C97.896 97.1333 98.5237 96.5056 99.2926 96.5056H148.959C149.728 96.5056 150.356 97.1333 150.356 97.9022V112.59C150.356 113.359 149.728 113.987 148.959 113.987H131.133C129.877 113.987 129.265 115.494 130.144 116.388C151.015 137.259 179.309 148.981 208.811 148.981H238.014C239.081 148.981 239.788 147.82 239.238 146.894C227.673 127.232 206.284 114.003 181.882 114.003H169.266C168.497 114.003 167.869 113.375 167.869 112.606V97.9022C167.869 97.1333 168.497 96.5056 169.266 96.5056H181.882C217.065 96.5056 247.242 118.24 259.733 148.981C259.748 149.044 259.78 149.091 259.796 149.154C263.138 157.455 256.845 166.478 247.901 166.478V166.463Z" fill="white"/>
<path d="M247.901 194.521H201.576C172.074 194.521 143.765 206.243 122.91 227.114L117.794 232.23C116.915 233.109 115.393 232.481 115.393 231.241V213.415C115.393 212.646 114.765 212.018 113.997 212.018H99.2926C98.5237 212.018 97.896 212.646 97.896 213.415V263.081C97.896 263.85 98.5237 264.478 99.2926 264.478H148.959C149.728 264.478 150.356 263.85 150.356 263.081V248.393C150.356 247.624 149.728 246.997 148.959 246.997H131.133C129.877 246.997 129.265 245.49 130.144 244.596C151.015 223.725 179.309 212.002 208.811 212.002H238.014C239.081 212.002 239.788 213.164 239.238 214.089C227.673 233.752 206.284 246.981 181.882 246.981H169.266C168.497 246.981 167.869 247.609 167.869 248.378V263.066C167.869 263.835 168.497 264.462 169.266 264.462H181.882C217.065 264.462 247.242 242.728 259.733 211.987C259.748 211.924 259.78 211.877 259.796 211.814C263.138 203.513 256.845 194.489 247.901 194.489V194.521Z" fill="white"/>
</svg>
