<svg width="3000" height="1500" viewBox="0 0 3000 1500" fill="none" xmlns="http://www.w3.org/2000/svg">
<rect width="3000" height="1500" fill="white"/>
<path d="M1030.82 882.552V630.162H1117.23C1161.45 630.162 1193.47 641.217 1213.32 663.327C1233.18 685.437 1243.08 716.459 1243.08 756.357C1243.08 796.254 1233.18 827.277 1213.32 849.387C1193.47 871.497 1161.45 882.552 1117.23 882.552H1030.82ZM1076.46 846.327H1113.98C1132.95 846.327 1148.56 843.305 1160.73 837.261C1172.93 831.217 1181.92 821.616 1187.73 808.457C1193.55 795.298 1196.45 777.931 1196.45 756.357C1196.45 734.782 1193.55 717.416 1187.73 704.257C1181.92 691.098 1172.89 681.497 1160.73 675.453C1148.52 669.409 1132.95 666.387 1113.98 666.387H1076.46V846.327Z" fill="#014751"/>
<path d="M1350.53 887.42C1320.96 887.42 1298.43 878.201 1282.9 859.763C1267.37 841.325 1259.6 816.461 1259.6 785.171C1259.6 764.476 1263.05 746.574 1269.97 731.464C1276.86 716.355 1287.07 704.611 1300.53 696.196C1314 687.78 1330.49 683.572 1349.88 683.572C1377.73 683.572 1398.96 692.256 1413.65 709.622C1428.3 726.989 1435.64 752.388 1435.64 785.821V796.188H1302.33C1303.4 813.86 1307.99 828.128 1316.07 838.916C1324.17 849.703 1335.65 855.096 1350.53 855.096C1361.74 855.096 1370.77 851.845 1377.54 845.38C1384.35 838.916 1389.01 830.615 1391.61 820.478H1433.35C1430.98 832.986 1426.5 844.271 1419.92 854.293C1413.34 864.315 1404.31 872.348 1392.91 878.392C1381.48 884.436 1367.36 887.458 1350.53 887.458V887.42ZM1392.91 767.039C1392.03 750.438 1387.9 737.585 1380.44 728.519C1372.98 719.453 1362.69 714.939 1349.54 714.939C1336.38 714.939 1325.17 719.377 1317.17 728.213C1309.18 737.049 1304.32 750.017 1302.6 767.039H1392.91Z" fill="#014751"/>
<path d="M1466.67 882.552V630.162H1631.69V666.731H1511.65V731.76H1604.84V766.073H1511.65V882.552H1466.67Z" fill="#014751"/>
<path d="M1680.58 663.789C1672.58 663.789 1666.46 661.57 1662.14 657.171C1657.82 652.734 1655.67 646.996 1655.67 639.843C1655.67 632.69 1657.82 626.952 1662.14 622.515C1666.46 618.077 1672.58 615.897 1680.58 615.897C1688.57 615.897 1694.96 618.116 1699.17 622.515C1703.37 626.952 1705.48 632.69 1705.48 639.843C1705.48 646.996 1703.37 652.734 1699.17 657.171C1694.96 661.609 1688.76 663.789 1680.58 663.789ZM1658.58 882.517V688.347H1702.26V882.517H1658.58Z" fill="#014751"/>
<path d="M1746.27 688.391H1786.05V717.501H1793.81C1797.72 707.365 1803.91 699.178 1812.4 692.905C1820.94 686.67 1832.64 683.533 1847.52 683.533C1869.75 683.533 1886.08 690.38 1896.56 704.075C1907 717.769 1912.24 735.939 1912.24 758.585V882.523H1868.56V766.694C1868.56 751.584 1865.84 739.994 1860.49 731.923C1855.09 723.851 1846.56 719.797 1834.94 719.797C1820.71 719.797 1809.65 725.343 1801.77 736.475C1793.89 747.606 1789.95 761.339 1789.95 777.749V882.599H1746.27V688.391Z" fill="#014751"/>
<path d="M2018.08 886.764C2001.02 886.764 1986.75 882.518 1975.19 873.988C1963.64 865.457 1954.92 853.561 1948.99 838.222C1943.06 822.921 1940.08 805.21 1940.08 785.165C1940.08 765.121 1943.02 747.181 1948.99 732.109C1954.92 716.999 1963.64 705.256 1975.19 696.84C1986.75 688.425 2000.94 684.217 2017.73 684.217C2030.66 684.217 2041.26 686.589 2049.44 691.332C2057.63 696.075 2064.02 702.54 2068.53 710.764H2076.3V623.74H2119.98V882.594H2080.16V857.348H2072.39C2068.3 865.343 2061.88 872.228 2053.15 878.042C2044.43 883.857 2032.73 886.764 2018.04 886.764H2018.08ZM2028.75 853.752C2043.4 853.752 2055.07 847.555 2063.71 835.161C2072.32 822.768 2076.64 806.204 2076.64 785.471C2076.64 764.738 2072.32 748.213 2063.71 735.82C2055.07 723.426 2043.44 717.229 2028.75 717.229C2014.94 717.229 2004.27 723.043 1996.73 734.71C1989.2 746.377 1985.41 763.285 1985.41 785.51C1985.41 807.734 1989.2 824.68 1996.73 836.309C2004.27 847.938 2014.94 853.79 2028.75 853.79V853.752Z" fill="#014751"/>
<path d="M2241.97 887.42C2212.4 887.42 2189.87 878.201 2174.34 859.763C2158.81 841.325 2151.05 816.461 2151.05 785.171C2151.05 764.476 2154.49 746.574 2161.41 731.464C2168.3 716.355 2178.51 704.611 2191.98 696.196C2205.44 687.78 2221.93 683.572 2241.32 683.572C2269.17 683.572 2290.4 692.256 2305.09 709.622C2319.74 726.989 2327.09 752.388 2327.09 785.821V796.188H2193.78C2194.85 813.86 2199.44 828.128 2207.55 838.916C2215.62 849.703 2227.13 855.096 2242.01 855.096C2253.22 855.096 2262.25 851.845 2269.02 845.38C2275.83 838.916 2280.49 830.615 2283.1 820.478H2324.83C2322.46 832.986 2317.98 844.271 2311.4 854.293C2304.82 864.315 2295.8 872.348 2284.4 878.392C2272.96 884.436 2258.84 887.458 2242.01 887.458L2241.97 887.42ZM2284.36 767.039C2283.48 750.438 2279.35 737.585 2271.89 728.519C2264.43 719.453 2254.14 714.939 2240.98 714.939C2227.82 714.939 2216.61 719.377 2208.62 728.213C2200.62 737.049 2195.76 750.017 2194.04 767.039H2284.36Z" fill="#014751"/>
<path d="M2335.5 882.556V880.605L2396.66 780.613L2342.61 690.338V688.387H2389.2L2424.82 750.853H2431.63L2466.24 688.387H2509.58V690.338L2457.48 779.657L2518 880.605V882.556H2469.8L2428.37 809.112H2421.57L2380.79 882.556H2335.5Z" fill="#014751"/>
<path d="M847.666 715.535H734.742C662.825 715.535 593.815 686.959 542.976 636.082L530.506 623.611C528.363 621.469 524.653 622.999 524.653 626.021V669.477C524.653 671.352 523.123 672.882 521.248 672.882H485.405C483.53 672.882 482 671.352 482 669.477V548.405C482 546.53 483.53 545 485.405 545H606.477C608.352 545 609.882 546.53 609.882 548.405V584.21C609.882 586.084 608.352 587.615 606.477 587.615H563.021C559.961 587.615 558.469 591.287 560.611 593.467C611.488 644.345 680.46 672.92 752.377 672.92H823.566C826.168 672.92 827.889 670.089 826.55 667.832C798.357 619.901 746.218 587.653 686.733 587.653H655.977C654.103 587.653 652.573 586.123 652.573 584.248V548.405C652.573 546.53 654.103 545 655.977 545H686.733C772.498 545 846.06 597.981 876.509 672.92C876.548 673.073 876.624 673.188 876.662 673.341C884.81 693.577 869.471 715.573 847.666 715.573V715.535Z" fill="#014751"/>
<path d="M847.666 783.929H734.742C662.825 783.929 593.815 812.505 542.976 863.382L530.506 875.853C528.364 877.995 524.653 876.465 524.653 873.443V829.987C524.653 828.112 523.123 826.582 521.248 826.582H485.405C483.53 826.582 482 828.112 482 829.987V951.059C482 952.934 483.53 954.464 485.405 954.464H606.477C608.352 954.464 609.882 952.934 609.882 951.059V915.254C609.882 913.38 608.352 911.849 606.477 911.849H563.021C559.961 911.849 558.469 908.177 560.611 905.997C611.489 855.119 680.46 826.544 752.377 826.544H823.567C826.168 826.544 827.889 829.375 826.55 831.632C798.358 879.563 746.218 911.811 686.733 911.811H655.978C654.103 911.811 652.573 913.341 652.573 915.216V951.021C652.573 952.895 654.103 954.426 655.978 954.426H686.733C772.498 954.426 846.06 901.444 876.51 826.506C876.548 826.353 876.624 826.238 876.663 826.085C884.811 805.849 869.471 783.853 847.666 783.853V783.929Z" fill="#014751"/>
</svg>
