<svg width="179" height="61" viewBox="0 0 179 61" fill="none" xmlns="http://www.w3.org/2000/svg">
<path d="M59.9523 34.1593C59.9576 37.4578 61.7582 40.6772 65.7194 40.6772C69.0292 40.6772 69.9771 39.46 70.7291 37.8635H78.6885C77.6717 41.0882 74.5314 46.3888 65.5075 46.3888C56.4836 46.3888 51.9399 39.8974 51.9399 32.9843C51.9399 24.7172 56.5631 18.8105 65.7935 18.8105C75.6594 18.8105 79.0169 25.36 79.0169 31.9358C79.0169 32.8263 79.0169 33.4059 78.9109 34.1593H59.9523ZM71.0521 29.6754C70.9992 26.6088 69.6594 24.0269 65.7829 24.0269C61.9065 24.0269 60.4395 26.4402 60.1218 29.6754H71.0521Z" fill="url(#paint0_linear_8173_247)"/>
<path d="M108.26 38.9647C108.26 41.4728 108.482 45.1401 108.647 45.7724H101.047C100.825 45.2507 100.661 43.8597 100.645 43.1958C99.6014 44.6764 97.6473 46.3836 92.5688 46.3836C85.642 46.3836 82.7188 42.2052 82.7188 38.1164C82.7188 32.1097 87.9721 29.3434 96.3975 29.3434H100.496V27.7311C100.496 25.8553 99.7603 24.0164 96.0745 24.0164C92.717 24.0164 91.9809 25.3231 91.6155 27.2358H84.0533C84.4822 22.5516 87.6438 18.7631 96.3764 18.8053C104.071 18.8527 108.26 21.6084 108.26 27.8786V38.9595V38.9647ZM100.507 33.78H97.266C92.4734 33.78 90.6941 35.1236 90.6941 37.6633C90.6941 39.5707 91.9703 41.1777 94.83 41.1777C99.8821 41.1777 100.507 37.9531 100.507 34.4702V33.78Z" fill="url(#paint1_linear_8173_247)"/>
<path d="M115.509 26.0608C115.509 23.8214 115.509 21.366 115.457 19.4218H123.162C123.321 20.1015 123.427 21.9298 123.469 22.7782C124.443 21.1237 126.768 18.8105 131.804 18.8105C137.577 18.8105 141.326 22.3882 141.326 29.0115V45.7776H133.372V29.8229C133.372 26.8617 132.297 24.7119 128.786 24.7119C125.275 24.7119 123.474 26.4349 123.474 31.0875V45.7724H115.52V26.0555L115.509 26.0608Z" fill="url(#paint2_linear_8173_247)"/>
<path d="M153.739 37.853C154.343 39.95 156.212 41.1303 159.178 41.1303C162.144 41.1303 163.187 40.1608 163.187 38.5695C163.187 36.8782 161.953 36.2143 157.838 35.2869C148.481 33.1688 146.945 30.5131 146.945 26.7932C146.945 23.0732 149.926 18.8105 158.595 18.8105C167.265 18.8105 170.262 23.1733 170.506 26.7458H162.943C162.689 25.771 161.979 23.9321 158.241 23.9321C155.609 23.9321 154.761 25.0017 154.761 26.1872C154.761 27.4992 155.656 28.1315 160.317 29.1274C169.902 31.1718 171.257 34.1857 171.257 38.0479C171.257 42.4107 167.641 46.3836 158.876 46.3836C150.112 46.3836 146.553 42.5214 145.923 37.8477H153.739V37.853Z" fill="url(#paint3_linear_8173_247)"/>
<path d="M46.5862 41.046C45.347 44.824 41.7089 47.5797 37.1334 48.0065C35.5553 48.154 32.2455 48.0697 30.6885 48.0697H15.3892C14.7855 48.0697 14.2983 47.6587 14.2983 47.1529V35.3713C14.2983 34.9392 14.3248 34.5071 14.3725 34.0751C14.399 33.838 14.436 33.5956 14.4784 33.3585C14.5737 32.8579 14.7114 32.3732 14.8915 31.9042C15.2833 30.882 15.8712 29.9441 16.6337 29.1063C16.8879 28.8271 17.158 28.5636 17.444 28.3054C18.2913 27.5572 19.2922 26.9197 20.4149 26.4033C21.1722 26.0608 21.9771 25.771 22.835 25.5444C23.5129 25.3653 24.2225 25.223 24.9586 25.1229C25.2075 25.0913 25.4034 25.2968 25.3028 25.4918C25.1704 25.7605 25.0327 26.0292 24.9003 26.2979C24.805 26.4929 24.7044 26.6878 24.6091 26.8828C24.5349 27.0303 24.5084 27.1726 24.5349 27.2938C24.5508 27.3623 24.5773 27.4308 24.625 27.494C24.7468 27.6626 24.9109 27.6837 25.1069 27.552C25.5093 27.2832 25.9118 27.0145 26.309 26.7511C27.2622 26.1188 28.2101 25.4812 29.1634 24.8489L29.1793 24.8384C30.6673 23.8478 32.1501 22.8572 33.6382 21.8666C33.7071 21.8192 33.7706 21.7613 33.8077 21.6875C33.8077 21.677 33.8183 21.6717 33.8236 21.6611C33.8554 21.5926 33.8659 21.5083 33.8607 21.4135C33.8448 21.2027 33.7283 21.0763 33.58 21.0025C30.858 19.6115 28.1413 18.2152 25.4193 16.8241C25.0327 16.6239 24.6408 16.4237 24.249 16.2235C24.1377 16.1655 23.9842 16.176 23.8941 16.2551C23.7776 16.3499 23.73 16.5238 23.7618 16.6924C23.7723 16.7451 23.7882 16.7978 23.82 16.8505C23.8624 16.9295 23.91 16.998 23.9577 17.0665C24.286 17.5407 24.6091 18.0202 24.9374 18.4944C25.1175 18.7526 25.2922 19.0161 25.4723 19.2743C25.4723 19.2743 25.4511 19.2743 25.4087 19.2848C25.3822 19.2848 25.3452 19.2953 25.3028 19.3059C25.1863 19.3269 25.0062 19.3586 24.7838 19.406C24.2225 19.5219 23.3699 19.7274 22.3796 20.0488C19.3928 20.9867 15.1933 22.8836 14.2983 26.261V26.2031C14.2983 26.2031 14.256 25.7394 14.293 25.4812C14.293 25.4601 14.2983 10.6857 14.2983 10.6857C14.2983 10.1798 14.7855 9.76886 15.3892 9.76886H31.1387C32.2508 9.76886 35.3329 9.72144 35.3382 9.72144C35.7036 9.7267 36.0584 9.74251 36.4079 9.76886C39.6806 10.0745 42.5297 11.9028 44.2879 14.5637C45.0452 15.7018 45.6012 16.998 45.9031 18.3891C45.9613 18.6578 46.0143 18.9265 46.0514 19.2005C46.1202 19.6536 46.1573 20.1173 46.1679 20.581V20.6073C46.1679 20.6969 46.1679 20.7865 46.1679 20.8708C46.1679 27.0251 41.3594 32.0149 35.4229 32.0149C35.3276 32.0149 35.2375 32.0149 35.1475 32.0149C35.1422 32.0149 35.1316 32.0149 35.1263 32.0149C35.0734 32.0149 35.0257 32.0149 34.9728 32.0096C34.8086 31.9622 34.7133 31.8094 34.7768 31.6618C35.0098 31.1402 35.2693 30.6186 35.4282 30.0706C35.5076 29.8019 35.4547 29.4014 35.1263 29.4067C35.0045 29.4067 34.9039 29.4752 34.8086 29.5384C33.8607 30.1707 32.918 30.7977 31.9701 31.43C30.3973 32.4785 28.8297 33.5218 27.2569 34.5704H27.2463C26.9498 34.7759 26.6532 34.9708 26.3566 35.171C26.2137 35.2659 26.1183 35.4029 26.1395 35.6242C26.1395 35.64 26.1395 35.6611 26.1448 35.6769C26.1766 35.856 26.2772 35.9667 26.4149 36.0352C29.5288 37.6264 32.6373 39.2229 35.7459 40.8142C35.8624 40.8669 36.0107 40.8564 36.1007 40.7826C36.1484 40.7457 36.1802 40.6983 36.2014 40.6456C36.2596 40.5139 36.2596 40.34 36.1749 40.1872C36.1325 40.1134 36.0848 40.0449 36.0319 39.9764C35.7141 39.5128 35.3964 39.0491 35.084 38.5907C34.9833 38.4431 35.0681 38.2534 35.264 38.2008C35.264 38.2008 35.264 38.2008 35.2693 38.2008C35.2746 38.2008 35.2852 38.2008 35.2905 38.2008C35.2958 38.2008 35.3064 38.2007 35.3117 38.1955C35.3435 38.1902 35.3911 38.1797 35.4547 38.1639C35.4917 38.1533 35.5394 38.1428 35.5923 38.127C35.7353 38.0901 35.9207 38.0479 36.1378 37.99C36.1908 37.9742 36.2437 37.9636 36.2967 37.9478C36.3073 37.9478 36.3232 37.9426 36.3337 37.9373C36.3761 37.9268 36.4238 37.911 36.4661 37.9004C36.5138 37.8899 36.5562 37.8741 36.6091 37.8635C36.6197 37.8635 36.625 37.8635 36.6356 37.8583C42.768 36.462 45.2146 33.2847 45.6436 32.7209C45.6065 32.7631 46.5545 34.5071 46.6392 34.7495C46.8086 35.2553 46.9304 35.7717 47.0099 36.2933C47.2535 37.8899 47.084 39.5444 46.5809 41.0882L46.5862 41.046Z" fill="url(#paint4_linear_8173_247)"/>
<path opacity="0.1" d="M46.5863 41.0462C45.3471 44.8241 41.7089 47.5798 37.1334 48.0066C35.5553 48.1541 32.2455 48.0698 30.6886 48.0698L28.7927 47.4428C23.0098 45.5249 22.0777 37.7793 27.2464 34.5599C26.9498 34.7602 26.6532 34.9551 26.3567 35.1501C26.2137 35.2449 26.1184 35.3819 26.1396 35.6032C26.1396 35.619 26.1396 35.6401 26.1448 35.6559C26.1766 35.835 26.2772 35.9457 26.4149 36.0142C29.5288 37.6055 32.6374 39.202 35.746 40.7932C35.8625 40.8459 36.0107 40.8354 36.1008 40.7616C36.1484 40.7247 36.1802 40.6773 36.2014 40.6246C36.2596 40.4929 36.2596 40.319 36.1749 40.1662C36.1325 40.0925 36.0849 40.024 36.0319 39.9555C35.7142 39.4918 35.3964 39.0281 35.084 38.5697C34.9834 38.4222 35.0681 38.2325 35.264 38.1798C35.264 38.1798 35.264 38.1798 35.2693 38.1798C35.2746 38.1798 35.2852 38.1798 35.2905 38.1798C35.2958 38.1798 35.3064 38.1798 35.3117 38.1745C35.3435 38.1692 35.3911 38.1587 35.4547 38.1429C35.4918 38.1324 35.5394 38.1218 35.5924 38.106C35.7354 38.0691 35.9207 38.027 36.1378 37.969C36.1908 37.9532 36.2437 37.9427 36.2967 37.9269C36.3073 37.9269 36.3232 37.9216 36.3338 37.9163C36.3761 37.9058 36.4238 37.89 36.4662 37.8794C36.5138 37.8689 36.5562 37.8531 36.6092 37.8426C36.6197 37.8426 36.625 37.8426 36.6356 37.8373C42.7681 36.441 45.2147 33.2637 45.6436 32.7C45.6065 32.7421 46.5545 34.4862 46.6392 34.7285C46.8087 35.2344 46.9305 35.7507 47.0099 36.2724C47.2535 37.8689 47.084 39.5234 46.581 41.0672L46.5863 41.0462Z" fill="url(#paint5_linear_8173_247)"/>
<path opacity="0.1" d="M33.8235 21.6612C33.8553 21.5927 28.1412 18.2152 25.4139 16.8189C25.0274 16.6187 24.6355 16.4185 24.2436 16.2182C24.1324 16.1603 23.9788 16.1708 23.8888 16.2498C23.7723 16.3447 23.7246 16.5186 23.7564 16.6872C23.767 16.7399 23.7829 16.7926 23.8146 16.8453C23.857 16.9243 23.9047 16.9928 23.9523 17.0613C24.2807 17.5355 24.6037 18.015 24.932 18.4892C25.1121 18.7474 25.2868 19.0108 25.4669 19.269C25.4669 19.269 25.4457 19.269 25.4033 19.2796C25.3769 19.2796 25.3398 19.2901 25.2974 19.3006C25.1809 19.3217 25.0009 19.3533 24.7785 19.4008C24.2171 19.5167 23.3645 19.7222 22.3742 20.0436C19.3874 20.9815 15.1879 22.8783 14.293 26.2558V26.1978C14.293 26.1978 14.2506 25.7342 14.2877 25.476C14.2877 25.4549 14.293 10.6804 14.293 10.6804C14.293 10.1746 14.7802 9.76363 15.3839 9.76363H31.1333C32.2454 9.76363 33.8129 9.68459 35.3169 9.7162C35.3169 9.7162 35.3275 9.7162 35.3434 9.72674C39.8129 11.0756 40.7132 16.9822 36.8579 19.601C35.1474 20.7602 33.8182 21.6612 33.8182 21.6612H33.8235Z" fill="url(#paint6_linear_8173_247)"/>
<path d="M46.581 41.0462C45.3418 44.8241 41.7037 47.5746 37.1335 48.0014C35.5554 48.1489 32.2455 48.0646 30.6886 48.0646H15.3893C14.7856 48.0646 14.2984 47.6536 14.2984 47.1478V35.3661C14.2984 34.9341 14.3249 34.502 14.3725 34.0699C14.399 33.8328 14.4361 33.5905 14.4785 33.3533C14.5738 32.8528 14.7115 32.368 14.8915 31.8991C15.2834 30.8769 15.8712 29.939 16.6338 29.1012C16.888 28.822 17.1581 28.5585 17.4441 28.3003C18.2914 27.5521 19.2923 26.9145 20.4149 26.3982C21.1722 26.0557 21.9772 25.7659 22.8351 25.5393C23.5129 25.3602 24.2226 25.2179 24.9587 25.1178C25.2076 25.0862 25.4035 25.2917 25.3029 25.4866C25.1705 25.7554 25.0328 26.0241 24.9004 26.2928C24.8051 26.4878 24.7045 26.6827 24.6091 26.8777C24.535 27.0252 24.5085 27.1675 24.535 27.2887C24.5509 27.3571 24.5774 27.4256 24.625 27.4889C24.7468 27.6575 24.911 27.6786 25.1069 27.5468C25.5094 27.2781 25.9119 27.0094 26.3091 26.7459C27.2623 26.1136 28.2102 25.4761 29.1634 24.8438L29.1793 24.8333C30.6674 23.8427 32.1502 22.8521 33.6383 21.8615C33.7072 21.8141 33.7707 21.7561 33.8078 21.6824C33.8078 21.6718 33.8184 21.6666 33.8237 21.656C33.8554 21.5875 33.866 21.5032 33.8607 21.4084C33.8448 21.1976 33.7283 21.0711 33.5801 20.9974C30.8581 19.6063 28.1414 18.21 25.4194 16.819C25.0328 16.6188 24.6409 16.4186 24.249 16.2183C24.1378 16.1604 23.9842 16.1709 23.8942 16.25C23.7777 16.3448 23.7301 16.5187 23.7618 16.6873C23.7724 16.74 23.7883 16.7927 23.8201 16.8454C23.8624 16.9244 23.9101 16.9929 23.9578 17.0614C24.2861 17.5356 24.6091 18.0151 24.9375 18.4893C25.1175 18.7475 25.2923 19.0109 25.4723 19.2691C25.4723 19.2691 25.4512 19.2691 25.4088 19.2797C25.3823 19.2797 25.3452 19.2902 25.3029 19.3007C25.1864 19.3218 25.0063 19.3534 24.7839 19.4009C24.2226 19.5168 23.3699 19.7223 22.3796 20.0437C19.3929 20.9816 15.1934 22.8784 14.3037 26.2559V26.198C14.3037 26.198 14.2613 25.7343 14.2984 25.4761C14.2984 25.455 14.3037 10.6805 14.3037 10.6805C14.3037 10.1747 14.7909 9.76373 15.3946 9.76373H31.144C32.2561 9.76373 35.3382 9.71631 35.3435 9.71631C35.7089 9.72158 36.0637 9.73738 36.4133 9.76373C39.686 10.0693 42.5298 11.8977 44.2933 14.5586C45.0505 15.6967 45.6066 16.9876 45.9085 18.3787C45.9667 18.6474 46.0197 18.9161 46.0567 19.1901C46.1256 19.6432 46.1626 20.1016 46.1732 20.5706V20.5969C46.1732 20.6865 46.1732 20.7761 46.1732 20.8604C46.1732 27.0147 41.3647 32.0045 35.4336 32.0045C35.3435 32.0045 35.2482 32.0045 35.1582 32.0045C35.1529 32.0045 35.1423 32.0045 35.137 32.0045C35.084 32.0045 35.0364 32.0045 34.9834 31.9992C34.8193 31.9518 34.7239 31.799 34.7875 31.6514C35.0205 31.1298 35.28 30.6082 35.4388 30.0602C35.5183 29.7915 35.4653 29.391 35.137 29.3963C35.0152 29.3963 34.9146 29.4648 34.8193 29.528C33.8713 30.1603 32.9287 30.7873 31.9808 31.4196C30.4079 32.4681 28.8404 33.5114 27.2729 34.56H27.2623C26.9657 34.7655 26.6692 34.9604 26.3726 35.1606C26.2296 35.2555 26.1343 35.3925 26.1555 35.6138C26.1555 35.6296 26.1555 35.6507 26.1608 35.6665C26.1926 35.8456 26.2932 35.9563 26.4309 36.0248C29.5447 37.616 32.6533 39.2126 35.7619 40.8038C35.8784 40.8565 36.0267 40.846 36.1167 40.7722C36.1644 40.7353 36.1961 40.6879 36.2173 40.6352C36.2756 40.5035 36.2756 40.3296 36.1908 40.1768C36.1485 40.103 36.1008 40.0345 36.0479 39.966C35.7301 39.5023 35.4124 39.0387 35.0999 38.5803C34.9993 38.4327 35.084 38.243 35.28 38.1904C35.28 38.1904 35.28 38.1904 35.2853 38.1904C35.2906 38.1904 35.3012 38.1904 35.3065 38.1904C35.3118 38.1904 35.3223 38.1904 35.3276 38.1851C35.3594 38.1798 35.4071 38.1693 35.4706 38.1535C35.5077 38.1429 35.5554 38.1324 35.6083 38.1166C35.7513 38.0797 35.9366 38.0376 36.1538 37.9796C36.2067 37.9638 36.2597 37.9532 36.3126 37.9374C36.3232 37.9374 36.3391 37.9322 36.3497 37.9269C36.3921 37.9164 36.4397 37.9006 36.4821 37.89C36.5298 37.8795 36.5721 37.8637 36.6251 37.8531C36.6357 37.8531 36.641 37.8531 36.6516 37.8479C42.784 36.4516 45.2306 33.2796 45.6543 32.7105C45.6172 32.7527 46.5651 34.4967 46.6498 34.7391C46.8193 35.2449 46.9411 35.7613 47.0205 36.283C47.2642 37.8795 47.0947 39.534 46.5916 41.0778L46.581 41.0462Z" fill="url(#paint7_linear_8173_247)"/>
<path d="M46.5812 41.0461C45.342 44.824 41.7039 47.5744 37.1337 48.0012C35.5556 48.1488 32.2458 48.0645 30.6888 48.0645L28.793 47.4374C23.0101 45.5195 22.0833 37.774 27.2466 34.5546C26.9501 34.7548 26.6535 34.9497 26.3569 35.1447C26.214 35.2395 26.1186 35.3765 26.1398 35.5978C26.1398 35.6136 26.1398 35.6347 26.1451 35.6505C26.1769 35.8297 26.2775 35.9403 26.4152 36.0088C29.5291 37.6001 32.6376 39.1966 35.7462 40.7879C35.8627 40.8406 36.011 40.83 36.101 40.7563C36.1487 40.7194 36.1805 40.6719 36.2016 40.6193C36.2599 40.4875 36.2599 40.3137 36.1752 40.1609C36.1328 40.0871 36.0851 40.0186 36.0322 39.9501C35.7144 39.4864 35.3967 39.0227 35.0843 38.5643C34.9836 38.4168 35.0684 38.2271 35.2643 38.1744C35.2643 38.1744 35.2643 38.1744 35.2696 38.1744C35.2749 38.1744 35.2855 38.1744 35.2908 38.1744C35.2961 38.1744 35.3067 38.1744 35.312 38.1691C35.3437 38.1639 35.3914 38.1533 35.4549 38.1375C35.492 38.127 35.5397 38.1165 35.5926 38.1006C35.7356 38.0638 35.921 38.0216 36.1381 37.9637C36.1911 37.9478 36.244 37.9373 36.297 37.9215C36.3076 37.9215 36.3234 37.9162 36.334 37.911C36.3764 37.9004 36.4241 37.8846 36.4664 37.8741C36.5141 37.8635 36.5565 37.8477 36.6094 37.8372C36.62 37.8372 36.6253 37.8372 36.6359 37.8319C42.7683 36.4356 45.2149 33.2636 45.6386 32.6946C45.6015 32.7367 46.5494 34.4808 46.6342 34.7232C46.8036 35.229 46.9254 35.7454 47.0049 36.267C47.2485 37.8635 47.079 39.518 46.5759 41.0619L46.5812 41.0461Z" fill="url(#paint8_linear_8173_247)"/>
<path d="M33.8237 21.6612C33.8554 21.5927 28.1414 18.2152 25.4194 16.8189C25.0328 16.6187 24.6409 16.4185 24.249 16.2182C24.1378 16.1603 23.9842 16.1708 23.8942 16.2498C23.7777 16.3447 23.7301 16.5186 23.7618 16.6872C23.7724 16.7399 23.7883 16.7926 23.8201 16.8453C23.8624 16.9243 23.9101 16.9928 23.9578 17.0613C24.2861 17.5355 24.6091 18.015 24.9375 18.4892C25.1175 18.7474 25.2923 19.0108 25.4723 19.269C25.4723 19.269 25.4512 19.269 25.4088 19.2796C25.3823 19.2796 25.3452 19.2901 25.3029 19.3006C25.1864 19.3217 25.0063 19.3533 24.7839 19.4008C24.2226 19.5167 23.3699 19.7222 22.3796 20.0436C19.3929 20.9815 15.1934 22.8783 14.3037 26.2558V26.1978C14.3037 26.1978 14.2613 25.7342 14.2984 25.476C14.2984 25.4549 14.3037 10.6804 14.3037 10.6804C14.3037 10.1746 14.7909 9.76363 15.3946 9.76363H31.144C32.2561 9.76363 33.8237 9.68459 35.3276 9.7162C35.3276 9.7162 35.3382 9.7162 35.3541 9.72674C39.8237 11.0756 40.724 16.9822 36.8687 19.601C35.1582 20.7602 33.829 21.6612 33.829 21.6612H33.8237Z" fill="url(#paint9_linear_8173_247)"/>
<defs>
<linearGradient id="paint0_linear_8173_247" x1="65.5181" y1="18.8105" x2="65.4447" y2="46.3889" gradientUnits="userSpaceOnUse">
<stop stop-color="#C272AB"/>
<stop offset="0.11" stop-color="#B16CA8"/>
<stop offset="0.35" stop-color="#9261A3"/>
<stop offset="0.58" stop-color="#7C599F"/>
<stop offset="0.8" stop-color="#6E549D"/>
<stop offset="1" stop-color="#6A539D"/>
</linearGradient>
<linearGradient id="paint1_linear_8173_247" x1="95.7515" y1="18.8105" x2="95.6728" y2="46.3941" gradientUnits="userSpaceOnUse">
<stop stop-color="#C272AB"/>
<stop offset="0.11" stop-color="#B16CA8"/>
<stop offset="0.35" stop-color="#9261A3"/>
<stop offset="0.58" stop-color="#7C599F"/>
<stop offset="0.8" stop-color="#6E549D"/>
<stop offset="1" stop-color="#6A539D"/>
</linearGradient>
<linearGradient id="paint2_linear_8173_247" x1="128.426" y1="18.8" x2="128.352" y2="45.8093" gradientUnits="userSpaceOnUse">
<stop stop-color="#C272AB"/>
<stop offset="0.11" stop-color="#B16CA8"/>
<stop offset="0.35" stop-color="#9261A3"/>
<stop offset="0.58" stop-color="#7C599F"/>
<stop offset="0.8" stop-color="#6E549D"/>
<stop offset="1" stop-color="#6A539D"/>
</linearGradient>
<linearGradient id="paint3_linear_8173_247" x1="158.643" y1="18.8105" x2="158.57" y2="46.3836" gradientUnits="userSpaceOnUse">
<stop stop-color="#C272AB"/>
<stop offset="0.11" stop-color="#B16CA8"/>
<stop offset="0.35" stop-color="#9261A3"/>
<stop offset="0.58" stop-color="#7C599F"/>
<stop offset="0.8" stop-color="#6E549D"/>
<stop offset="1" stop-color="#6A539D"/>
</linearGradient>
<linearGradient id="paint4_linear_8173_247" x1="30.7574" y1="7.47154" x2="30.6001" y2="66.1742" gradientUnits="userSpaceOnUse">
<stop stop-color="#F1E3F0"/>
<stop offset="1" stop-color="#FDF8EF"/>
</linearGradient>
<linearGradient id="paint5_linear_8173_247" x1="50.3674" y1="39.8237" x2="26.9877" y2="41.1916" gradientUnits="userSpaceOnUse">
<stop stop-color="#C272AB" stop-opacity="0"/>
<stop offset="0.04" stop-color="#BA6EA7" stop-opacity="0.07"/>
<stop offset="0.25" stop-color="#965F96" stop-opacity="0.4"/>
<stop offset="0.45" stop-color="#7A5289" stop-opacity="0.66"/>
<stop offset="0.65" stop-color="#664A80" stop-opacity="0.85"/>
<stop offset="0.83" stop-color="#5A447A" stop-opacity="0.96"/>
<stop offset="1" stop-color="#564379"/>
</linearGradient>
<linearGradient id="paint6_linear_8173_247" x1="8.84369" y1="16.9928" x2="35.7713" y2="18.6906" gradientUnits="userSpaceOnUse">
<stop stop-color="#C272AB" stop-opacity="0"/>
<stop offset="0.04" stop-color="#BA6EA7" stop-opacity="0.07"/>
<stop offset="0.25" stop-color="#965F96" stop-opacity="0.4"/>
<stop offset="0.45" stop-color="#7A5289" stop-opacity="0.66"/>
<stop offset="0.65" stop-color="#664A80" stop-opacity="0.85"/>
<stop offset="0.83" stop-color="#5A447A" stop-opacity="0.96"/>
<stop offset="1" stop-color="#564379"/>
</linearGradient>
<linearGradient id="paint7_linear_8173_247" x1="30.7574" y1="7.47695" x2="30.5949" y2="66.1691" gradientUnits="userSpaceOnUse">
<stop stop-color="#C272AB"/>
<stop offset="0.11" stop-color="#B16CA8"/>
<stop offset="0.35" stop-color="#9261A3"/>
<stop offset="0.58" stop-color="#7C599F"/>
<stop offset="0.8" stop-color="#6E549D"/>
<stop offset="1" stop-color="#6A539D"/>
</linearGradient>
<linearGradient id="paint8_linear_8173_247" x1="50.3623" y1="39.8236" x2="26.9826" y2="41.1968" gradientUnits="userSpaceOnUse">
<stop stop-color="#C272AB" stop-opacity="0"/>
<stop offset="0.04" stop-color="#BA6EA7" stop-opacity="0.07"/>
<stop offset="0.25" stop-color="#965F96" stop-opacity="0.4"/>
<stop offset="0.45" stop-color="#7A5289" stop-opacity="0.66"/>
<stop offset="0.65" stop-color="#664A80" stop-opacity="0.85"/>
<stop offset="0.83" stop-color="#5A447A" stop-opacity="0.96"/>
<stop offset="1" stop-color="#564379"/>
</linearGradient>
<linearGradient id="paint9_linear_8173_247" x1="8.84384" y1="16.9928" x2="35.7661" y2="18.6906" gradientUnits="userSpaceOnUse">
<stop stop-color="#C272AB" stop-opacity="0"/>
<stop offset="0.04" stop-color="#BA6EA7" stop-opacity="0.07"/>
<stop offset="0.25" stop-color="#965F96" stop-opacity="0.4"/>
<stop offset="0.45" stop-color="#7A5289" stop-opacity="0.66"/>
<stop offset="0.65" stop-color="#664A80" stop-opacity="0.85"/>
<stop offset="0.83" stop-color="#5A447A" stop-opacity="0.96"/>
<stop offset="1" stop-color="#564379"/>
</linearGradient>
</defs>
</svg>
