<svg width="33" height="32" viewBox="0 0 33 32" fill="none" xmlns="http://www.w3.org/2000/svg">
<path d="M28.5 26.6667C28.5 24.3441 26.2733 22.3694 23.1667 21.6361M20.5 26.6667C20.5 23.7201 16.9187 21.3334 12.5 21.3334C8.08133 21.3334 4.5 23.7201 4.5 26.6667M20.5 17.3334C21.9145 17.3334 23.271 16.7715 24.2712 15.7713C25.2714 14.7711 25.8333 13.4146 25.8333 12.0001C25.8333 10.5856 25.2714 9.22904 24.2712 8.22885C23.271 7.22865 21.9145 6.66675 20.5 6.66675M12.5 17.3334C11.0855 17.3334 9.72896 16.7715 8.72876 15.7713C7.72857 14.7711 7.16667 13.4146 7.16667 12.0001C7.16667 10.5856 7.72857 9.22904 8.72876 8.22885C9.72896 7.22865 11.0855 6.66675 12.5 6.66675C13.9145 6.66675 15.271 7.22865 16.2712 8.22885C17.2714 9.22904 17.8333 10.5856 17.8333 12.0001C17.8333 13.4146 17.2714 14.7711 16.2712 15.7713C15.271 16.7715 13.9145 17.3334 12.5 17.3334Z" stroke="#FC5B31" stroke-width="2" stroke-linecap="round" stroke-linejoin="round"/>
</svg>
