<svg width="203" height="42" viewBox="0 0 203 42" fill="none" xmlns="http://www.w3.org/2000/svg">
<g id="Group 11">
<g id="Group">
<path id="Vector" d="M54.7207 34.2436V9.07901H63.3365C67.7454 9.07901 70.9377 10.1812 72.9171 12.3857C74.8966 14.5902 75.8844 17.6833 75.8844 21.6613C75.8844 25.6393 74.8966 28.7324 72.9171 30.9369C70.9377 33.1413 67.7454 34.2436 63.3365 34.2436H54.7207ZM59.2708 30.6317H63.0123C64.904 30.6317 66.4601 30.3304 67.6729 29.7278C68.8896 29.1252 69.7859 28.1679 70.3656 26.8559C70.9453 25.5439 71.2352 23.8124 71.2352 21.6613C71.2352 19.5102 70.9453 17.7787 70.3656 16.4667C69.7859 15.1547 68.8858 14.1974 67.6729 13.5947C66.4563 12.9921 64.904 12.6908 63.0123 12.6908H59.2708V30.6279V30.6317Z" fill="white"/>
<path id="Vector_2" d="M86.5974 34.7281C83.6492 34.7281 81.4028 33.8089 79.8543 31.9706C78.3059 30.1322 77.5316 27.6531 77.5316 24.5333C77.5316 22.47 77.8749 20.685 78.5652 19.1785C79.2517 17.672 80.27 16.5011 81.6126 15.662C82.9551 14.823 84.5989 14.4034 86.5326 14.4034C89.3091 14.4034 91.4259 15.2692 92.8905 17.0007C94.3512 18.7323 95.0835 21.2648 95.0835 24.5982V25.6317H81.7918C81.8986 27.3938 82.3563 28.8164 83.161 29.8919C83.9696 30.9675 85.1138 31.5053 86.5974 31.5053C87.7149 31.5053 88.615 31.1811 89.2901 30.5365C89.969 29.8919 90.4343 29.0643 90.6936 28.0536H94.8547C94.6182 29.3008 94.172 30.4259 93.516 31.4252C92.8599 32.4244 91.9598 33.2254 90.8233 33.828C89.6829 34.4306 88.2756 34.7319 86.5974 34.7319V34.7281ZM81.8223 22.7255H90.8233C90.7356 21.0702 90.3237 19.7887 89.5799 18.8848C88.8362 17.9809 87.8103 17.5309 86.4982 17.5309C85.1862 17.5309 84.0688 17.9733 83.2716 18.8543C82.4745 19.7354 81.9901 21.0283 81.8185 22.7255H81.8223Z" fill="white"/>
<path id="Vector_3" d="M98.1765 34.2436V9.07901H114.63V12.7252H102.662V19.2089H111.953V22.63H102.662V34.2436H98.1765Z" fill="white"/>
<path id="Vector_4" d="M119.504 12.4315C118.707 12.4315 118.097 12.2103 117.666 11.7717C117.235 11.3293 117.022 10.7572 117.022 10.0439C117.022 9.33073 117.235 8.75864 117.666 8.31622C118.097 7.8738 118.707 7.6564 119.504 7.6564C120.302 7.6564 120.939 7.87761 121.358 8.31622C121.778 8.75864 121.987 9.33073 121.987 10.0439C121.987 10.7572 121.778 11.3293 121.358 11.7717C120.939 12.2141 120.321 12.4315 119.504 12.4315ZM117.311 34.2397V14.8801H121.667V34.2397H117.311Z" fill="white"/>
<path id="Vector_5" d="M126.053 34.2436V14.8839H130.02V17.7864H130.794C131.183 16.7757 131.801 15.9595 132.648 15.334C133.498 14.7123 134.665 14.3996 136.149 14.3996C138.365 14.3996 139.993 15.0823 141.038 16.4477C142.08 17.8131 142.602 19.6247 142.602 21.8826V34.2398H138.246V22.6911C138.246 21.1846 137.976 20.029 137.442 19.2242C136.904 18.4195 136.053 18.0152 134.894 18.0152C133.475 18.0152 132.373 18.5682 131.587 19.6781C130.802 20.7879 130.409 22.1572 130.409 23.7934V34.2474H126.053V34.2436Z" fill="white"/>
<path id="Vector_6" d="M153.155 34.663C151.454 34.663 150.031 34.2397 148.88 33.3891C147.728 32.5386 146.858 31.3525 146.267 29.8231C145.676 28.2975 145.378 26.5316 145.378 24.5331C145.378 22.5346 145.672 20.7458 146.267 19.2431C146.858 17.7366 147.728 16.5657 148.88 15.7267C150.031 14.8876 151.446 14.4681 153.121 14.4681C154.41 14.4681 155.466 14.7045 156.282 15.1775C157.099 15.6504 157.736 16.2949 158.186 17.1149H158.96V8.43817H163.315V34.2473H159.345V31.7301H158.571C158.163 32.5272 157.522 33.2137 156.652 33.7934C155.783 34.3731 154.616 34.663 153.151 34.663H153.155ZM154.219 31.3716C155.68 31.3716 156.843 30.7537 157.705 29.518C158.563 28.2822 158.994 26.6308 158.994 24.5636C158.994 22.4965 158.563 20.8488 157.705 19.6131C156.843 18.3774 155.684 17.7595 154.219 17.7595C152.842 17.7595 151.778 18.3392 151.027 19.5025C150.275 20.6657 149.898 22.3515 149.898 24.5674C149.898 26.7833 150.275 28.4729 151.027 29.6324C151.778 30.7918 152.842 31.3754 154.219 31.3754V31.3716Z" fill="white"/>
<path id="Vector_7" d="M175.479 34.7281C172.531 34.7281 170.284 33.8089 168.736 31.9706C167.187 30.1322 166.413 27.6531 166.413 24.5333C166.413 22.47 166.756 20.685 167.447 19.1785C168.133 17.672 169.151 16.5011 170.494 15.662C171.836 14.823 173.48 14.4034 175.414 14.4034C178.19 14.4034 180.307 15.2692 181.772 17.0007C183.233 18.7323 183.965 21.2648 183.965 24.5982V25.6317H170.673C170.78 27.3938 171.238 28.8164 172.046 29.8919C172.851 30.9675 173.999 31.5053 175.483 31.5053C176.6 31.5053 177.5 31.1811 178.175 30.5365C178.854 29.8919 179.319 29.0643 179.579 28.0536H183.74C183.503 29.3008 183.057 30.4259 182.401 31.4252C181.745 32.4244 180.845 33.2254 179.708 33.828C178.568 34.4306 177.161 34.7319 175.483 34.7319L175.479 34.7281ZM170.704 22.7255H179.705C179.617 21.0702 179.205 19.7887 178.461 18.8848C177.718 17.9809 176.692 17.5309 175.38 17.5309C174.068 17.5309 172.95 17.9733 172.153 18.8543C171.356 19.7354 170.871 21.0283 170.7 22.7255H170.704Z" fill="white"/>
<path id="Vector_8" d="M184.804 34.2434V34.0489L190.902 24.0792L185.513 15.0783V14.8837H190.158L193.709 21.112H194.388L197.84 14.8837H202.161V15.0783L196.966 23.9839L203 34.0489V34.2434H198.194L194.064 26.9206H193.385L189.319 34.2434H184.804Z" fill="white"/>
</g>
<g id="Group 7">
<path id="Vector_9" d="M36.4588 17.5903H25.1996C18.0292 17.5903 11.1486 14.7412 6.07964 9.66847L4.83625 8.42508C4.62266 8.21149 4.2527 8.36405 4.2527 8.66536V12.9982C4.2527 13.185 4.10013 13.3376 3.91324 13.3376H0.339453C0.152563 13.3376 0 13.185 0 12.9982V0.926596C0 0.739706 0.152563 0.587143 0.339453 0.587143H12.411C12.5979 0.587143 12.7505 0.739706 12.7505 0.926596V4.49657C12.7505 4.68346 12.5979 4.83603 12.411 4.83603H8.07822C7.77309 4.83603 7.62434 5.20218 7.83793 5.41958C12.9107 10.4923 19.7874 13.3414 26.9579 13.3414H34.0559C34.3153 13.3414 34.4869 13.0592 34.3534 12.8342C31.5424 8.05511 26.3438 4.83984 20.4129 4.83984H17.3464C17.1595 4.83984 17.007 4.68728 17.007 4.50039V0.926596C17.007 0.739706 17.1595 0.587143 17.3464 0.587143H20.4129C28.9641 0.587143 36.2986 5.86964 39.3346 13.3414C39.3384 13.3567 39.346 13.3681 39.3498 13.3834C40.1622 15.401 38.6328 17.5941 36.4588 17.5941V17.5903Z" fill="#DEC9F4"/>
<path id="Vector_10" d="M36.4588 24.4097H25.1996C18.0292 24.4097 11.1486 27.2588 6.07964 32.3316L4.83625 33.5749C4.62266 33.7885 4.2527 33.636 4.2527 33.3347V29.0019C4.2527 28.815 4.10013 28.6624 3.91324 28.6624H0.339453C0.152563 28.6624 0 28.815 0 29.0019V41.0734C0 41.2603 0.152563 41.4129 0.339453 41.4129H12.411C12.5979 41.4129 12.7505 41.2603 12.7505 41.0734V37.5034C12.7505 37.3166 12.5979 37.164 12.411 37.164H8.07822C7.77309 37.164 7.62434 36.7978 7.83793 36.5804C12.9107 31.5077 19.7874 28.6586 26.9579 28.6586H34.0559C34.3153 28.6586 34.4869 28.9408 34.3534 29.1659C31.5424 33.9449 26.3438 37.1602 20.4129 37.1602H17.3464C17.1595 37.1602 17.007 37.3127 17.007 37.4996V41.0696C17.007 41.2565 17.1595 41.4091 17.3464 41.4091H20.4129C28.9641 41.4091 36.2986 36.1266 39.3346 28.6548C39.3384 28.6395 39.346 28.6281 39.3498 28.6128C40.1622 26.5952 38.6328 24.4021 36.4588 24.4021V24.4097Z" fill="#DEC9F4"/>
</g>
</g>
</svg>
