<?xml version="1.0" encoding="UTF-8" standalone="no"?>
<!DOCTYPE svg PUBLIC "-//W3C//DTD SVG 1.1//EN" "http://www.w3.org/Graphics/SVG/1.1/DTD/svg11.dtd">
<svg width="100%" height="100%" viewBox="0 0 500 191" version="1.1" xmlns="http://www.w3.org/2000/svg" xmlns:xlink="http://www.w3.org/1999/xlink" xml:space="preserve" xmlns:serif="http://www.serif.com/" style="fill-rule:evenodd;clip-rule:evenodd;stroke-linejoin:round;stroke-miterlimit:2;">
    <g id="Fondo" transform="matrix(1,0,0,1,0,-92)">
        <path d="M52.82,256.322C51.775,255.309 47.935,251.344 47.513,250.908C42.672,245.909 42.827,245.793 38.456,240.39C36.913,238.483 37.018,238.429 35.524,236.478C34.452,235.078 34.527,235.044 33.485,233.603C32.15,231.758 26.038,223.31 19.435,208.854C17.376,204.345 14.174,196.081 13.691,194.239C13.314,192.801 13.441,192.736 16.3,185.57C16.741,184.467 20.08,176.099 22.344,172.007C22.896,171.009 34.784,146.573 54.044,131.542C57.731,128.664 58.359,129.073 58.398,127.949C58.461,126.166 55.066,127.937 52.294,128.689C40.387,131.917 31.542,136.589 30.986,136.451C30.788,136.402 30.784,136.092 30.645,135.942C30.55,135.841 30.299,135.852 30.298,135.713C30.293,134.832 34.266,128.717 36.535,125.852C36.687,125.661 40.675,120.37 43.358,117.956C45.851,115.712 55.347,114.998 71.802,106.344C87.425,98.127 87.202,94.231 91.319,96.855C96.685,100.275 104.81,107.931 128.432,115.452C152.466,123.105 170.429,121.822 172.672,123.728C173.293,124.256 174.231,125.053 174.118,133.815C173.556,177.69 161.965,203.35 154.522,217.584C151.538,223.29 145.249,233.187 141.251,238.308C137.411,243.226 133.276,249.257 122.602,258.714C111.921,268.177 102.187,273.465 100.264,274.509C92.488,278.733 90.701,279.455 88.473,279.235C85.84,278.975 75.67,273.258 74.679,272.632C74.385,272.446 72.257,271.101 70.947,270.392C68.144,268.873 59.527,262.25 58.483,261.363C57.418,260.458 54.459,257.587 52.82,256.322L58.781,151.827C60.157,154.366 60.056,154.489 60.35,167.976C60.682,183.162 59.875,219.724 59.736,220.646C59.191,224.287 56.64,224.192 52.357,224.223C49.917,224.24 49.215,224.089 48.987,226.529C48.888,227.587 48.708,227.69 49.457,228.467C50.053,229.084 50.172,229.011 60.167,228.993C94.116,228.931 96.528,229.504 106.05,227.562C112.406,226.266 125.733,222.983 134.165,206.928C140.254,195.334 141.402,174.138 130.269,161.293C116.751,145.695 98.035,146.071 83.591,146.089C70.704,146.105 70.331,146.752 57.252,146.236C51.872,146.024 51.874,145.962 51.408,146.004C48.336,146.278 49.373,149.805 49.691,150.212C50.106,150.742 51.193,150.818 51.333,150.828C54.614,151.059 55.224,150.246 58.781,151.827L52.82,256.322ZM108.501,216.306C105.419,218.879 101.498,222.165 94.349,223.709C92.072,224.201 87.593,224.256 86.56,224.114C83.31,223.669 82.044,222.77 81.712,222.533C78.066,219.944 78.505,215.145 78.394,208.001C78.25,198.652 78.141,157.009 78.222,156.293C78.651,152.48 80.351,151.711 80.743,151.534C86.92,148.742 100.915,152.096 108.661,159.516C120.732,171.08 124.27,193.12 112.429,211.583C111.837,212.505 108.825,215.936 108.501,216.306ZM258.9,152.813C261.594,155.204 263.557,157.873 264.209,159.163C265.635,161.986 268.098,165.902 267.629,176.744C267.497,179.787 265.854,186.579 261.915,191.156C253.148,201.343 239.621,200.09 227.064,200.093C226.767,200.093 223.813,200.094 223.359,199.824C222.633,199.391 222.56,198.35 222.55,198.206C222.542,198.083 222.526,148.624 222.559,148.505C223.049,146.686 223.682,146.773 233.894,146.834C243.963,146.894 245.26,146.793 250.507,148.403C253.844,149.427 256.37,151.034 258.9,152.813L254.768,188.86C254.929,188.692 255.15,188.589 255.311,188.421C262.508,180.9 261.524,166.395 256.557,160.015C251.826,153.938 246.179,152.516 237.798,152.471C232.383,152.442 230.356,152.226 229.909,153.293C229.622,153.977 229.661,154.009 229.661,173.836C229.661,193.15 229.557,193.377 230.301,193.9C230.856,194.29 230.935,194.346 238.775,194.203C239.715,194.186 246.341,194.066 250.334,192.054C252.797,190.814 252.731,190.716 254.768,188.86L258.9,152.813ZM308.593,173.393C303.204,177.811 302.06,176.735 301.216,177.719C300.274,178.816 302.229,181.034 303.09,182.681C303.413,183.298 303.467,183.258 307.517,190.176C308.539,191.922 308.661,191.831 309.677,193.572C312.642,198.65 312.662,198.67 312.676,199.178C312.68,199.312 312.483,199.363 312.399,199.467C311.871,200.115 311.836,200.127 310.995,200.136C306.053,200.19 305.736,200.002 305.346,199.771C303.88,198.901 300.361,191.771 297.57,187.364C295.24,183.685 293.333,179.026 291.535,178.535C290.989,178.386 285.222,178.169 284.625,178.683C283.766,179.421 283.944,179.546 283.926,180.677C283.831,186.643 284.199,197.807 283.649,199.199C283.504,199.566 283.157,200.444 278.801,200.085C276.575,199.902 276.832,197.927 276.829,197.26C276.808,193.434 276.633,160.721 276.829,149.436C276.832,149.29 276.854,148.004 277.115,147.637C277.792,146.686 278.387,146.817 286.6,146.83C298.697,146.85 299.64,146.883 303.244,148.329C308.072,150.265 310.519,153.338 311.975,157.244C312.19,157.821 313.966,164.047 311.345,169.112C310.17,171.381 310.178,171.376 308.593,173.393L296.416,172.361C297.296,172.235 299.966,172.188 302.305,170.033C303.847,168.613 303.7,168.494 304.442,167.13C305.508,165.172 307.102,156.839 300.141,153.632C296.657,152.027 285.338,152.479 284.821,152.727C283.734,153.25 283.933,153.632 283.927,167.98C283.926,171.312 283.257,172.692 286.603,172.712C296.382,172.77 296.356,172.369 296.416,172.361L308.593,173.393ZM494.021,166.989C493.78,168.375 493.926,170.003 490.884,173.144C486.532,177.637 483.942,176.503 483.231,177.989C482.796,178.896 483.174,178.985 491.677,193.286C492.619,194.87 494.655,197.358 493.712,199.336C493.325,200.149 491.641,200.099 489.611,200.039C486.318,199.941 486.427,198.33 484.547,195.415C482.965,192.962 475.542,179.667 474.729,178.985C473.614,178.05 467.225,178.057 466.553,178.985C465.695,180.17 466.616,197.844 465.994,199.128C465.566,200.014 464.384,200.077 464.223,200.085C459.787,200.323 459.493,199.583 459.347,199.215C459.007,198.359 459.069,198.322 459.064,150.411C459.064,147.862 458.778,147.024 461.315,146.825C463.011,146.693 477.463,146.885 478.867,146.904C486.671,147.007 493.489,152.707 493.92,157.196C493.988,157.906 493.945,164.289 494.021,166.989L485.148,169.343C486.417,167.752 486.566,167.826 487.198,165.888C487.899,163.735 487.782,159.568 486.499,157.344C485.791,156.117 484.081,153.43 478.82,152.769C474.396,152.213 469.001,152.484 468.148,152.527C467.99,152.535 466.809,152.594 466.402,153.442C466.081,154.112 466.074,171.098 466.402,171.782C466.878,172.773 468.035,172.788 474.965,172.69C483.115,172.576 484.454,169.986 485.148,169.343L494.021,166.989ZM407.164,151.822C407.817,152.677 411.302,156.369 411.14,163.09C411.014,168.373 407.331,177.552 393.961,177.797C385.878,177.944 383.14,177.43 382.548,178.841C382.044,180.041 382.71,198.073 382.14,199.162C381.96,199.506 381.498,200.385 377.375,200.089C375.101,199.925 375.334,198.004 375.33,197.261C375.329,197.111 375.329,149.437 375.329,149.434C375.336,149.031 375.08,146.889 377.386,146.826C380.522,146.742 393.528,146.887 394.932,146.902C401.86,146.979 405.788,150.662 407.164,151.822L403.156,166.186C403.659,164.23 403.68,164.247 403.7,164.074C404.378,158.168 401.517,155.596 400.958,155.094C398.378,152.775 394.231,152.675 392.971,152.611C390.267,152.473 384.304,152.523 384.216,152.531C384.064,152.545 382.929,152.653 382.554,153.476C382.381,153.857 382.315,153.868 382.386,167.979C382.401,170.95 382.202,171.955 385.175,171.957C395.496,171.965 398.119,172.114 401.105,169.294C402.489,167.988 402.395,167.918 403.156,166.186L407.164,151.822ZM347.768,147.779C348.051,148.376 348.334,148.972 348.617,149.569C349.877,153.384 355.926,169.54 356.72,171.939C356.949,172.63 360.061,180.947 360.629,182.674C360.822,183.262 363.867,191.381 364.536,193.408C365.105,195.132 366.628,198.504 366.337,199.142C365.894,200.115 365.746,200.065 364.671,200.103C359.558,200.286 359.353,199.484 358.801,198.246C356.822,193.808 356.266,188.874 353.966,188.378C352.743,188.115 352.729,188.256 338.327,188.295C334.379,188.306 332.351,188.058 331.553,189.487C330.579,191.234 328.417,198.55 327.654,199.269C326.833,200.042 326.769,199.976 325.631,200.03C321.989,200.203 319.741,200.768 321.049,197.357C322.367,193.919 322.239,193.876 336.932,154.162C337.875,151.613 338.762,147.877 340.183,147.282C340.943,146.964 340.954,146.96 345.171,147.028C347.294,147.062 347.182,147.514 347.768,147.779L349.521,172.69C347.832,167.397 347.681,167.469 345.843,162.231C345.181,160.346 345.339,160.317 344.71,158.412C344.348,157.312 344.322,157.025 343.182,157.184C342.405,157.292 342.597,157.552 342.41,158.307C341.251,162.994 337.004,173.56 335.619,177.82C335.001,179.72 333.91,181.078 335.011,182.065C335.623,182.612 336.559,182.451 337.355,182.451C349.921,182.45 349.91,182.528 351.001,182.487C351.769,182.457 351.788,182.433 352.298,181.852C352.385,181.752 352.557,181.694 352.57,181.562C352.639,180.856 349.789,173.391 349.521,172.69L347.768,147.779ZM34.79,119.053L35.83,119.054C35.802,119.456 36.257,119.793 36.229,120.195C36.166,121.098 35.382,120.554 28.347,128.314C28.086,128.602 28.127,128.626 25.204,132.013C23.008,134.557 18.989,140.118 18.469,140.838C17.042,142.812 17.159,142.878 15.695,144.81C15.261,145.383 14.767,145.92 14.423,146.551C13.602,148.061 14.708,148.306 16.288,147.597C17.106,147.23 16.926,146.795 21.218,144.747C24.641,143.114 34.141,139.363 35.742,138.617C36.949,138.054 37.109,137.448 38.048,138.378C39.206,139.525 38.233,139.663 37.188,140.906C36.572,141.638 36.716,141.729 30.144,150.577C26.397,155.622 21.084,165.598 19.32,169.996C15.739,178.925 15.457,178.817 13.835,184.43C13.012,187.278 13.082,187.371 12.374,187.862C12.124,188.035 11.864,188.388 11.574,188.298C11.568,188.296 8.724,176.328 8.607,175.753C5.764,161.763 6.033,161.706 6.033,149.436C6.033,128.422 6.042,128.431 5.966,126.015C5.843,122.072 8.16,122.999 14.324,122.392C28.589,120.989 33.207,119.547 34.79,119.053ZM448.152,151.924C447.347,152.206 447.407,152.447 445.689,152.452C440.483,152.452 435.278,152.451 430.072,152.451C427.497,152.452 426.902,152.653 426.888,155.289C426.823,167.929 426.693,167.953 427.001,169.007C427.418,170.434 428.263,170.185 438.856,170.185C443.834,170.185 445.372,170.009 445.786,170.824C446.341,171.916 446.29,173.576 446.282,173.818C446.201,176.468 444.292,175.993 437.882,176.034C428.439,176.093 428.428,176.053 428.203,176.14C426.674,176.731 426.894,177.08 426.883,178.708C426.791,192.25 426.692,192.275 427.137,193.36C427.559,194.385 427.942,194.229 442.76,194.229C446.557,194.229 448.4,193.756 448.599,196.285C448.982,201.157 446.686,200.093 441.784,200.093C421.077,200.093 421.026,200.135 420.504,199.829C419.74,199.384 419.691,198.352 419.685,198.206C419.671,197.925 419.67,148.696 419.685,148.49C419.839,146.423 421.738,146.624 422.267,146.618C427.977,146.556 443.813,146.612 445.687,146.618C446.592,146.621 447.292,146.525 447.949,147.14C448.881,148.011 448.602,148.166 448.608,149.436C448.617,151.293 448.353,151.245 448.152,151.924ZM383.744,227.05C383.643,227.118 382.484,227.892 382.484,227.892C381.546,228.536 381.256,228.283 380.873,229.341C380.487,230.408 380.96,230.382 382.847,233.606C383.737,235.127 383.756,235.095 384.693,236.58C385.5,237.86 386.275,238.158 385.043,239.057C384.226,239.653 382.23,239.599 380.732,237.022C380.47,236.57 377.726,231.85 377.465,231.361C377.36,231.165 376.602,229.751 375.411,229.486C373.034,228.958 372.691,230.261 372.63,230.49C372.393,231.391 372.658,237.456 372.376,238.211C372.316,238.374 371.907,239.47 370.526,239.334C368.747,239.159 368.966,238.278 368.969,220.684C368.969,220.3 368.969,216.027 369.023,215.889C369.641,214.28 372.111,214.48 374.443,214.493C375.42,214.498 383.098,213.722 385.153,218.742C387.141,223.599 383.794,226.978 383.744,227.05L381.747,223.832C381.841,223.416 382.08,223.041 382.174,222.625C382.666,220.442 381.374,219.064 381.159,218.835C379.234,216.781 373.327,217.244 372.816,217.963C372.17,218.874 372.497,224.055 372.531,224.584C372.645,226.388 374.226,226.374 374.453,226.39C381.203,226.869 381.594,224.076 381.747,223.832L383.744,227.05ZM271.678,232.264C271.464,226.444 271.402,216.383 271.595,215.673C272.116,213.762 273.821,214.556 274.012,214.644C275.047,215.126 274.881,215.488 274.881,228.492C274.881,237.751 275.019,238.747 273.875,239.139C272.069,239.756 271.085,238.491 270.935,238.297C269.322,236.222 262.592,225.891 261.883,224.802C260.818,223.168 259.62,220.422 258.683,221.124C258.279,221.425 258.32,222.516 258.325,222.641C258.372,223.891 258.852,236.673 258.347,238.275C257.976,239.45 255.46,240.271 255.192,237.293C255.161,236.948 255.189,217.599 255.215,216.772C255.221,216.58 255.271,214.927 256.246,214.602C258.068,213.994 259.199,215.524 259.356,215.737C260.968,217.916 263.54,221.869 264.872,223.786C265.195,224.25 266.951,226.776 268.716,229.707C269.302,230.68 269.222,230.7 269.814,231.648C270.228,232.31 270.221,232.427 270.995,232.44C271.23,232.444 271.443,232.26 271.678,232.264ZM414.04,216.251C414.863,217.366 415.994,218.472 415.691,219.83C415.486,220.749 413.709,220.789 412.802,220.216C412,219.71 410.924,216.814 406.595,217.382C402.559,217.912 402.515,222.394 404.636,223.692C408.322,225.946 415.512,225.806 416.309,231.434C416.391,232.01 416.898,235.587 413.362,238.077C409.756,240.617 402.485,240.141 400.031,235.233C399.946,235.063 399.14,233.451 400.551,232.916C402.856,232.043 403.793,235.034 405.033,235.821C407.342,237.285 413.159,236.646 412.829,232.367C412.38,226.536 399.257,229.921 399.685,220.677C399.843,217.263 402.406,215.32 404.635,214.643C410.15,212.967 413.655,216.009 414.04,216.251ZM226.656,234.714C226.769,234.806 227.774,236.409 230.967,236.442C237.94,236.515 237.115,229.787 237.147,225.567C237.172,222.225 237.167,216.097 237.244,215.887C237.299,215.735 237.711,214.602 238.76,214.551C240.47,214.467 240.502,216.562 240.505,216.789C240.523,217.958 240.646,226.117 240.386,231.404C239.866,241.975 222.683,242.742 221.824,231.45C221.593,228.412 221.901,223.712 221.637,217.758C221.577,216.409 221.714,215.511 222.304,214.971C222.45,214.837 225.019,213.551 225.116,216.78C225.121,216.938 225.115,225.88 225.126,228.492C225.146,233.564 225.78,233.464 226.656,234.714ZM341.741,238.782C341.68,238.569 341.506,238.399 341.445,238.186C341.287,237.635 341.284,236.481 341.293,230.444C341.314,215.568 341.121,215.202 342.162,214.715C343.107,214.272 343.134,214.403 344.185,214.419C344.837,214.429 345.489,214.393 346.141,214.385C353.988,214.291 354.815,214.528 354.866,215.806C354.897,216.584 354.727,216.543 354.117,217.018C352.961,217.917 346.194,216.821 345.234,217.82C344.594,218.487 344.721,223.867 345.075,224.641C345.617,225.824 350.622,225.197 352.021,225.375C354.568,225.698 353.868,227.592 352.826,228.103C352.568,228.23 351.158,228.235 351.013,228.235C347.404,228.248 347.41,228.226 347.096,228.233C345.667,228.262 345.269,227.99 344.9,229.381C344.819,229.687 344.82,232.155 344.82,232.396C344.821,235.264 344.232,236.434 347.101,236.498C353.475,236.641 353.583,236.397 354.256,236.948C354.377,237.046 355.408,237.889 354.515,238.87C354.025,239.408 352.201,239.417 351.995,239.418C342.477,239.464 342.5,239.204 342.279,239.122C342.08,239.048 341.94,238.856 341.741,238.782ZM315.327,238.766C314.063,236.598 314.15,236.57 313.269,234.233C307.153,218.01 307.069,218.065 306.571,216.644C306.2,215.59 306.136,215.421 307.043,214.744C307.537,214.376 309.134,214.749 309.556,215.211C310.124,215.833 315.422,230.463 315.94,232.37C315.994,232.572 317.276,237.295 318.551,232.292C318.997,230.541 324.088,216.832 324.59,215.759C325.208,214.438 326.463,214.518 326.655,214.53C326.808,214.54 328.166,214.626 328.103,215.784C328.013,217.45 327.525,217.285 326.925,218.85C326.222,220.687 321.987,231.979 321.034,234.452C320.13,236.798 319.376,240.295 315.936,239.089C315.719,239.013 315.544,238.842 315.327,238.766ZM480.313,224.342C480.178,224.059 479.105,221.799 478.568,220.845C478.38,220.511 476.428,217.041 476.242,216.648C476.169,216.492 475.44,214.948 476.817,214.573C478.716,214.054 479.921,216.393 480.063,216.668C484.079,224.467 483.758,224.615 484.147,225.271C484.653,226.123 485.583,225.61 485.693,225.549C485.818,225.481 489.664,217.353 490.569,215.794C491.626,213.971 493.736,214.527 493.881,215.731C493.964,216.423 492.811,218.58 492.686,218.813C489.938,223.951 489.591,224.903 487.997,227.692C486.091,231.027 486.984,233.638 486.789,237.285C486.777,237.518 486.664,239.627 484.713,239.318C482.943,239.038 483.367,235.162 483.367,234.348C483.366,229.678 483.318,229.581 480.313,224.342ZM456.943,238.805C456.737,238.877 456.608,239.101 456.402,239.174C456.163,239.258 454.152,239.969 453.883,237.254C453.858,236.992 453.933,219.064 453.836,218.638C453.5,217.164 453.072,217.408 451.57,217.369C450.914,217.352 450.258,217.371 449.602,217.365C449.362,217.363 446.969,217.34 447.032,215.813C447.085,214.5 449.346,214.461 449.576,214.458C450.358,214.444 450.355,214.502 459.353,214.465C459.44,214.464 462.338,214.348 463.316,214.736C464.381,215.159 464.229,216.78 463.093,217.27C462.889,217.358 458.276,217.176 457.699,217.954C457.247,218.563 457.398,219.911 457.378,235.324C457.376,237.125 457.38,237.118 457.373,237.274C457.329,238.226 456.963,238.736 456.943,238.805ZM290.004,238.795C289.947,238.587 289.665,238.377 289.588,237.271C289.575,237.09 289.582,216.837 289.584,216.783C289.679,213.474 292.366,214.926 292.375,214.933C293.235,215.688 293.063,217.436 293.063,217.757C293.063,235.706 293.216,235.703 293.06,237.255C292.788,239.986 290.77,239.249 290.532,239.161C290.331,239.088 290.205,238.869 290.004,238.795ZM430.5,238.135C430.276,233.316 430.415,233.328 430.415,228.492C430.415,224.347 430.415,216.823 430.417,216.795C430.438,216.534 430.655,213.872 433.013,214.804C433.791,215.112 433.853,216.614 433.86,216.786C433.865,216.9 433.869,237.077 433.857,237.267C433.842,237.489 433.715,239.436 432.018,239.342C430.973,239.284 431.114,238.976 430.5,238.135Z" style="fill:white;"/>
    </g>
</svg>
