<svg width="32" height="32" viewBox="0 0 32 32" fill="none" xmlns="http://www.w3.org/2000/svg">
<g clip-path="url(#clip0_6075_647)">
<path d="M16 10.6667L12 13V17.6667L16 20L20 17.6667V13L16 10.6667ZM18.0227 13.3867L15.9827 14.576L13.96 13.396L16 12.2067L18.0227 13.3867ZM13.32 14.5627L15.2987 15.7173V18.0507L13.32 16.8973V14.5627ZM16.6187 18.1V15.744L18.68 14.5413V16.8973L16.6187 18.1ZM4 0L0 2.33333V7L4 9.33333L8 7V2.33333L4 0ZM6.02267 2.72L3.98267 3.90933L1.96 2.72933L4 1.54L6.02267 2.72ZM1.32 3.89467L3.29867 5.04933V7.38267L1.32 6.232V3.89467ZM4.61867 7.432V5.07733L6.68 3.87467V6.23067L4.61867 7.432ZM4 22.6667L0 25V29.6667L4 32L8 29.6667V25L4 22.6667ZM6.02267 25.3867L3.98267 26.576L1.96 25.396L4 24.2067L6.02267 25.3867ZM1.32 26.5627L3.29867 27.7173V30.0507L1.32 28.8987V26.5627ZM4.61867 30.1V27.744L6.68 26.5413V28.8973L4.61867 30.1ZM28 0L24 2.33333V7L28 9.33333L32 7V2.33333L28 0ZM30.0227 2.72L27.9827 3.90933L25.96 2.72933L28 1.54L30.0227 2.72ZM25.32 3.896L27.2987 5.05067V7.384L25.32 6.23067V3.896ZM28.6187 7.43333V5.07733L30.68 3.87467V6.23067L28.6187 7.43333ZM28 22.6667L24 25V29.6667L28 32L32 29.6667V25L28 22.6667ZM30.0227 25.3867L27.9827 26.576L25.96 25.396L28 24.2067L30.0227 25.3867ZM25.32 26.5627L27.2987 27.7173V30.0507L25.32 28.8973V26.5627ZM28.6187 30.1V27.744L30.68 26.5413V28.8973L28.6187 30.1ZM12 4H20V5.33333H12V4ZM12 26.6667H20V28H12V26.6667ZM4.66667 12V20H3.33333V12H4.66667ZM9.724 11.7707L6.896 8.94267L7.83867 8L10.6667 10.8267L9.724 11.7707ZM21.3333 11.0573L24.1613 8.22933L25.104 9.172L22.276 12L21.3333 11.0573ZM10.8373 19.8387L8.00933 22.6667L7.06667 21.724L9.89467 18.896L10.8373 19.8387ZM22.5053 18.8387L25.3333 21.6667L24.3907 22.6093L21.5627 19.7813L22.5053 18.8387ZM28.6667 12V20H27.3333V12H28.6667Z" fill="#014751"/>
</g>
<defs>
<clipPath id="clip0_6075_647">
<rect width="32" height="32" fill="white"/>
</clipPath>
</defs>
</svg>
