<svg width="751" height="510" viewBox="0 0 751 510" fill="none" xmlns="http://www.w3.org/2000/svg">
<path d="M373.142 165.145L116.74 187.578L116.741 187.595C110.932 188.255 105.888 191.13 102.365 195.29C98.6088 191.491 94.3268 188.201 89.5996 185.53C79.3483 179.74 67.7246 177.218 55.9834 178.245L20.8131 181.322C8.28447 182.418 -1.00769 193.502 0.0876466 206.021L6.24243 276.371C7.33777 288.891 18.4134 298.193 30.942 297.096L66.1124 294.019C77.8527 292.983 88.8619 288.481 97.952 280.999C101.844 277.796 105.269 274.135 108.171 270.11C112.455 274.033 118.249 276.272 124.467 275.897L124.493 275.895C124.689 275.896 124.893 275.878 125.096 275.86L380.869 253.465C392.92 252.411 402.342 243.322 404.297 231.935C404.642 229.961 404.766 227.917 404.619 225.835C404.619 225.63 404.601 225.418 404.582 225.205L401.402 188.858C400.147 174.507 387.494 163.89 373.142 165.145Z" fill="#DEC9F4"/>
<path d="M123.073 253.748L119.215 209.659L134.31 208.338C142.034 207.663 147.795 209.102 151.601 212.665C155.408 216.228 157.616 221.491 158.226 228.464C158.836 235.436 157.575 241.002 154.445 245.172C151.315 249.342 145.892 251.76 138.168 252.436L123.073 253.757L123.073 253.748ZM130.491 246.724L137.047 246.151C140.365 245.86 143.044 245.091 145.076 243.852C147.116 242.613 148.535 240.795 149.351 238.405C150.167 236.016 150.406 232.937 150.076 229.168C149.747 225.398 148.977 222.408 147.758 220.196C146.539 217.985 144.818 216.45 142.602 215.575C140.377 214.708 137.614 214.415 134.296 214.705L127.74 215.279L130.49 246.707L130.491 246.724Z" fill="#014751"/>
<path d="M179.004 249.711C173.836 250.163 169.758 248.897 166.769 245.913C163.771 242.93 162.037 238.704 161.559 233.236C161.242 229.618 161.571 226.442 162.552 223.699C163.525 220.957 165.132 218.748 167.349 217.074C169.574 215.399 172.385 214.413 175.774 214.117C180.64 213.691 184.48 214.88 187.311 217.69C190.134 220.501 191.804 224.822 192.316 230.67L192.475 232.484L169.187 234.522C169.643 237.593 170.667 240.018 172.238 241.779C173.819 243.54 175.909 244.302 178.511 244.075C180.466 243.904 181.991 243.2 183.078 241.963C184.164 240.727 184.86 239.204 185.157 237.395L192.447 236.757C192.223 238.979 191.617 241.02 190.62 242.873C189.623 244.725 188.17 246.261 186.272 247.497C184.365 248.725 181.952 249.471 179.005 249.729L179.004 249.711ZM168.794 229.412L184.56 228.032C184.156 225.143 183.234 222.959 181.795 221.489C180.356 220.019 178.491 219.389 176.19 219.59C173.89 219.792 172.002 220.741 170.739 222.403C169.476 224.065 168.825 226.413 168.785 229.412L168.794 229.412Z" fill="#014751"/>
<path d="M199.218 247.086L195.36 202.988L224.195 200.465L224.754 206.854L203.784 208.688L204.778 220.049L221.049 218.625L221.574 224.624L205.303 226.048L207.083 246.398L199.218 247.086Z" fill="#014751"/>
<path d="M233.247 205.594C231.849 205.716 230.744 205.421 229.925 204.717C229.105 204.004 228.637 203.037 228.528 201.79C228.418 200.542 228.702 199.501 229.395 198.665C230.079 197.82 231.117 197.346 232.515 197.224C233.913 197.102 235.061 197.393 235.863 198.099C236.666 198.813 237.125 199.781 237.234 201.028C237.343 202.276 237.06 203.317 236.393 204.151C235.726 204.994 234.671 205.469 233.247 205.594ZM232.75 244.144L229.782 210.221L237.418 209.553L240.386 243.476L232.75 244.144Z" fill="#014751"/>
<path d="M248.067 242.812L245.099 208.89L252.044 208.282L252.489 213.37L253.843 213.251C254.37 211.422 255.324 209.894 256.714 208.667C258.105 207.449 260.11 206.72 262.703 206.494C266.587 206.154 269.54 207.099 271.582 209.337C273.613 211.566 274.811 214.662 275.157 218.617L277.052 240.268L269.425 240.935L267.654 220.7C267.424 218.063 266.769 216.079 265.716 214.744C264.646 213.42 263.097 212.843 261.062 213.021C258.576 213.238 256.733 214.38 255.522 216.439C254.311 218.497 253.84 220.963 254.091 223.83L255.693 242.145L248.067 242.812Z" fill="#014751"/>
<path d="M295.618 239.392C292.636 239.653 290.076 239.128 287.929 237.818C285.781 236.508 284.078 234.562 282.808 231.972C281.539 229.39 280.746 226.339 280.439 222.835C280.133 219.332 280.372 216.155 281.185 213.427C281.99 210.699 283.332 208.514 285.221 206.868C287.11 205.223 289.523 204.272 292.46 204.015C294.717 203.818 296.602 204.072 298.108 204.769C299.614 205.475 300.827 206.502 301.74 207.875L303.094 207.756L301.764 192.556L309.391 191.888L313.348 237.11L306.393 237.718L306.008 233.312L304.654 233.431C304.06 234.891 303.041 236.193 301.608 237.344C300.175 238.494 298.176 239.177 295.61 239.402L295.618 239.392ZM296.98 233.46C299.537 233.236 301.487 231.978 302.801 229.679C304.116 227.379 304.615 224.42 304.298 220.802C303.981 217.183 302.976 214.355 301.283 212.328C299.58 210.293 297.46 209.391 294.894 209.615C292.478 209.826 290.709 211.006 289.569 213.157C288.429 215.307 288.033 218.32 288.373 222.204C288.712 226.088 289.634 228.985 291.122 230.906C292.618 232.825 294.574 233.679 296.981 233.469L296.98 233.46Z" fill="#014751"/>
<path d="M334.744 236.085C329.577 236.537 325.499 235.271 322.51 232.288C319.511 229.305 317.778 225.079 317.299 219.611C316.983 215.992 317.311 212.816 318.293 210.073C319.265 207.331 320.873 205.122 323.089 203.448C325.314 201.774 328.125 200.788 331.514 200.491C336.38 200.065 340.22 201.254 343.052 204.064C345.874 206.876 347.545 211.196 348.057 217.045L348.215 218.858L324.928 220.896C325.384 223.967 326.407 226.392 327.988 228.153C329.559 229.914 331.659 230.676 334.26 230.448C336.215 230.277 337.741 229.573 338.827 228.337C339.923 227.1 340.61 225.577 340.906 223.768L348.197 223.131C347.972 225.352 347.366 227.394 346.369 229.246C345.372 231.099 343.92 232.634 342.022 233.87C340.114 235.098 337.692 235.845 334.755 236.102L334.744 236.085ZM324.534 215.786L340.301 214.406C339.897 211.518 338.974 209.334 337.535 207.864C336.096 206.394 334.231 205.763 331.931 205.965C329.63 206.166 327.743 207.116 326.48 208.777C325.216 210.439 324.566 212.787 324.525 215.787L324.534 215.786Z" fill="#014751"/>
<path d="M351.003 233.808L350.973 233.462L360.133 215.062L349.312 200.112L349.283 199.776L357.423 199.063L364.597 209.429L365.783 209.325L370.881 197.886L378.454 197.223L378.484 197.56L370.745 213.964L382.861 230.673L382.891 231.018L374.468 231.755L366.108 219.558L364.922 219.662L358.922 233.115L351.003 233.808Z" fill="#014751"/>
<path d="M88.5551 227.703L68.8243 229.429C56.2603 230.528 43.7641 226.593 34.1117 218.477L31.7447 216.491C31.3406 216.152 30.709 216.475 30.7555 217.006L31.4196 224.597C31.4483 224.925 31.2061 225.213 30.8787 225.242L24.6144 225.79C24.287 225.819 23.9984 225.576 23.9697 225.249L22.1189 204.094C22.0902 203.766 22.3325 203.478 22.6598 203.449L43.8151 201.598C44.1425 201.57 44.4311 201.812 44.4598 202.139L45.0071 208.395C45.0357 208.722 44.7935 209.011 44.4661 209.039L36.8746 209.704C36.3438 209.75 36.1348 210.419 36.5397 210.767C46.2098 218.881 58.6884 222.818 71.2524 221.719L83.6925 220.63C84.1437 220.591 84.4012 220.069 84.1371 219.7C78.4765 211.761 68.879 206.921 58.4827 207.831L53.1121 208.301C52.7847 208.329 52.496 208.087 52.4674 207.76L51.9193 201.495C51.8907 201.168 52.1329 200.879 52.4603 200.851L57.8309 200.381C72.8104 199.07 86.4761 207.201 92.9393 219.83C92.9416 219.857 92.9609 219.873 92.972 219.899C94.7062 223.313 92.3612 227.388 88.5478 227.721L88.5551 227.703Z" fill="#014751"/>
<path d="M89.6005 239.657L69.8697 241.383C57.3057 242.482 45.6826 248.528 37.5862 258.196L35.6 260.563C35.2609 260.967 34.5829 260.759 34.5365 260.228L33.8723 252.637C33.8437 252.309 33.555 252.067 33.2277 252.096L26.9634 252.644C26.636 252.673 26.3938 252.961 26.4224 253.289L28.2733 274.444C28.3019 274.771 28.5906 275.013 28.9179 274.985L50.0732 273.134C50.4006 273.105 50.6428 272.817 50.6142 272.489L50.0669 266.234C50.0382 265.906 49.7496 265.664 49.4222 265.693L41.8307 266.357C41.2999 266.404 40.9779 265.781 41.3162 265.368C49.4304 255.698 61.0358 249.654 73.5998 248.555L86.0399 247.466C86.4911 247.427 86.8353 247.896 86.6393 248.306C82.4434 257.107 73.832 263.539 63.4357 264.449L58.065 264.919C57.7377 264.948 57.4955 265.236 57.5241 265.564L58.0714 271.819C58.1 272.146 58.3887 272.389 58.7161 272.36L64.0867 271.89C79.0662 270.58 91.1125 260.2 95.2844 246.64C95.2821 246.613 95.2982 246.594 95.3047 246.567C96.4196 242.903 93.4027 239.298 89.5893 239.631L89.5909 239.649L89.6005 239.657Z" fill="#014751"/>
<path d="M473.227 422.619L222.927 362.657L222.922 362.674C217.204 361.46 211.508 362.589 206.849 365.418C204.49 360.624 201.471 356.147 197.834 352.116C189.945 343.376 179.719 337.301 168.258 334.555L133.924 326.33C121.694 323.4 109.369 330.969 106.441 343.191L89.9891 411.866C87.0613 424.087 94.6191 436.419 106.85 439.349L141.183 447.574C152.647 450.311 164.515 449.529 175.508 445.312C180.214 443.508 184.622 441.121 188.65 438.223C191.47 443.3 196.257 447.26 202.272 448.875L202.298 448.881C202.484 448.944 202.683 448.991 202.881 449.039L452.572 508.837C464.336 511.655 476.153 506.019 481.615 495.838C482.567 494.075 483.332 492.177 483.853 490.155C483.918 489.961 483.968 489.753 484.017 489.546L492.517 454.064C495.874 440.054 487.236 425.975 473.227 422.619Z" fill="#D3FBFF"/>
<path d="M207.968 427.425L218.279 384.385L233.014 387.915C240.554 389.722 245.562 392.912 248.044 397.498C250.525 402.084 250.952 407.775 249.321 414.581C247.691 421.388 244.732 426.268 240.442 429.231C236.152 432.195 230.242 432.77 222.701 430.964L207.966 427.434L207.968 427.425ZM217.23 423.114L223.63 424.647C226.869 425.423 229.654 425.542 231.973 425.011C234.301 424.482 236.223 423.207 237.754 421.199C239.285 419.191 240.487 416.347 241.369 412.667C242.25 408.988 242.467 405.907 242.012 403.423C241.557 400.94 240.41 398.939 238.586 397.406C236.75 395.879 234.223 394.726 230.984 393.95L224.584 392.417L217.234 423.096L217.23 423.114Z" fill="#014751"/>
<path d="M262.297 441.317C257.253 440.109 253.786 437.616 251.896 433.839C249.998 430.06 249.692 425.502 250.971 420.164C251.817 416.632 253.135 413.723 254.935 411.433C256.726 409.14 258.951 407.555 261.583 406.669C264.224 405.786 267.203 405.741 270.511 406.534C275.262 407.672 278.527 410.016 280.322 413.578C282.108 417.139 282.324 421.766 280.956 427.476L280.532 429.246L257.799 423.8C257.258 426.858 257.461 429.482 258.393 431.651C259.334 433.822 261.076 435.207 263.615 435.815C265.524 436.272 267.194 436.088 268.616 435.26C270.038 434.431 271.181 433.207 272.035 431.585L279.152 433.29C278.235 435.326 277.014 437.071 275.481 438.512C273.949 439.953 272.084 440.949 269.893 441.52C267.695 442.08 265.169 442.023 262.293 441.334L262.297 441.317ZM259.045 418.829L274.436 422.516C274.968 419.648 274.785 417.284 273.886 415.434C272.987 413.584 271.418 412.395 269.172 411.857C266.926 411.319 264.835 411.622 263.111 412.798C261.386 413.974 260.025 415.995 259.036 418.827L259.045 418.829Z" fill="#014751"/>
<path d="M282.301 445.233L292.614 402.184L320.762 408.928L319.269 415.164L298.798 410.26L296.141 421.35L312.025 425.155L310.622 431.011L294.738 427.206L289.979 447.072L282.301 445.233Z" fill="#014751"/>
<path d="M327.724 416.66C326.359 416.333 325.405 415.702 324.851 414.775C324.299 413.839 324.161 412.774 324.453 411.556C324.745 410.338 325.343 409.441 326.266 408.867C327.182 408.283 328.316 408.162 329.681 408.489C331.046 408.816 332.043 409.457 332.58 410.38C333.115 411.312 333.244 412.374 332.952 413.592C332.66 414.81 332.061 415.708 331.165 416.288C330.266 416.876 329.114 416.993 327.724 416.66ZM315.038 453.066L322.971 419.951L330.425 421.736L322.492 454.852L315.038 453.066Z" fill="#014751"/>
<path d="M329.987 456.657L337.92 423.541L344.701 425.166L343.511 430.132L344.832 430.449C345.911 428.881 347.3 427.734 349.008 427.01C350.713 426.296 352.846 426.24 355.376 426.846C359.168 427.755 361.67 429.587 362.897 432.356C364.118 435.114 364.273 438.43 363.348 442.291L358.285 463.427L350.84 461.643L355.572 441.89C356.189 439.316 356.196 437.226 355.62 435.627C355.025 434.032 353.739 432.993 351.753 432.518C349.326 431.936 347.215 432.435 345.415 434.004C343.614 435.573 342.386 437.763 341.716 440.561L337.433 458.44L329.987 456.657Z" fill="#014751"/>
<path d="M376.172 468.478C373.262 467.781 371 466.472 369.378 464.549C367.756 462.626 366.757 460.241 366.373 457.381C365.988 454.531 366.202 451.386 367.022 447.965C367.841 444.545 369.074 441.607 370.71 439.278C372.337 436.946 374.303 435.298 376.616 434.336C378.929 433.374 381.519 433.236 384.386 433.923C386.589 434.451 388.297 435.289 389.504 436.428C390.708 437.575 391.534 438.932 391.965 440.524L393.287 440.841L396.842 426.002L404.287 427.786L393.712 471.931L386.923 470.305L387.953 466.003L386.632 465.687C385.605 466.884 384.227 467.796 382.503 468.433C380.78 469.07 378.666 469.085 376.162 468.485L376.172 468.478ZM379.344 463.283C381.84 463.881 384.088 463.305 386.063 461.541C388.038 459.777 389.449 457.128 390.295 453.596C391.142 450.063 391.084 447.063 390.121 444.603C389.151 442.133 387.425 440.606 384.92 440.006C382.562 439.441 380.51 440 378.748 441.678C376.985 443.356 375.654 446.088 374.746 449.88C373.838 453.671 373.794 456.712 374.597 459.004C375.408 461.299 376.992 462.729 379.342 463.292L379.344 463.283Z" fill="#014751"/>
<path d="M414.331 477.738C409.286 476.53 405.819 474.037 403.93 470.26C402.031 466.481 401.725 461.923 403.004 456.585C403.85 453.053 405.168 450.144 406.968 447.854C408.759 445.561 410.984 443.976 413.617 443.09C416.258 442.207 419.236 442.162 422.545 442.955C427.295 444.093 430.56 446.437 432.355 449.999C434.142 453.56 434.358 458.187 432.99 463.897L432.566 465.667L409.832 460.221C409.292 463.279 409.494 465.903 410.435 468.074C411.368 470.243 413.118 471.63 415.657 472.238C417.566 472.696 419.236 472.511 420.658 471.683C422.089 470.857 423.223 469.63 424.077 468.008L431.194 469.713C430.277 471.75 429.056 473.494 427.523 474.935C425.991 476.376 424.127 477.372 421.935 477.943C419.737 478.503 417.203 478.444 414.335 477.757L414.331 477.738ZM411.078 455.25L426.47 458.937C427.002 456.069 426.819 453.705 425.92 451.855C425.02 450.005 423.451 448.816 421.205 448.278C418.96 447.74 416.869 448.043 415.144 449.219C413.419 450.395 412.058 452.416 411.069 455.248L411.078 455.25Z" fill="#014751"/>
<path d="M430.473 480.729L430.554 480.392L445.072 465.842L439.546 448.234L439.624 447.905L447.571 449.809L451.091 461.913L452.249 462.191L460.708 452.956L468.101 454.727L468.023 455.056L455.485 468.163L461.683 487.849L461.602 488.186L453.379 486.216L449.314 472L448.157 471.722L438.204 482.581L430.473 480.729Z" fill="#014751"/>
<path d="M183.481 391.785L164.22 387.171C151.955 384.233 141.35 376.541 134.766 365.785L133.15 363.152C132.874 362.702 132.173 362.808 132.049 363.326L130.274 370.737C130.197 371.056 129.876 371.254 129.556 371.177L123.441 369.712C123.121 369.635 122.924 369.314 123.001 368.995L127.948 348.343C128.025 348.023 128.346 347.826 128.666 347.903L149.317 352.85C149.637 352.927 149.834 353.248 149.758 353.568L148.295 359.674C148.218 359.994 147.897 360.191 147.577 360.114L140.166 358.339C139.648 358.215 139.238 358.783 139.512 359.241C146.113 370.001 156.701 377.689 168.966 380.627L181.11 383.536C181.551 383.642 181.96 383.229 181.827 382.795C178.973 373.471 171.403 365.84 161.255 363.409L156.012 362.153C155.692 362.076 155.495 361.755 155.572 361.436L157.037 355.32C157.113 355.001 157.434 354.804 157.754 354.88L162.997 356.136C177.62 359.639 188.005 371.681 190.134 385.707C190.128 385.733 190.141 385.755 190.143 385.783C190.706 389.571 187.191 392.692 183.469 391.8L183.481 391.785Z" fill="#014751"/>
<path d="M180.685 403.454L161.424 398.84C149.159 395.902 136.22 397.953 125.477 404.558L122.843 406.174C122.394 406.45 121.816 406.038 121.941 405.519L123.716 398.109C123.793 397.789 123.595 397.468 123.276 397.391L117.161 395.926C116.841 395.85 116.52 396.047 116.443 396.366L111.496 417.018C111.419 417.338 111.616 417.659 111.936 417.735L132.588 422.683C132.907 422.759 133.229 422.562 133.305 422.243L134.768 416.136C134.845 415.817 134.648 415.495 134.328 415.419L126.917 413.643C126.399 413.519 126.291 412.827 126.743 412.542C137.503 405.941 150.425 403.886 162.69 406.824L174.834 409.733C175.274 409.839 175.452 410.393 175.137 410.719C168.368 417.738 158.162 421.11 148.014 418.679L142.771 417.423C142.451 417.347 142.13 417.544 142.053 417.863L140.591 423.97C140.514 424.289 140.711 424.611 141.031 424.687L146.273 425.943C160.896 429.446 175.611 423.418 183.864 411.878C183.87 411.852 183.892 411.839 183.907 411.815C186.125 408.694 184.406 404.318 180.683 403.426L180.679 403.444L180.685 403.454Z" fill="#014751"/>
<path d="M719.462 256.764L463.06 279.196L463.061 279.214C457.252 279.874 452.208 282.749 448.685 286.909C444.929 283.11 440.647 279.82 435.92 277.149C425.668 271.359 414.045 268.836 402.303 269.863L367.133 272.94C354.604 274.037 345.312 285.12 346.408 297.64L352.562 367.99C353.658 380.509 364.733 389.811 377.262 388.715L412.432 385.638C424.173 384.602 435.182 380.099 444.272 372.617C448.164 369.415 451.589 365.754 454.491 361.729C458.775 365.651 464.569 367.89 470.786 367.516L470.813 367.514C471.009 367.514 471.213 367.496 471.416 367.479L727.189 345.084C739.24 344.029 748.662 334.94 750.617 323.553C750.961 321.58 751.086 319.536 750.939 317.454C750.939 317.249 750.921 317.036 750.902 316.824L747.722 280.477C746.467 266.125 733.814 255.508 719.462 256.764Z" fill="#D3FFB4"/>
<path d="M469.393 345.366L465.535 301.277L480.63 299.956C488.354 299.281 494.115 300.72 497.921 304.283C501.728 307.846 503.936 313.11 504.546 320.082C505.156 327.054 503.895 332.62 500.765 336.79C497.635 340.96 492.212 343.378 484.488 344.054L469.393 345.375L469.393 345.366ZM476.811 338.342L483.367 337.769C486.685 337.478 489.364 336.709 491.395 335.47C493.436 334.231 494.855 332.413 495.671 330.023C496.487 327.634 496.726 324.555 496.396 320.786C496.066 317.017 495.297 314.026 494.078 311.814C492.859 309.603 491.138 308.069 488.921 307.193C486.697 306.326 483.934 306.033 480.616 306.323L474.06 306.897L476.81 338.325L476.811 338.342Z" fill="#014751"/>
<path d="M525.324 341.329C520.157 341.781 516.079 340.515 513.09 337.531C510.091 334.548 508.358 330.323 507.879 324.855C507.563 321.236 507.891 318.06 508.873 315.317C509.845 312.575 511.453 310.366 513.669 308.692C515.894 307.018 518.705 306.032 522.094 305.735C526.96 305.309 530.8 306.498 533.632 309.308C536.454 312.119 538.125 316.44 538.636 322.288L538.795 324.102L515.508 326.14C515.964 329.211 516.987 331.636 518.559 333.397C520.139 335.158 522.23 335.92 524.831 335.693C526.786 335.522 528.312 334.818 529.398 333.581C530.485 332.345 531.181 330.822 531.477 329.013L538.768 328.375C538.543 330.597 537.937 332.638 536.94 334.491C535.943 336.343 534.491 337.879 532.593 339.115C530.685 340.343 528.272 341.089 525.326 341.347L525.324 341.329ZM515.114 321.03L530.881 319.65C530.477 316.761 529.554 314.578 528.115 313.108C526.676 311.638 524.811 311.007 522.511 311.208C520.21 311.41 518.323 312.359 517.06 314.021C515.796 315.683 515.146 318.031 515.105 321.031L515.114 321.03Z" fill="#014751"/>
<path d="M545.538 338.704L541.68 294.606L570.515 292.083L571.074 298.472L550.104 300.306L551.098 311.667L567.369 310.243L567.894 316.242L551.623 317.666L553.403 338.016L545.538 338.704Z" fill="#014751"/>
<path d="M579.567 297.211C578.169 297.333 577.065 297.037 576.245 296.333C575.425 295.621 574.957 294.654 574.848 293.407C574.739 292.159 575.022 291.118 575.716 290.281C576.4 289.437 577.437 288.963 578.835 288.841C580.233 288.718 581.382 289.01 582.184 289.716C582.986 290.43 583.445 291.397 583.554 292.645C583.664 293.892 583.38 294.934 582.713 295.768C582.047 296.61 580.992 297.086 579.567 297.211ZM579.071 335.761L576.103 301.838L583.739 301.17L586.706 335.093L579.071 335.761Z" fill="#014751"/>
<path d="M594.387 334.431L591.419 300.508L598.365 299.9L598.81 304.988L600.164 304.869C600.69 303.04 601.644 301.512 603.035 300.285C604.426 299.067 606.431 298.339 609.023 298.112C612.907 297.772 615.861 298.717 617.902 300.955C619.934 303.184 621.132 306.28 621.478 310.235L623.372 331.886L615.745 332.553L613.975 312.318C613.744 309.681 613.089 307.697 612.036 306.363C610.966 305.039 609.418 304.461 607.383 304.639C604.897 304.856 603.053 305.998 601.842 308.057C600.632 310.115 600.161 312.581 600.412 315.448L602.014 333.763L594.387 334.431Z" fill="#014751"/>
<path d="M641.938 331.01C638.956 331.271 636.396 330.746 634.249 329.436C632.101 328.126 630.398 326.18 629.128 323.589C627.859 321.008 627.066 317.957 626.759 314.453C626.453 310.949 626.692 307.772 627.505 305.044C628.31 302.317 629.652 300.131 631.541 298.486C633.43 296.841 635.843 295.89 638.78 295.633C641.037 295.435 642.922 295.689 644.428 296.387C645.934 297.093 647.147 298.119 648.06 299.492L649.414 299.374L648.084 284.173L655.711 283.506L659.668 328.728L652.713 329.336L652.328 324.93L650.974 325.048C650.38 326.509 649.361 327.811 647.928 328.961C646.495 330.112 644.496 330.795 641.93 331.019L641.938 331.01ZM643.3 325.078C645.857 324.854 647.807 323.596 649.121 321.296C650.436 318.997 650.934 316.038 650.618 312.419C650.301 308.8 649.296 305.973 647.603 303.946C645.9 301.91 643.78 301.008 641.214 301.233C638.798 301.444 637.029 302.624 635.889 304.774C634.749 306.925 634.353 309.937 634.692 313.821C635.032 317.706 635.954 320.603 637.442 322.523C638.938 324.443 640.894 325.297 643.301 325.087L643.3 325.078Z" fill="#014751"/>
<path d="M681.064 327.703C675.897 328.155 671.819 326.889 668.83 323.906C665.831 320.923 664.098 316.697 663.619 311.229C663.303 307.61 663.631 304.434 664.613 301.691C665.585 298.949 667.193 296.74 669.409 295.066C671.634 293.392 674.445 292.406 677.834 292.109C682.7 291.684 686.54 292.872 689.371 295.683C692.194 298.494 693.865 302.814 694.376 308.663L694.535 310.476L671.248 312.514C671.704 315.586 672.727 318.01 674.307 319.771C675.879 321.532 677.979 322.294 680.58 322.066C682.535 321.895 684.061 321.191 685.147 319.955C686.243 318.718 686.93 317.196 687.226 315.387L694.517 314.749C694.292 316.97 693.686 319.012 692.689 320.864C691.692 322.717 690.239 324.252 688.342 325.488C686.434 326.716 684.012 327.463 681.074 327.72L681.064 327.703ZM670.854 307.404L686.621 306.025C686.217 303.136 685.294 300.952 683.855 299.482C682.416 298.012 680.551 297.381 678.251 297.583C675.95 297.784 674.063 298.734 672.8 300.396C671.536 302.057 670.886 304.406 670.845 307.405L670.854 307.404Z" fill="#014751"/>
<path d="M697.323 325.425L697.293 325.08L706.453 306.679L695.632 291.729L695.603 291.393L703.743 290.681L710.917 301.046L712.103 300.942L717.2 289.503L724.774 288.841L724.804 289.177L717.065 305.581L729.181 322.29L729.211 322.635L720.788 323.372L712.428 311.176L711.242 311.279L705.242 324.732L697.323 325.425Z" fill="#014751"/>
<path d="M434.875 319.322L415.144 321.048C402.58 322.147 390.084 318.212 380.432 310.097L378.065 308.11C377.661 307.771 377.029 308.094 377.075 308.625L377.74 316.216C377.768 316.544 377.526 316.832 377.199 316.861L370.934 317.409C370.607 317.438 370.318 317.196 370.29 316.868L368.439 295.713C368.41 295.385 368.652 295.097 368.98 295.068L390.135 293.217C390.462 293.189 390.751 293.431 390.78 293.758L391.327 300.014C391.356 300.341 391.113 300.63 390.786 300.658L383.195 301.323C382.664 301.369 382.455 302.038 382.86 302.386C392.53 310.5 405.008 314.437 417.572 313.338L430.012 312.249C430.464 312.21 430.721 311.688 430.457 311.319C424.797 303.38 415.199 298.54 404.803 299.45L399.432 299.92C399.105 299.948 398.816 299.706 398.787 299.379L398.239 293.115C398.211 292.787 398.453 292.499 398.78 292.47L404.151 292C419.13 290.689 432.796 298.82 439.259 311.449C439.262 311.476 439.281 311.492 439.292 311.518C441.026 314.932 438.681 319.007 434.868 319.34L434.875 319.322Z" fill="#014751"/>
<path d="M435.921 331.275L416.19 333.001C403.626 334.1 392.003 340.146 383.907 349.814L381.92 352.181C381.581 352.585 380.903 352.377 380.857 351.846L380.193 344.255C380.164 343.928 379.875 343.685 379.548 343.714L373.284 344.262C372.956 344.291 372.714 344.579 372.743 344.907L374.594 366.062C374.622 366.389 374.911 366.632 375.238 366.603L396.394 364.752C396.721 364.723 396.963 364.435 396.935 364.107L396.387 357.852C396.359 357.525 396.07 357.282 395.743 357.311L388.151 357.975C387.62 358.022 387.298 357.399 387.637 356.986C395.751 347.316 407.356 341.272 419.92 340.173L432.36 339.085C432.812 339.045 433.156 339.514 432.96 339.924C428.764 348.725 420.152 355.158 409.756 356.067L404.386 356.537C404.058 356.566 403.816 356.854 403.845 357.182L404.392 363.437C404.42 363.765 404.709 364.007 405.037 363.978L410.407 363.508C425.387 362.198 437.433 351.818 441.605 338.258C441.603 338.231 441.619 338.212 441.625 338.185C442.74 334.521 439.723 330.916 435.91 331.249L435.911 331.267L435.921 331.275Z" fill="#014751"/>
<path d="M634.049 116.154L387.511 42.2309L387.506 42.2479C381.865 40.714 376.115 41.5213 371.304 44.0843C369.218 39.1658 366.455 34.5264 363.05 30.2971C355.665 21.1284 345.796 14.4883 334.507 11.1032L300.69 0.96323C288.643 -2.64889 275.912 4.21559 272.303 16.2537L252.02 83.8965C248.411 95.9346 255.264 108.671 267.311 112.283L301.128 122.423C312.42 125.8 324.314 125.685 335.526 122.093C340.326 120.556 344.861 118.42 349.045 115.752C351.576 120.98 356.133 125.203 362.048 127.152L362.074 127.16C362.256 127.233 362.451 127.292 362.647 127.351L608.586 201.076C620.173 204.55 632.287 199.587 638.312 189.729C639.362 188.022 640.233 186.169 640.866 184.18C640.942 183.99 641.003 183.786 641.064 183.581L651.544 148.633C655.681 134.834 647.848 120.292 634.049 116.154Z" fill="#FC5B31"/>
<path d="M368.939 106.057L381.65 63.6642L396.164 68.0161C403.591 70.2431 408.412 73.7099 410.632 78.4276C412.852 83.1454 412.958 88.8519 410.948 95.5558C408.938 102.26 405.709 106.966 401.26 109.684C396.81 112.402 390.877 112.644 383.45 110.417L368.937 106.065L368.939 106.057ZM378.428 102.272L384.732 104.163C387.923 105.119 390.696 105.395 393.041 104.994C395.395 104.597 397.386 103.432 399.027 101.513C400.669 99.5947 402.029 96.8221 403.115 93.1979C404.202 89.5737 404.592 86.5102 404.277 84.0049C403.962 81.4996 402.93 79.4377 401.194 77.8045C399.447 76.1774 396.989 74.8838 393.798 73.9272L387.494 72.037L378.433 102.255L378.428 102.272Z" fill="white"/>
<path d="M422.402 122.978C417.434 121.488 414.112 118.805 412.438 114.927C410.754 111.047 410.705 106.48 412.282 101.222C413.325 97.7428 414.804 94.9132 416.73 92.7274C418.647 90.5391 420.957 89.0807 423.635 88.3444C426.322 87.6107 429.298 87.7337 432.557 88.7107C437.236 90.1137 440.364 92.6373 441.956 96.2951C443.54 99.9504 443.496 104.583 441.809 110.206L441.287 111.95L418.895 105.236C418.183 108.259 418.238 110.89 419.047 113.108C419.865 115.328 421.526 116.809 424.027 117.559C425.907 118.122 427.585 118.032 429.052 117.285C430.518 116.538 431.728 115.38 432.672 113.808L439.682 115.91C438.652 117.892 437.334 119.564 435.723 120.917C434.112 122.27 432.195 123.16 429.975 123.607C427.748 124.043 425.23 123.844 422.397 122.995L422.402 122.978ZM420.418 100.342L435.578 104.888C436.27 102.054 436.221 99.6843 435.427 97.7865C434.633 95.8887 433.133 94.6137 430.921 93.9504C428.709 93.2872 426.604 93.4721 424.816 94.5493C423.028 95.6266 421.556 97.5681 420.409 100.34L420.418 100.342Z" fill="white"/>
<path d="M442.154 128.01L454.868 85.6087L482.594 93.9221L480.752 100.065L460.589 94.0188L457.314 104.942L472.959 109.634L471.23 115.402L455.584 110.71L449.717 130.278L442.154 128.01Z" fill="white"/>
<path d="M489.11 102.033C487.766 101.63 486.849 100.947 486.348 99.9898C485.849 99.0243 485.771 97.9533 486.131 96.7538C486.491 95.5542 487.139 94.6915 488.092 94.1707C489.04 93.6389 490.179 93.5817 491.523 93.9848C492.868 94.3878 493.827 95.0836 494.311 96.0355C494.793 96.9958 494.862 98.0643 494.502 99.2639C494.143 100.463 493.495 101.326 492.567 101.855C491.636 102.391 490.48 102.444 489.11 102.033ZM474.4 137.669L484.181 105.052L491.523 107.253L481.742 139.871L474.4 137.669Z" fill="white"/>
<path d="M489.124 142.094L498.905 109.477L505.583 111.479L504.116 116.371L505.418 116.761C506.583 115.256 508.034 114.189 509.78 113.563C511.523 112.945 513.655 113.009 516.147 113.757C519.882 114.876 522.277 116.846 523.347 119.68C524.411 122.502 524.38 125.822 523.239 129.625L516.997 150.443L509.664 148.244L515.498 128.787C516.258 126.252 516.383 124.166 515.898 122.537C515.393 120.911 514.168 119.802 512.211 119.215C509.82 118.498 507.685 118.878 505.799 120.343C503.914 121.809 502.565 123.926 501.738 126.683L496.458 144.293L489.124 142.094Z" fill="white"/>
<path d="M534.572 156.491C531.705 155.631 529.52 154.197 528.009 152.187C526.498 150.176 525.634 147.738 525.412 144.861C525.187 141.994 525.578 138.866 526.588 135.497C527.598 132.128 528.995 129.264 530.759 127.03C532.514 124.793 534.569 123.258 536.932 122.427C539.296 121.597 541.889 121.605 544.714 122.452C546.883 123.102 548.541 124.035 549.682 125.24C550.821 126.453 551.569 127.855 551.91 129.468L553.212 129.859L557.594 115.243L564.928 117.442L551.89 160.923L545.203 158.918L546.473 154.682L545.172 154.291C544.08 155.429 542.652 156.262 540.896 156.802C539.139 157.341 537.028 157.237 534.561 156.497L534.572 156.491ZM538.031 151.482C540.489 152.22 542.766 151.771 544.837 150.12C546.908 148.47 548.465 145.905 549.509 142.425C550.552 138.945 550.663 135.947 549.839 133.437C549.009 130.917 547.372 129.295 544.905 128.555C542.583 127.858 540.503 128.301 538.648 129.878C536.794 131.454 535.313 134.107 534.193 137.842C533.073 141.577 532.859 144.609 533.531 146.944C534.212 149.281 535.714 150.797 538.028 151.491L538.031 151.482Z" fill="white"/>
<path d="M572.15 167.879C567.182 166.389 563.861 163.705 562.186 159.828C560.503 155.948 560.453 151.381 562.03 146.123C563.073 142.644 564.552 139.814 566.478 137.628C568.395 135.44 570.705 133.982 573.383 133.245C576.07 132.512 579.046 132.635 582.305 133.612C586.984 135.015 590.112 137.538 591.705 141.196C593.288 144.851 593.244 149.483 591.558 155.107L591.035 156.851L568.643 150.137C567.931 153.159 567.986 155.791 568.804 158.011C569.613 160.229 571.283 161.712 573.784 162.462C575.664 163.026 577.342 162.935 578.808 162.188C580.283 161.444 581.484 160.283 582.428 158.712L589.438 160.814C588.409 162.795 587.091 164.468 585.48 165.821C583.869 167.174 581.952 168.064 579.731 168.511C577.505 168.946 574.978 168.745 572.154 167.898L572.15 167.879ZM570.166 145.243L585.326 149.789C586.018 146.955 585.969 144.585 585.175 142.687C584.381 140.79 582.881 139.515 580.669 138.851C578.457 138.188 576.352 138.373 574.564 139.45C572.776 140.527 571.304 142.469 570.157 145.241L570.166 145.243Z" fill="white"/>
<path d="M588.1 171.772L588.199 171.44L603.512 157.728L598.982 139.837L599.079 139.514L606.906 141.861L609.742 154.144L610.882 154.486L619.846 145.741L627.129 147.925L627.032 148.248L613.778 160.63L618.86 180.634L618.761 180.966L610.661 178.537L607.401 164.115L606.261 163.773L595.714 174.055L588.1 171.772Z" fill="white"/>
<path d="M346.493 69.0981L327.521 63.4096C315.44 59.7872 305.283 51.5121 299.314 40.4035L297.849 37.6831C297.599 37.2187 296.893 37.2851 296.74 37.7956L294.551 45.095C294.456 45.4098 294.125 45.5885 293.81 45.4941L287.787 43.688C287.472 43.5936 287.293 43.2619 287.388 42.9471L293.487 22.6058C293.581 22.291 293.913 22.1123 294.228 22.2067L314.569 28.3059C314.884 28.4003 315.063 28.7321 314.968 29.0469L313.165 35.0616C313.07 35.3764 312.739 35.5551 312.424 35.4607L305.124 33.272C304.614 33.119 304.172 33.6635 304.42 34.1365C310.406 45.2501 320.546 53.5202 332.627 57.1425L344.588 60.7291C345.022 60.8592 345.454 60.4695 345.345 60.0289C343.02 50.5599 335.891 42.5158 325.894 39.5184L320.73 37.97C320.416 37.8756 320.237 37.5439 320.331 37.2291L322.137 31.2058C322.232 30.891 322.564 30.7123 322.878 30.8067L328.042 32.3551C342.446 36.6739 352.139 49.2792 353.476 63.4033C353.469 63.4289 353.48 63.451 353.481 63.479C353.831 67.2927 350.146 70.212 346.479 69.1126L346.493 69.0981Z" fill="white"/>
<path d="M343.046 80.5914L324.075 74.9029C311.994 71.2805 298.96 72.6018 287.863 78.5933L285.143 80.0586C284.678 80.3087 284.125 79.8647 284.278 79.3543L286.467 72.0549C286.561 71.7401 286.383 71.4084 286.068 71.314L280.045 69.5079C279.73 69.4135 279.398 69.5922 279.304 69.907L273.204 90.2484C273.11 90.5631 273.289 90.8949 273.603 90.9893L293.945 97.0885C294.26 97.1829 294.591 97.0042 294.686 96.6895L296.489 90.6747C296.584 90.3599 296.405 90.0282 296.09 89.9338L288.791 87.7451C288.28 87.592 288.211 86.8944 288.678 86.6358C299.792 80.6494 312.809 79.323 324.89 82.9454L336.851 86.532C337.285 86.6621 337.432 87.2252 337.098 87.5332C329.946 94.1604 319.567 96.9548 309.571 93.9574L304.407 92.409C304.092 92.3146 303.76 92.4933 303.666 92.8081L301.863 98.8229C301.768 99.1377 301.947 99.4694 302.262 99.5638L307.426 101.112C321.829 105.431 336.858 100.239 345.747 89.1807C345.754 89.1552 345.777 89.1432 345.793 89.1203C348.183 86.128 346.712 81.6628 343.045 80.5634L343.04 80.5804L343.046 80.5914Z" fill="white"/>
</svg>
