<svg width="42" height="42" viewBox="0 0 42 42" fill="none" xmlns="http://www.w3.org/2000/svg">
<g id="Group 36813">
<rect id="Rectangle 4268" x="0.515137" y="0.885254" width="40.5" height="40.5" rx="7.5" fill="#D3FFB4" stroke="#D3FFB4"/>
<g id="Group 36811">
<path id="Vector" d="M20.7651 11.9853C20.13 11.9853 19.6151 12.5001 19.6151 13.1353V29.1353C19.6151 29.7704 20.13 30.2853 20.7651 30.2853C21.4003 30.2853 21.9151 29.7704 21.9151 29.1353V13.1353C21.9151 12.5001 21.4003 11.9853 20.7651 11.9853Z" fill="#014751" stroke="#D3FFB4" stroke-width="0.3" stroke-linecap="round"/>
<path id="Vector_2" d="M12.7651 19.9853C12.13 19.9853 11.6151 20.5001 11.6151 21.1353C11.6151 21.7704 12.13 22.2853 12.7651 22.2853H28.7651C29.4003 22.2853 29.9151 21.7704 29.9151 21.1353C29.9151 20.5001 29.4003 19.9853 28.7651 19.9853H12.7651Z" fill="#014751" stroke="#D3FFB4" stroke-width="0.3" stroke-linecap="round"/>
</g>
</g>
</svg>
