<svg width="128" height="48" viewBox="0 0 128 48" fill="none" xmlns="http://www.w3.org/2000/svg">
<path d="M61.2322 29.962C61.5256 29.962 61.7634 29.7242 61.7634 29.4309V25.5839C61.7634 23.811 62.8488 22.7617 64.6579 22.7617C66.2319 22.7617 67.1183 23.6301 67.1183 25.0955V29.4309C67.1183 29.7242 67.3561 29.962 67.6494 29.962H70.9128C71.2054 29.962 71.4429 29.7253 71.4439 29.4327L71.4602 24.6613C71.4783 21.9838 69.5968 20.3194 66.648 20.3194C64.2809 20.3194 62.6719 21.3481 61.8028 22.9547C61.8008 22.9584 61.7969 22.9607 61.7928 22.9607C61.7865 22.9607 61.7814 22.9556 61.7814 22.9494V16.9971C61.7814 16.7038 61.5437 16.466 61.2503 16.466H57.9707C57.6774 16.466 57.4396 16.7038 57.4396 16.9971V29.4309C57.4396 29.7242 57.6774 29.962 57.9707 29.962H61.2322Z" fill="white"/>
<path d="M77.0812 30.2514C79.7008 30.2514 81.8152 29.3133 82.6858 27.8333C82.688 27.8295 82.6921 27.8272 82.6965 27.8272C82.7027 27.8272 82.708 27.8319 82.7087 27.8382L82.7256 27.99C82.9246 29.4011 84.2633 30.2514 86.3257 30.2514C87.5719 30.2514 88.6839 29.9966 89.3847 29.5678C89.5777 29.4496 89.6348 29.2058 89.5514 28.9954L89.187 28.0757C89.058 27.7501 88.6447 27.6349 88.3067 27.7266C88.154 27.768 87.9968 27.791 87.8454 27.791C87.3026 27.791 86.977 27.5016 86.977 27.0131V23.9376C86.977 21.6582 84.2814 20.3194 80.1205 20.3194C77.3748 20.3194 74.6449 21.0095 72.8068 22.0976C72.5776 22.2332 72.502 22.5238 72.6203 22.7624L73.2559 24.0439C73.3957 24.3258 73.7482 24.4243 74.0238 24.2723C75.7811 23.3033 78.0631 22.6893 80.1205 22.6893C81.6944 22.6893 82.7075 23.0331 82.7075 23.5215C82.7075 23.7024 82.4723 23.8472 82.0924 23.8834L78.5103 24.209C74.6027 24.5708 72.3775 25.8553 72.3775 27.7006C72.3775 29.3288 74.1142 30.2514 77.0812 30.2514ZM78.637 27.7006C77.3887 27.7006 76.7193 27.4473 76.7193 26.9769C76.7193 26.5066 77.4249 26.2171 78.7998 26.1086L82.509 25.7761C82.5767 25.7701 82.6351 25.8234 82.6351 25.8915C82.6351 26.9588 81.0612 27.7006 78.637 27.7006Z" fill="white"/>
<path d="M99.7031 20.3194C97.3364 20.3194 95.5831 21.3478 94.6955 22.9541C94.6932 22.9582 94.689 22.9607 94.6843 22.9607C94.6782 22.9607 94.673 22.9563 94.6718 22.9503L94.3203 21.0609C94.2735 20.8094 94.054 20.627 93.7982 20.627H91.0258C90.7325 20.627 90.4947 20.8647 90.4947 21.1581V29.4309C90.4947 29.7242 90.7325 29.962 91.0258 29.962H94.2874C94.5807 29.962 94.8185 29.7242 94.8185 29.4309V25.5839C94.8185 23.811 95.904 22.7617 97.7131 22.7617C99.287 22.7617 100.173 23.6301 100.173 25.0955V29.4309C100.173 29.7242 100.411 29.962 100.705 29.962H103.968C104.261 29.962 104.498 29.7253 104.499 29.4327L104.515 24.6613C104.533 21.9838 102.652 20.3194 99.7031 20.3194Z" fill="white"/>
<path d="M110.136 30.2514C112.756 30.2514 114.87 29.3133 115.741 27.8333C115.743 27.8295 115.747 27.8272 115.752 27.8272C115.758 27.8272 115.763 27.8319 115.764 27.8382L115.781 27.99C115.98 29.4011 117.318 30.2514 119.381 30.2514C120.627 30.2514 121.739 29.9966 122.44 29.5678C122.633 29.4496 122.69 29.2058 122.607 28.9954L122.242 28.0757C122.113 27.7501 121.7 27.6349 121.362 27.7266C121.209 27.768 121.052 27.791 120.901 27.791C120.358 27.791 120.032 27.5016 120.032 27.0131V23.9376C120.032 21.6582 117.337 20.3194 113.176 20.3194C110.43 20.3194 107.7 21.0095 105.862 22.0976C105.633 22.2332 105.557 22.5238 105.675 22.7624L106.311 24.0439C106.451 24.3258 106.803 24.4243 107.079 24.2723C108.836 23.3033 111.118 22.6893 113.176 22.6893C114.75 22.6893 115.763 23.0331 115.763 23.5215C115.763 23.7024 115.527 23.8472 115.148 23.8834L111.565 24.209C107.658 24.5708 105.433 25.8553 105.433 27.7006C105.433 29.3288 107.169 30.2514 110.136 30.2514ZM111.692 27.7006C110.444 27.7006 109.774 27.4473 109.774 26.9769C109.774 26.5066 110.48 26.2171 111.855 26.1086L115.564 25.7761C115.632 25.7701 115.69 25.8234 115.69 25.8915C115.69 26.9588 114.116 27.7006 111.692 27.7006Z" fill="white"/>
<path d="M125.612 30.1429C127.005 30.1429 128 29.3107 128 28.1167C128 26.9227 127.005 26.0905 125.612 26.0905C124.237 26.0905 123.242 26.9227 123.242 28.1167C123.242 29.3107 124.237 30.1429 125.612 30.1429Z" fill="white"/>
<path d="M0 5.3112C0 2.37791 2.37791 0 5.3112 0H42.5549C45.4882 0 47.8661 2.37791 47.8661 5.3112V42.5549C47.8661 45.4882 45.4882 47.8661 42.5549 47.8661H5.3112C2.37791 47.8661 0 45.4882 0 42.5549V5.3112Z" fill="white"/>
<path d="M13.1324 19.0112C13.1324 18.8645 13.252 18.7461 13.3985 18.7414C17.7569 18.6037 21.2655 15.0952 21.4032 10.7368C21.4078 10.5902 21.5263 10.4707 21.6729 10.4707H34.4731C34.6198 10.4707 34.7387 10.5896 34.7387 10.7363V26.0231C34.7387 26.1698 34.6198 26.2887 34.4731 26.2887H27.1682C27.0215 26.2887 26.9026 26.1698 26.9026 26.0231V19.7849C26.9026 19.5165 26.5396 19.4113 26.3868 19.6319C23.5258 23.7632 18.7832 26.4923 13.3985 26.5795C13.2519 26.5819 13.1324 26.4627 13.1324 26.3161V19.0112Z" fill="#221542"/>
<path d="M34.7387 29.8501C34.7387 29.7035 34.6198 29.5846 34.4731 29.5846H13.398C13.2513 29.5846 13.1324 29.7035 13.1324 29.8501V37.155C13.1324 37.3017 13.2513 37.4206 13.398 37.4206H34.4731C34.6198 37.4206 34.7387 37.3017 34.7387 37.155V29.8501Z" fill="#221542"/>
</svg>
