<svg width="33" height="32" viewBox="0 0 33 32" fill="none" xmlns="http://www.w3.org/2000/svg">
<path d="M20.7333 29.3334V27.9881C20.7388 27.6362 20.8824 27.3005 21.133 27.0534C21.3836 26.8062 21.7213 26.6674 22.0733 26.6667H22.1733C24.0826 26.6507 25.7226 25.3254 26.1119 23.4827L26.1253 23.4134L26.8186 20.0001L28.0719 19.3814C28.7453 19.0507 29.0799 18.8841 29.1519 18.5814C29.2253 18.2774 28.9999 17.9814 28.5506 17.3881L26.0066 14.0441C25.7533 13.7107 25.6266 13.5454 25.5599 13.3694C25.4933 13.1934 25.4706 12.9427 25.4293 12.4454C24.9706 6.96941 20.3199 2.66675 14.6493 2.66675C8.67592 2.66675 3.83325 7.44275 3.83325 13.3334C3.83325 17.0001 5.70925 20.2334 8.56659 22.1534M8.56659 22.1534V29.3334M8.56659 22.1534C9.40084 22.7175 10.3108 23.1605 11.2693 23.4694" stroke="#014751" stroke-width="1.5" stroke-linecap="round" stroke-linejoin="round"/>
<path d="M19.1666 12.0001L20.3933 13.0574C20.9093 13.5014 21.1666 13.7241 21.1666 14.0001C21.1666 14.2761 20.9093 14.4987 20.3933 14.9427L19.1666 16.0001M9.83325 12.0001L8.60659 13.0574C8.09059 13.5014 7.83325 13.7241 7.83325 14.0001C7.83325 14.2761 8.09059 14.4987 8.60659 14.9427L9.83325 16.0001M15.8333 10.6667L13.1666 17.3334" stroke="#014751" stroke-width="1.5" stroke-linecap="round" stroke-linejoin="round"/>
</svg>
