<svg width="33" height="32" viewBox="0 0 33 32" fill="none" xmlns="http://www.w3.org/2000/svg">
<path d="M9.83325 24V22.6667C9.83325 20.8986 10.5356 19.2029 11.7859 17.9526C13.0361 16.7024 14.7318 16 16.4999 16M16.4999 16C18.268 16 19.9637 16.7024 21.214 17.9526C22.4642 19.2029 23.1666 20.8986 23.1666 22.6667V24M16.4999 16C17.5608 16 18.5782 15.5786 19.3283 14.8284C20.0785 14.0783 20.4999 13.0609 20.4999 12C20.4999 10.9391 20.0785 9.92172 19.3283 9.17157C18.5782 8.42143 17.5608 8 16.4999 8C15.4391 8 14.4216 8.42143 13.6715 9.17157C12.9213 9.92172 12.4999 10.9391 12.4999 12C12.4999 13.0609 12.9213 14.0783 13.6715 14.8284C14.4216 15.5786 15.4391 16 16.4999 16ZM1.83325 24V22.6667C1.83325 21.6058 2.25468 20.5884 3.00482 19.8382C3.75497 19.0881 4.77239 18.6667 5.83325 18.6667M5.83325 18.6667C6.5405 18.6667 7.21877 18.3857 7.71887 17.8856C8.21897 17.3855 8.49992 16.7072 8.49992 16C8.49992 15.2928 8.21897 14.6145 7.71887 14.1144C7.21877 13.6143 6.5405 13.3333 5.83325 13.3333C5.12601 13.3333 4.44773 13.6143 3.94763 14.1144C3.44754 14.6145 3.16659 15.2928 3.16659 16C3.16659 16.7072 3.44754 17.3855 3.94763 17.8856C4.44773 18.3857 5.12601 18.6667 5.83325 18.6667ZM31.1666 24V22.6667C31.1666 21.6058 30.7452 20.5884 29.995 19.8382C29.2449 19.0881 28.2275 18.6667 27.1666 18.6667M27.1666 18.6667C27.8738 18.6667 28.5521 18.3857 29.0522 17.8856C29.5523 17.3855 29.8333 16.7072 29.8333 16C29.8333 15.2928 29.5523 14.6145 29.0522 14.1144C28.5521 13.6143 27.8738 13.3333 27.1666 13.3333C26.4593 13.3333 25.7811 13.6143 25.281 14.1144C24.7809 14.6145 24.4999 15.2928 24.4999 16C24.4999 16.7072 24.7809 17.3855 25.281 17.8856C25.7811 18.3857 26.4593 18.6667 27.1666 18.6667Z" stroke="#014751" stroke-width="1.5" stroke-linecap="round" stroke-linejoin="round"/>
</svg>
