<svg width="109" height="109" viewBox="0 0 109 109" fill="none" xmlns="http://www.w3.org/2000/svg">
<path d="M54.5 47.6875H60.1998C64.5768 47.6875 68.125 51.2358 68.125 55.6127V55.6355M54.5 47.6875H48.8229C44.4334 47.6875 40.875 51.2459 40.875 55.6355C40.875 60.025 44.4334 63.5834 48.8229 63.5834H54.5M54.5 47.6875V43.1459M54.5 47.6875V63.5834M54.5 63.5834V79.4792M54.5 63.5834H60.1771C64.5666 63.5834 68.125 67.1418 68.125 71.5313C68.125 75.9208 64.5666 79.4792 60.1771 79.4792H54.5M54.5 79.4792H48.8229C44.4334 79.4792 40.875 75.9208 40.875 71.5313M54.5 79.4792V84.0209" stroke="#FC5B31" stroke-width="2" stroke-linecap="round" stroke-linejoin="round"/>
<path d="M54.5 27.25C35.6878 27.25 20.4375 50.092 20.4375 72.6667C20.4375 85.2081 28.9099 95.375 39.3611 95.375H69.6389C80.0901 95.375 88.5625 85.2081 88.5625 72.6667C88.5625 50.092 73.3122 27.25 54.5 27.25ZM54.5 27.25C63.1732 27.25 67.7056 23.1092 68.0972 14.8277C68.1202 14.3425 68.1316 14.0998 68.0054 13.9153C67.9659 13.8575 67.9129 13.802 67.8571 13.7598C67.6788 13.625 67.4275 13.625 66.925 13.625L42.075 13.625C41.5725 13.625 41.3212 13.625 41.1429 13.7598C41.0871 13.802 41.0341 13.8575 40.9946 13.9153C40.8684 14.0998 40.8798 14.3425 40.9028 14.8277C41.2944 23.1092 45.8268 27.25 54.5 27.25Z" stroke="#FC5B31" stroke-width="2" stroke-linecap="round" stroke-linejoin="round"/>
</svg>
