<svg width="107" height="108" viewBox="0 0 107 108" fill="none" xmlns="http://www.w3.org/2000/svg">
<mask id="mask0_8099_738" style="mask-type:luminance" maskUnits="userSpaceOnUse" x="0" y="0" width="107" height="108">
<path d="M107 107.5H1.52588e-05V0.5H107V107.5Z" fill="white"/>
</mask>
<g mask="url(#mask0_8099_738)">
<path d="M3.13478 54C3.13478 26.184 25.684 3.63477 53.5 3.63477C81.316 3.63477 103.865 26.184 103.865 54C103.865 81.816 81.316 104.365 53.5 104.365C25.684 104.365 3.13478 81.816 3.13478 54Z" stroke="#FC5B31" stroke-width="2" stroke-miterlimit="10"/>
<path d="M53.5 16.1738C74.3575 16.1738 91.3262 33.1425 91.3262 54C91.3262 74.8575 74.3575 91.8262 53.5 91.8262C32.6425 91.8262 15.6738 74.8575 15.6738 54C15.6738 33.1425 32.6425 16.1738 53.5 16.1738Z" stroke="#FC5B31" stroke-width="2" stroke-miterlimit="10"/>
<path d="M63.46 45.5959C63.46 40.9545 59.6974 37.1918 55.0559 37.1918H51.9441C47.3028 37.1918 43.5402 40.9545 43.5402 45.5959C43.5402 50.2372 47.3028 54 51.9441 54H55.0559C59.6974 54 63.46 57.7625 63.46 62.4041C63.46 67.0454 59.6974 70.8082 55.0559 70.8082H51.9441C47.3028 70.8082 43.5402 67.0454 43.5402 62.4041" stroke="#FC5B31" stroke-width="2" stroke-miterlimit="10"/>
<path d="M53.5 80.2199V70.8081" stroke="#FC5B31" stroke-width="2" stroke-miterlimit="10"/>
<path d="M53.5 37.1917V27.7799" stroke="#FC5B31" stroke-width="2" stroke-miterlimit="10"/>
</g>
</svg>
