<svg width="136" height="136" viewBox="0 0 136 136" fill="none" xmlns="http://www.w3.org/2000/svg">
<path d="M27.457 50.9293C27.457 39.152 37.0185 29.5908 48.7955 29.5908H53.0633" stroke="#D3FFB4" stroke-width="2" stroke-miterlimit="10" stroke-linecap="round" stroke-linejoin="round"/>
<path d="M106.409 82.937C106.409 94.7143 96.848 104.275 85.071 104.275H80.8032" stroke="#D3FFB4" stroke-width="2" stroke-miterlimit="10" stroke-linecap="round" stroke-linejoin="round"/>
<path d="M102.142 63.7325C118.641 63.7325 132.016 50.3574 132.016 33.8584C132.016 17.3594 118.641 3.98438 102.142 3.98438C85.6426 3.98438 72.2676 17.3594 72.2676 33.8584C72.2676 50.3574 85.6426 63.7325 102.142 63.7325Z" stroke="#D3FFB4" stroke-width="2" stroke-miterlimit="10" stroke-linecap="round" stroke-linejoin="round"/>
<path d="M112.1 33.8585L102.142 18.9214L92.1836 33.8585L102.142 48.7954L112.1 33.8585Z" stroke="#D3FFB4" stroke-width="2" stroke-miterlimit="10" stroke-linecap="round" stroke-linejoin="round"/>
<path d="M46.6616 21.0552L55.1969 29.5905L46.6616 38.1258" stroke="#D3FFB4" stroke-width="2" stroke-miterlimit="10" stroke-linecap="round" stroke-linejoin="round"/>
<path d="M87.2048 112.811L78.6694 104.276L87.2048 95.7402" stroke="#D3FFB4" stroke-width="2" stroke-miterlimit="10" stroke-linecap="round" stroke-linejoin="round"/>
<path d="M41.6826 99.984L31.7246 85.0469L21.7666 99.984L31.7246 114.921L41.6826 99.984Z" stroke="#D3FFB4" stroke-width="2" stroke-miterlimit="10" stroke-linecap="round" stroke-linejoin="round"/>
<path d="M31.7244 67.9526L59.4647 83.9682V116L31.7244 132.016L3.98438 116V83.9682L31.7244 67.9526Z" stroke="#D3FFB4" stroke-width="2" stroke-miterlimit="10" stroke-linecap="round" stroke-linejoin="round"/>
</svg>
