<svg width="137" height="137" viewBox="0 0 137 137" fill="none" xmlns="http://www.w3.org/2000/svg">
<mask id="mask0_8099_664" style="mask-type:luminance" maskUnits="userSpaceOnUse" x="0" y="0" width="137" height="137">
<path d="M137 137H1.52588e-05V0H137V137Z" fill="white"/>
</mask>
<g mask="url(#mask0_8099_664)">
<path d="M4.01369 68.5C4.01369 32.8851 32.8851 4.01367 68.5 4.01367C104.115 4.01367 132.986 32.8851 132.986 68.5C132.986 104.115 104.115 132.986 68.5 132.986C32.8851 132.986 4.01369 104.115 4.01369 68.5Z" stroke="#D3FFB4" stroke-width="2" stroke-miterlimit="10"/>
<path d="M68.5 20.0684C95.2054 20.0684 116.932 41.7946 116.932 68.5C116.932 95.2054 95.2054 116.932 68.5 116.932C41.7946 116.932 20.0684 95.2054 20.0684 68.5C20.0684 41.7946 41.7946 20.0684 68.5 20.0684Z" stroke="#D3FFB4" stroke-width="2" stroke-miterlimit="10"/>
<path d="M81.2524 57.7394C81.2524 51.7967 76.435 46.979 70.4921 46.979H66.5078C60.5652 46.979 55.7477 51.7967 55.7477 57.7394C55.7477 63.682 60.5652 68.4998 66.5078 68.4998H70.4921C76.435 68.4998 81.2524 73.3173 81.2524 79.2602C81.2524 85.2028 76.435 90.0206 70.4921 90.0206H66.5078C60.5652 90.0206 55.7477 85.2028 55.7477 79.2602" stroke="#D3FFB4" stroke-width="2" stroke-miterlimit="10"/>
<path d="M68.5 102.071V90.0205" stroke="#D3FFB4" stroke-width="2" stroke-miterlimit="10"/>
<path d="M68.5 46.9794V34.9287" stroke="#D3FFB4" stroke-width="2" stroke-miterlimit="10"/>
</g>
</svg>
