<svg width="95" height="95" viewBox="0 0 95 95" fill="none" xmlns="http://www.w3.org/2000/svg">
<path d="M37.7083 49.4583L42.6951 56.1073C43.0574 56.5904 43.2385 56.8319 43.4806 56.8849C43.558 56.9019 43.6379 56.9049 43.7164 56.8938C43.9618 56.8592 44.1606 56.6319 44.5582 56.1775L57.2917 41.625M47.5 84.7083C67.7539 84.7083 79.3519 59.1251 82.2938 35.4487C82.5224 33.6091 82.6367 32.6892 82.3186 31.7957C82.2184 31.5142 82.0699 31.2133 81.9075 30.9625C81.3919 30.1665 80.5478 29.6715 78.8595 28.6815L51.1422 12.4275C49.5675 11.5041 48.7802 11.0424 47.9235 10.9512C47.642 10.9212 47.358 10.9212 47.0765 10.9512C46.2198 11.0424 45.4325 11.5041 43.8578 12.4275L16.1405 28.6815C14.4522 29.6715 13.6081 30.1665 13.0925 30.9625C12.9301 31.2133 12.7816 31.5142 12.6814 31.7957C12.3633 32.6892 12.4776 33.6091 12.7062 35.4487C15.6481 59.1251 27.2461 84.7083 47.5 84.7083Z" stroke="#FC5B31" stroke-width="2" stroke-linecap="round" stroke-linejoin="round"/>
</svg>
