<svg width="145" height="145" viewBox="0 0 145 145" fill="none" xmlns="http://www.w3.org/2000/svg">
<path d="M40 94L55.043 108.567C61.4162 114.94 70.0604 118.521 79.0736 118.521H111.318L108.607 125.322C106.898 129.611 112.293 133.164 115.558 129.899L141.632 103.824C143.291 102.165 143.291 99.4759 141.632 97.8169L130.476 86.6604L141.632 75.5042C143.291 73.8452 143.291 71.1556 141.632 69.4966L130.476 58.3401L141.632 47.1839C143.291 45.5249 143.291 42.8353 141.632 41.1763L115.557 15.1018C112.293 11.8373 106.898 15.3898 108.607 19.6783L111.318 26.48L84.5 26.48" stroke="#D3FFB4" stroke-width="2" stroke-miterlimit="10" stroke-linecap="round" stroke-linejoin="round"/>
<path d="M16.5 63H2V81.4082H21.0177C25.5243 81.4082 29.8462 83.1983 33.0328 86.3849L52 106" stroke="#D3FFB4" stroke-width="2" stroke-miterlimit="10" stroke-linecap="round" stroke-linejoin="round"/>
<path d="M84.9233 26.4795H79.0732C70.0599 26.4795 61.416 30.06 55.0425 36.4332L33.1569 58.3189C29.9703 61.5058 25.5066 63 21 63H17.3381H13.5" stroke="#D3FFB4" stroke-width="2" stroke-miterlimit="10" stroke-linecap="round" stroke-linejoin="round"/>
<path d="M118.531 62.3159L128.716 72.5005L118.531 82.685" stroke="#D3FFB4" stroke-width="2" stroke-miterlimit="10" stroke-linecap="round" stroke-linejoin="round"/>
<path d="M48.459 72.5H125.884" stroke="#D3FFB4" stroke-width="2" stroke-miterlimit="10" stroke-linecap="round" stroke-linejoin="round"/>
<path d="M116.255 97.9885H79.1511C67.6392 97.9885 56.5991 93.656 48.459 85.9438" stroke="#D3FFB4" stroke-width="2" stroke-miterlimit="10" stroke-linecap="round" stroke-linejoin="round"/>
<path d="M108.902 87.8042L119.087 97.9888L108.902 108.173" stroke="#D3FFB4" stroke-width="2" stroke-miterlimit="10" stroke-linecap="round" stroke-linejoin="round"/>
<path d="M116.255 47.0117H79.1511C67.6392 47.0117 56.5991 51.3442 48.459 59.0563" stroke="#D3FFB4" stroke-width="2" stroke-miterlimit="10" stroke-linecap="round" stroke-linejoin="round"/>
<path d="M108.902 57.1967L119.087 47.0122L108.902 36.8276" stroke="#D3FFB4" stroke-width="2" stroke-miterlimit="10" stroke-linecap="round" stroke-linejoin="round"/>
</svg>
