<svg width="138" height="138" viewBox="0 0 138 138" fill="none" xmlns="http://www.w3.org/2000/svg">
<path d="M97 101.038V131H18V21H75.4546V43H97V80.2957" stroke="#D3FFB4" stroke-width="2" stroke-miterlimit="10" stroke-linecap="round" stroke-linejoin="round"/>
<path d="M97 42L76 21V42H97Z" stroke="#D3FFB4" stroke-width="2" stroke-miterlimit="10" stroke-linecap="round" stroke-linejoin="round"/>
<path d="M32 72H83" stroke="#D3FFB4" stroke-width="2" stroke-miterlimit="10" stroke-linecap="round" stroke-linejoin="round"/>
<path d="M56 110.5C56 110.5 59.4287 107 62.8571 107C69.7142 107 62.8571 114 69.7142 114C76.5713 114 80 110.709 80 110.709" stroke="#D3FFB4" stroke-width="2" stroke-miterlimit="10" stroke-linecap="round" stroke-linejoin="round"/>
<path d="M32 59H49" stroke="#D3FFB4" stroke-width="2" stroke-miterlimit="10" stroke-linecap="round" stroke-linejoin="round"/>
<path d="M32 86H69" stroke="#D3FFB4" stroke-width="2" stroke-miterlimit="10" stroke-linecap="round" stroke-linejoin="round"/>
<path d="M117.551 62C117.551 62 98.4478 79.0609 87.5 90C82.7737 94.7279 80 103.313 80 110C86.6832 110 92.2737 105.728 97 101C107.929 90.0612 128 72.4436 128 72.4436V72.442C128 69.6725 126.892 67.0166 124.935 65.0586C122.979 63.1001 120.32 62 117.551 62Z" stroke="#D3FFB4" stroke-width="2" stroke-miterlimit="10" stroke-linecap="round" stroke-linejoin="round"/>
</svg>
