<?xml version="1.0" encoding="UTF-8" standalone="no"?>
<!DOCTYPE svg PUBLIC "-//W3C//DTD SVG 1.1//EN" "http://www.w3.org/Graphics/SVG/1.1/DTD/svg11.dtd">
<svg width="100%" height="100%" viewBox="0 0 1000 478" version="1.1" xmlns="http://www.w3.org/2000/svg" xmlns:xlink="http://www.w3.org/1999/xlink" xml:space="preserve" xmlns:serif="http://www.serif.com/" style="fill-rule:evenodd;clip-rule:evenodd;stroke-linejoin:round;stroke-miterlimit:2;">
    <g transform="matrix(1,0,0,1,0,-261)">
        <path d="M100.986,593.893C101.646,593.271 102.193,592.537 102.852,591.915C106.867,588.127 196.866,645.282 286.517,656.358C419.745,672.816 476.011,613.854 601.579,590.853C653.45,581.352 658.266,581.911 704.501,586.021C742.054,589.359 817.414,608.296 867.46,632.583C917.056,656.653 930.066,662.233 928.842,665.616C928.728,665.931 904.796,710.361 897.978,722.748C894.455,729.148 891.334,726.03 866.463,713.573C748.833,654.655 689.325,657.85 645.521,658.916C577.457,660.572 499.802,706.865 389.427,728.206C346.862,736.436 283.261,730.492 279.457,729.973C201.511,719.336 122.59,681.213 109.739,675.006C71.249,656.413 68.153,655.261 70.952,648.702C83.136,620.15 98.175,598.027 100.986,593.893ZM314.996,378.806C311.545,384.511 290.103,419.952 272.071,450.242C267.559,457.822 264.36,448.371 251.685,427.391C217.422,370.677 198.12,336.259 196.468,336.423C195.899,336.479 195.966,336.832 195.966,471.5C195.966,479.119 196.766,490.25 194.47,490.313C191.256,490.402 155.166,491.4 154.285,489.659C153.856,488.81 153.897,488.762 153.898,278.5C153.898,277.641 153.898,268.375 154.685,267.788C155.268,267.352 200.968,267.078 202.179,267.956C203.654,269.026 203.318,269.29 236.984,326.213C239.446,330.377 266.965,376.907 267.823,378.225C270.266,381.975 270.645,376.826 321.077,292.259C334.568,269.637 334.43,267.541 338.5,267.472C381.641,266.744 383.648,266.878 383.654,270.498C383.68,287.94 383.979,485.96 383.633,488.516C383.394,490.278 382.556,490.454 344.501,490.351C340.741,490.341 341.556,488.204 341.556,454.5C341.556,338.141 341.706,337.051 340.456,337.152C340.107,337.181 340.151,337.351 314.996,378.806ZM553.968,473.999C549.903,477.518 528.708,495.864 489.51,493.005C395.158,486.124 394.576,328.435 489.46,322.153C583.782,315.907 577.454,417.04 574.302,419.139C572.401,420.405 463.492,417.791 462.719,420.563C462.132,422.67 463.407,464.936 509.585,456.88C527.761,453.71 528.927,438.94 533.505,438.887C536.539,438.851 569.995,438.459 571.433,438.9C575.287,440.083 567.859,458.062 562.114,465.2C557.288,471.196 554.368,473.623 553.968,473.999L469.009,371.147C468.166,372.524 459.646,386.435 463.453,390.543C463.922,391.048 464.058,391.096 522.5,391.073C529.093,391.071 532.031,391.996 531.078,385.563C528.962,371.296 519.95,361.948 509.594,359.2C483.727,352.334 471.095,368.482 469.009,371.147L553.968,473.999ZM751.881,479.01C748.773,476.191 734.45,464.965 729.34,442.536C727.295,433.562 727.361,433.481 727.649,327.502C727.658,324.307 729.453,324.336 767.497,324.848C769.895,324.88 770.293,325.098 770.303,327.503C770.746,426.72 767.077,435.18 780.7,447.253C784.467,450.591 831.977,470.699 832.034,415.5C832.126,326.623 831.411,325.465 833.55,324.872C835.105,324.441 869.361,324.82 872.475,324.855C874.773,324.88 874.486,327.266 874.486,327.5C874.486,327.534 874.487,425.412 874.486,425.5C872.79,502.764 786.297,504.305 751.881,479.01ZM659.87,369.97C642.483,385.934 645.111,394.698 645.036,487.497C645.035,489.431 644.833,490.341 642.497,490.35C605.608,490.497 604.894,490.046 604.751,488.475C604.726,488.205 604.722,327.935 604.756,326.531C604.82,323.909 606.372,324.539 637.498,324.848C642.506,324.898 640.432,327.562 643.658,348.447C644.914,356.579 649.464,326.762 679.467,323.044C683.681,322.522 700.013,319.904 700.08,324.51C700.121,327.384 700.572,358.467 700.061,360.449C698.329,367.169 684.055,353.718 659.87,369.97Z" style="fill:white;stroke:white;stroke-width:1px;"/>
    </g>
</svg>
