<svg width="128" height="128" viewBox="0 0 128 128" fill="none" xmlns="http://www.w3.org/2000/svg">
<path d="M64 63.9998L32 63.9998M64 63.9998V42.6665M64 63.9998L96 63.9998M32 63.9998L32 85.3332M32 63.9998H16M96 63.9998L96 85.3332M96 63.9998L112 63.9998" stroke="#07335B" stroke-width="2" stroke-linecap="round" stroke-linejoin="round"/>
<path d="M46.2 106.667C46.9499 106.667 47.3249 106.667 47.5878 106.476C47.6727 106.414 47.7473 106.34 47.809 106.255C48 105.992 48 105.617 48 104.867V87.1335C48 86.3836 48 86.0086 47.809 85.7457C47.7473 85.6608 47.6727 85.5862 47.5878 85.5245C47.3249 85.3335 46.9499 85.3335 46.2 85.3335H17.8C17.0501 85.3335 16.6751 85.3335 16.4122 85.5245C16.3273 85.5862 16.2527 85.6608 16.191 85.7457C16 86.0086 16 86.3836 16 87.1335V104.867C16 105.617 16 105.992 16.191 106.255C16.2527 106.34 16.3273 106.414 16.4122 106.476C16.6751 106.667 17.0501 106.667 17.8 106.667H46.2Z" stroke="#07335B" stroke-width="2" stroke-linejoin="round"/>
<path d="M78.2 42.6668C78.9499 42.6668 79.3249 42.6668 79.5878 42.4758C79.6727 42.4142 79.7473 42.3395 79.809 42.2546C80 41.9917 80 41.6168 80 40.8668V23.1335C80 22.3835 80 22.0086 79.809 21.7457C79.7473 21.6608 79.6727 21.5862 79.5878 21.5245C79.3249 21.3335 78.9499 21.3335 78.2 21.3335H49.8C49.0501 21.3335 48.6751 21.3335 48.4122 21.5245C48.3273 21.5862 48.2527 21.6608 48.191 21.7457C48 22.0086 48 22.3835 48 23.1335V40.8668C48 41.6168 48 41.9917 48.191 42.2546C48.2527 42.3395 48.3273 42.4142 48.4122 42.4758C48.6751 42.6668 49.0501 42.6668 49.8 42.6668H78.2Z" stroke="#07335B" stroke-width="2" stroke-linejoin="round"/>
<path d="M110.2 106.667C110.95 106.667 111.325 106.667 111.588 106.476C111.673 106.414 111.747 106.34 111.809 106.255C112 105.992 112 105.617 112 104.867V87.1335C112 86.3836 112 86.0086 111.809 85.7457C111.747 85.6608 111.673 85.5862 111.588 85.5245C111.325 85.3335 110.95 85.3335 110.2 85.3335H81.8C81.0501 85.3335 80.6751 85.3335 80.4122 85.5245C80.3273 85.5862 80.2527 85.6608 80.191 85.7457C80 86.0086 80 86.3836 80 87.1335V104.867C80 105.617 80 105.992 80.191 106.255C80.2527 106.34 80.3273 106.414 80.4122 106.476C80.6751 106.667 81.0501 106.667 81.8 106.667H110.2Z" stroke="#07335B" stroke-width="2" stroke-linejoin="round"/>
</svg>
