<?xml version="1.0" encoding="UTF-8" standalone="no"?>
<!DOCTYPE svg PUBLIC "-//W3C//DTD SVG 1.1//EN" "http://www.w3.org/Graphics/SVG/1.1/DTD/svg11.dtd">
<svg width="100%" height="100%" viewBox="0 0 3352 1105" version="1.1" xmlns="http://www.w3.org/2000/svg" xmlns:xlink="http://www.w3.org/1999/xlink" xml:space="preserve" xmlns:serif="http://www.serif.com/" style="fill-rule:evenodd;clip-rule:evenodd;stroke-linejoin:round;stroke-miterlimit:2;">
    <g transform="matrix(1,0,0,1,-78,-688)">
        <path d="M730.18,1522.211C548.893,1511.645 550.058,1528.357 404.095,1551.219C288.86,1569.268 286.593,1521.675 286.119,1511.734C285.744,1503.854 285.928,820.911 285.992,820.051C288.288,789.136 326.672,798.659 413.953,797.804C489.753,797.061 488.154,775.54 572.14,771.593C705.296,765.335 728.432,772.575 741.357,776.62C873.392,817.938 1245.233,820.587 1313.228,819.255C1373.234,818.079 1427.614,765.942 1427.624,839.784C1427.717,1522.319 1426.335,1522.317 1426.292,1522.527C1421.87,1544.192 1412.554,1566.216 1085.998,1559.546C906.742,1555.885 908.838,1537.55 730.18,1522.211ZM3394.689,978.465C3395.427,1000.137 3400.021,1432.607 3391.779,1463.158C3333.483,1679.239 3023.474,1663.489 3021.377,1403.061C3017.851,965.319 3023.74,952.829 3040.311,917.679C3114.211,760.927 3350.863,783.036 3391.252,957.616C3392.84,964.478 3393.101,971.603 3394.689,978.465ZM2507.169,1442.429C2505.002,1453.271 2505.766,1502.979 2453.844,1555.399C2348.245,1662.01 2140.12,1619.07 2134.644,1412.912C2130.763,1266.789 2134.039,1058.364 2134.524,1027.538C2135.057,993.634 2128.766,915.204 2204.821,852.364C2312.798,763.148 2502.507,824.472 2508.183,997.923C2508.66,1012.511 2508.572,1057.176 2508.572,1225.177C2508.572,1397.019 2508.803,1396.475 2507.169,1442.429ZM1718.413,1603.061C1675.019,1601.168 1666.356,1612.594 1660.038,1590.517C1658.509,1585.177 1658.693,1585.073 1658.692,869.424C1658.692,856.399 1653.041,823.211 1679.04,821.545C1681.855,821.364 1841.761,821.06 1856.676,821.831C2049.486,831.799 2031.121,983.289 2030.389,1106.593C2029.581,1242.684 1968.822,1228.453 1972.671,1274.865C1974.063,1291.643 2053.241,1585.024 2051.556,1590.486C2051.066,1592.076 2047.836,1602.547 2035.008,1603.086C1934.089,1607.324 1930.085,1598.503 1926.471,1590.545C1917.868,1571.594 1865.274,1326.371 1855.19,1315.512C1848.446,1308.25 1776.716,1292.471 1776.219,1333.831C1776.189,1336.384 1776.202,1568.048 1776.198,1571.038C1776.139,1611.164 1758.5,1600.837 1718.413,1603.061ZM2706.615,1603.061C2632.465,1603.062 2594.406,1610.587 2593.429,1581.374C2589.076,1451.354 2608.197,1454.06 2654.623,1332.886C2687.543,1246.964 2806.53,958.102 2805.572,948.455C2804.225,934.9 2791.972,938.172 2627.561,938.105C2580.461,938.086 2594.805,916.28 2593.333,869.424C2592.762,851.246 2585.331,821.839 2617.731,821.413C2642.183,821.092 2912.199,817.546 2923.413,822.359C2931.309,825.747 2943.448,830.956 2936.907,928.901C2934.342,967.322 2726.926,1459.102 2727.74,1472.149C2728.767,1488.614 2749.684,1484.591 2904.241,1484.706C2950.051,1484.74 2937.317,1505.297 2937.254,1551.284C2937.248,1555.256 2946.478,1602.273 2914.299,1603.005C2911.173,1603.077 2755.775,1603.061 2706.615,1603.061ZM2250.102,1254.823C2250.102,975.032 2244.467,965.546 2282.535,939.981C2317.647,916.402 2381.487,933.014 2384.432,997.619C2389.949,1118.637 2385.37,1379.809 2384.787,1413.038C2384.639,1421.476 2383.303,1497.734 2311.644,1489.057C2237.495,1480.078 2250.102,1410.69 2250.102,1254.823ZM3137.874,1393.173C3137.911,1009.7 3137.739,1009.909 3138.299,997.652C3141.956,917.516 3270.221,885.118 3272.099,1017.647C3272.547,1049.271 3275.413,1251.485 3271.994,1412.987C3270.199,1497.78 3197.131,1496.348 3171.937,1480.605C3130.079,1454.449 3138.476,1409.267 3137.874,1393.173ZM209.469,879.307C211.17,1793.708 209.006,1794.376 206.079,1798.09C201.864,1803.441 163.757,1825.908 163.406,1768.747C161.724,1494.518 168.004,840.275 158.964,809.565C143.345,756.506 123.636,745.696 168.005,712.801C191.121,695.662 271.438,725.589 233.493,778.642C205.451,817.847 209.919,872.776 209.469,879.307ZM1817.242,1191.624C1788.041,1188.932 1776.923,1194.923 1776.18,1165.927C1775.736,1148.601 1770.987,963.419 1779.209,949.298C1786.102,937.459 1877.711,927.83 1905,968.944C1913.766,982.149 1935.986,1146.309 1887.351,1177.126C1856.631,1196.591 1825.598,1191.21 1817.242,1191.624ZM927.894,1006.311C939.678,1007.789 1012.545,1016.932 1037.66,1106.27C1064.155,1200.517 972.445,1256.155 969.821,1214.339C969.424,1208.01 968.477,1192.922 958.874,1135.831C948.313,1073.047 867.828,1043.888 894.82,1014.731C904.468,1004.31 923.168,1006.583 927.894,1006.311ZM751.853,1068.42C753.037,1067.127 770.062,1041.161 800.524,1031.471C830.372,1021.976 840.554,1030.6 843.158,1032.805C863.869,1050.347 831.805,1059.258 816.238,1072.778C750.921,1129.506 837.107,1197.55 835.69,1215.631C829.831,1290.401 680.346,1194.726 751.853,1068.42ZM689.149,1256.994C606.488,1183.193 663.006,1111.358 681.149,1108.102C705.909,1103.658 704.019,1144.8 704.129,1145.491C723.841,1268.238 825.788,1261.463 799.524,1284.685C796.188,1287.635 723.695,1276.455 689.149,1256.994ZM878.909,1074.221C1001.679,1137.295 894.197,1226.42 840.618,1173.331C809.346,1142.344 798.257,1078.155 878.909,1074.221ZM889.759,1286.573C921.662,1276.8 921.465,1277.136 949.668,1259.275C968.978,1247.046 1030.047,1267.14 1072.875,1182.228C1073.816,1180.362 1100.042,1128.368 1098.076,1175.339C1095.823,1229.173 994.199,1346.939 886.907,1306.188C875.556,1301.877 878.212,1296.09 876.814,1294.466L889.759,1286.573ZM868.494,1265.974C849.593,1265.717 849.603,1266.289 848.081,1265.697C834.245,1260.317 848.144,1257.266 854.924,1243.76C860.979,1231.699 857.315,1230.874 863.038,1218.413C865.307,1213.472 895.106,1212.246 897.502,1211.729C920.354,1206.791 915.775,1196.755 938.117,1191.442C948.616,1188.945 946.222,1212.83 946.026,1214.793C941.962,1255.357 872.044,1265.09 868.494,1265.974ZM889.759,1286.573L876.814,1294.466C877.605,1290.693 870.695,1287.974 871.487,1284.201C871.789,1282.759 872.491,1284.332 889.759,1286.573Z" style="fill:white;"/>
    </g>
</svg>
