<?xml version="1.0" encoding="UTF-8"?>
<!DOCTYPE svg PUBLIC "-//W3C//DTD SVG 1.1//EN" "http://www.w3.org/Graphics/SVG/1.1/DTD/svg11.dtd">
<svg xmlns="http://www.w3.org/2000/svg" version="1.1" width="1280px" height="256px" style="shape-rendering:geometricPrecision; text-rendering:geometricPrecision; image-rendering:optimizeQuality; fill-rule:evenodd; clip-rule:evenodd" xmlns:xlink="http://www.w3.org/1999/xlink">
<g><path style="opacity:0.989" fill="#000000" d="M -0.5,121.5 C -0.5,114.167 -0.5,106.833 -0.5,99.5C 13.2158,46.9582 46.8825,15.4582 100.5,5C 146.423,-1.84118 184.756,11.8255 215.5,46C 209.627,51.7042 203.293,56.8709 196.5,61.5C 162.554,28.144 123.22,20.3107 78.5,38C 49.1792,51.83 31.1792,74.6633 24.5,106.5C 23.4916,122.67 29.1582,135.837 41.5,146C 46.0087,147.962 50.6753,148.962 55.5,149C 46.3516,116.111 55.3516,89.4442 82.5,69C 97.6091,59.6449 113.942,56.3115 131.5,59C 132.167,59.6667 132.833,60.3333 133.5,61C 131.941,68.3553 130.274,75.6887 128.5,83C 91.1048,83.673 74.4382,102.506 78.5,139.5C 81.7143,138.56 84.7143,137.06 87.5,135C 100.894,121.158 115.228,108.491 130.5,97C 149.522,83.661 170.522,78.661 193.5,82C 228.152,91.098 243.652,113.598 240,149.5C 232.826,188.011 212.326,217.178 178.5,237C 128.729,260.793 82.3958,255.459 39.5,221C 35.6667,217.167 31.8333,213.333 28,209.5C 27.3333,208.5 27.3333,207.5 28,206.5C 33.8367,201.587 39.8367,196.92 46,192.5C 53.9108,200.079 62.4108,206.912 71.5,213C 119.42,236.616 160.92,228.449 196,188.5C 207.445,174.256 213.945,157.923 215.5,139.5C 214.881,121.066 205.547,110.232 187.5,107C 174.726,105.355 162.726,107.688 151.5,114C 135.348,124.147 121.014,136.481 108.5,151C 96.8522,160.659 83.8522,167.993 69.5,173C 42.6709,178.511 22.1709,169.678 8,146.5C 4.37796,138.303 1.54463,129.97 -0.5,121.5 Z"/></g>
<g><path style="opacity:0.994" fill="#000000" d="M 1279.5,100.5 C 1279.5,129.5 1279.5,158.5 1279.5,187.5C 1269.92,187.818 1260.42,187.485 1251,186.5C 1250.95,158.132 1250.28,129.799 1249,101.5C 1244.81,91.9894 1237.48,87.3227 1227,87.5C 1214.49,87.6782 1206.15,93.6782 1202,105.5C 1200.71,132.459 1200.04,159.459 1200,186.5C 1190.91,187.65 1181.74,187.817 1172.5,187C 1171.34,131.904 1171.17,76.7372 1172,21.5C 1172.69,20.6433 1173.52,19.9767 1174.5,19.5C 1181.86,19.826 1189.03,19.826 1196,19.5C 1197.33,20.1667 1198.67,20.8333 1200,21.5C 1200.33,41.8333 1200.67,62.1667 1201,82.5C 1209.39,70.0563 1221.22,64.0563 1236.5,64.5C 1261.37,64.3936 1275.7,76.3936 1279.5,100.5 Z"/></g>
<g><path style="opacity:0.987" fill="#000000" d="M 336.5,64.5 C 350.96,63.6917 364.626,66.525 377.5,73C 388.159,80.3169 393.159,90.3169 392.5,103C 384.974,104.542 377.474,106.042 370,107.5C 369.075,106.953 368.242,106.287 367.5,105.5C 365.238,91.747 357.071,85.0803 343,85.5C 335.839,85.3845 329.672,87.7179 324.5,92.5C 321.068,100.359 323.402,105.859 331.5,109C 346.254,112.689 360.921,116.689 375.5,121C 396.558,131.827 402.391,148.327 393,170.5C 387.284,178.923 379.45,184.423 369.5,187C 351.657,191.597 333.99,190.931 316.5,185C 300.437,178.178 292.77,166.178 293.5,149C 301.392,147.93 309.225,146.763 317,145.5C 322.585,165.722 335.751,173.222 356.5,168C 365.974,165.866 370.141,160.033 369,150.5C 366.913,146.698 363.746,144.198 359.5,143C 345.275,139.756 331.275,135.756 317.5,131C 300.93,124.36 293.764,112.193 296,94.5C 298.435,83.0681 304.935,74.9015 315.5,70C 322.44,67.4526 329.44,65.6193 336.5,64.5 Z"/></g>
<g><path style="opacity:0.99" fill="#000000" d="M 465.5,64.5 C 501.581,63.7569 522.748,81.0903 529,116.5C 529.667,122.5 529.667,128.5 529,134.5C 499.907,135.495 470.74,135.829 441.5,135.5C 442.728,161.874 456.395,172.374 482.5,167C 488.628,165.207 493.295,161.54 496.5,156C 505.161,156.629 513.828,157.629 522.5,159C 523.554,160.388 523.72,161.888 523,163.5C 516.83,175.334 507.33,183.167 494.5,187C 472.378,193.325 451.712,190.325 432.5,178C 421.663,168.159 415.163,155.992 413,141.5C 409.472,120.801 413.472,101.801 425,84.5C 435.997,72.5843 449.497,65.9177 465.5,64.5 Z M 467.5,86.5 C 486.59,85.588 497.59,94.588 500.5,113.5C 480.833,113.5 461.167,113.5 441.5,113.5C 443.499,97.8375 452.166,88.8375 467.5,86.5 Z"/></g>
<g><path style="opacity:0.99" fill="#000000" d="M 598.5,64.5 C 639.15,65.1487 660.483,85.8154 662.5,126.5C 662.476,129.421 662.143,132.254 661.5,135C 632.021,135.008 602.688,135.675 573.5,137C 576.464,162.647 590.464,172.647 615.5,167C 621.227,165.138 625.893,161.805 629.5,157C 638.476,156.614 647.31,157.448 656,159.5C 653.716,168.504 648.549,175.671 640.5,181C 616.819,193.522 593.152,193.522 569.5,181C 551.917,167.659 543.583,149.825 544.5,127.5C 544.818,90.8762 562.818,69.8762 598.5,64.5 Z M 598.5,86.5 C 618.185,84.5317 629.851,93.1984 633.5,112.5C 613.845,113.5 594.178,113.833 574.5,113.5C 575.857,98.3802 583.857,89.3802 598.5,86.5 Z"/></g>
<g><path style="opacity:0.987" fill="#000000" d="M 846.5,64.5 C 861.858,63.671 875.858,67.5043 888.5,76C 897.245,83.8175 902.911,93.4842 905.5,105C 905.18,106.653 904.18,107.653 902.5,108C 894.893,109.769 887.226,110.769 879.5,111C 877.08,105.328 874.247,99.8276 871,94.5C 868.01,91.5095 864.51,89.3428 860.5,88C 850.992,86.3558 841.992,87.6891 833.5,92C 828.092,96.9813 824.926,103.148 824,110.5C 821.759,124.641 822.425,138.641 826,152.5C 828.973,160.136 834.473,164.969 842.5,167C 860.795,171.023 873.129,164.357 879.5,147C 888.157,146.596 896.657,147.429 905,149.5C 903.981,162.365 898.148,172.532 887.5,180C 864.064,193.55 840.397,193.884 816.5,181C 798.946,167.715 790.613,149.882 791.5,127.5C 792.025,90.7072 810.358,69.7072 846.5,64.5 Z"/></g>
<g><path style="opacity:0.988" fill="#000000" d="M 971.5,64.5 C 983.53,64.1874 995.197,66.0207 1006.5,70C 1017.79,75.7316 1024.29,84.8983 1026,97.5C 1026.33,118.833 1026.67,140.167 1027,161.5C 1027.47,162.931 1028.3,164.097 1029.5,165C 1032.43,165.218 1035.26,165.718 1038,166.5C 1038.67,173.167 1038.67,179.833 1038,186.5C 1028.41,188.162 1018.91,187.662 1009.5,185C 1004.42,181.01 1001.25,175.843 1000,169.5C 999.487,156.831 998.987,144.164 998.5,131.5C 985.273,133.223 972.273,136.056 959.5,140C 950.035,144.727 947.535,151.894 952,161.5C 956.226,166.278 961.559,168.611 968,168.5C 975.74,167.749 983.24,166.083 990.5,163.5C 991.242,168.208 992.242,172.875 993.5,177.5C 992.394,180.441 990.394,182.608 987.5,184C 969.7,192.649 952.033,192.316 934.5,183C 922.071,173.049 917.571,160.216 921,144.5C 923.434,135.783 928.601,129.283 936.5,125C 943.227,121.869 950.227,119.536 957.5,118C 971.144,115.304 984.811,112.804 998.5,110.5C 998.952,104.631 998.119,98.9648 996,93.5C 992.824,89.4384 988.657,87.2717 983.5,87C 975.505,85.7832 967.839,86.7832 960.5,90C 955.011,94.4263 952.178,100.26 952,107.5C 951.439,108.022 950.772,108.355 950,108.5C 941.604,107.327 933.27,105.993 925,104.5C 924.832,85.3472 933.999,73.1805 952.5,68C 958.884,66.3265 965.218,65.1598 971.5,64.5 Z"/></g>
<g><path style="opacity:0.987" fill="#000000" d="M 1089.5,64.5 C 1103.17,63.7015 1116.17,66.2015 1128.5,72C 1140.49,78.9884 1146.16,89.3218 1145.5,103C 1137.83,104.567 1130.17,106.067 1122.5,107.5C 1121.52,107.023 1120.69,106.357 1120,105.5C 1118.8,93.7989 1112.3,87.2989 1100.5,86C 1091.78,84.7052 1084.11,86.8719 1077.5,92.5C 1074.46,98.1554 1075.46,102.989 1080.5,107C 1097.15,111.997 1113.82,116.997 1130.5,122C 1147.44,131.042 1153.6,144.875 1149,163.5C 1144.26,175.899 1135.43,183.733 1122.5,187C 1104.64,191.747 1086.97,191.08 1069.5,185C 1053.42,178.143 1045.76,166.143 1046.5,149C 1054.35,147.773 1062.19,146.606 1070,145.5C 1070.67,146.167 1071.33,146.833 1072,147.5C 1073.18,158.346 1079.02,165.18 1089.5,168C 1099.74,170.459 1109.4,169.126 1118.5,164C 1124.39,156.827 1123.73,150.494 1116.5,145C 1099.3,140.294 1082.3,134.961 1065.5,129C 1051.83,121.493 1046.33,109.993 1049,94.5C 1051.01,83.8214 1056.85,75.9881 1066.5,71C 1073.98,67.746 1081.65,65.5794 1089.5,64.5 Z"/></g>
<g><path style="opacity:0.987" fill="#000000" d="M 670.5,67.5 C 680.083,67.1816 689.583,67.5149 699,68.5C 708.946,98.2792 718.28,128.279 727,158.5C 736.333,128.5 745.667,98.5 755,68.5C 764.773,67.1823 774.606,67.1823 784.5,68.5C 784.709,69.086 785.043,69.586 785.5,70C 771.173,108.99 756.84,147.99 742.5,187C 731.923,187.819 721.423,187.652 711,186.5C 696.872,147.916 683.039,109.249 669.5,70.5C 669.685,69.4163 670.018,68.4163 670.5,67.5 Z"/></g>
<g><path style="opacity:0.983" fill="#000000" d="M 158.5,147.5 C 159.873,147.343 161.207,147.51 162.5,148C 167.658,151.05 172.992,153.717 178.5,156C 179.687,157.019 180.687,158.186 181.5,159.5C 162.923,189.428 136.256,200.595 101.5,193C 95.8859,191.518 90.5526,189.351 85.5,186.5C 84.1667,185.167 84.1667,183.833 85.5,182.5C 92.9545,178.355 99.7878,173.355 106,167.5C 128.612,174.131 146.112,167.464 158.5,147.5 Z"/></g>
</svg>
