<svg width="128" height="128" viewBox="0 0 128 128" fill="none" xmlns="http://www.w3.org/2000/svg">
<path d="M64 114.667C92.0431 114.667 107.9 78.6498 111.571 45.9675C111.78 44.1041 111.885 43.1724 111.564 42.2906C111.462 42.0098 111.315 41.7181 111.152 41.4681C110.638 40.6829 109.795 40.1887 108.11 39.2002L67.6422 15.4693C66.0675 14.5459 65.2802 14.0842 64.4235 13.993C64.142 13.963 63.858 13.963 63.5765 13.993C62.7198 14.0842 61.9325 14.5459 60.3578 15.4693L19.8905 39.2002C18.2049 40.1887 17.3621 40.6829 16.8482 41.4681C16.6846 41.7181 16.5385 42.0098 16.4363 42.2906C16.1153 43.1724 16.22 44.1041 16.4293 45.9675C20.1 78.6498 35.9569 114.667 64 114.667Z" stroke="#D3FFB4" stroke-width="2" stroke-linecap="round" stroke-linejoin="round"/>
<path d="M74.3705 55.9998V47.4665C74.3705 45.4666 74.3705 44.4667 73.8612 43.7657C73.6968 43.5394 73.4977 43.3403 73.2713 43.1758C72.5703 42.6665 71.5704 42.6665 69.5705 42.6665H58.4298C56.4299 42.6665 55.43 42.6665 54.729 43.1758C54.5026 43.3403 54.3036 43.5394 54.1391 43.7657C53.6298 44.4667 53.6298 45.4666 53.6298 47.4665V55.9998M50.1335 85.3332H77.8668C79.8667 85.3332 80.8666 85.3332 81.5676 84.8239C81.794 84.6594 81.9931 84.4603 82.1575 84.2339C82.6668 83.533 82.6668 82.533 82.6668 80.5332V60.7998C82.6668 58.8 82.6668 57.8001 82.1575 57.0991C81.9931 56.8727 81.794 56.6736 81.5676 56.5091C80.8666 55.9998 79.8667 55.9998 77.8668 55.9998H50.1335C48.1336 55.9998 47.1337 55.9998 46.4327 56.5091C46.2063 56.6736 46.0073 56.8727 45.8428 57.0991C45.3335 57.8001 45.3335 58.8 45.3335 60.7998V80.5332C45.3335 82.533 45.3335 83.533 45.8428 84.2339C46.0073 84.4603 46.2063 84.6594 46.4327 84.8239C47.1337 85.3332 48.1336 85.3332 50.1335 85.3332Z" stroke="#D3FFB4" stroke-width="2" stroke-linecap="round" stroke-linejoin="round"/>
</svg>
