<?xml version="1.0" encoding="UTF-8" standalone="no"?>
<!DOCTYPE svg PUBLIC "-//W3C//DTD SVG 1.1//EN" "http://www.w3.org/Graphics/SVG/1.1/DTD/svg11.dtd">
<svg width="100%" height="100%" viewBox="0 0 6234 1563" version="1.1" xmlns="http://www.w3.org/2000/svg" xmlns:xlink="http://www.w3.org/1999/xlink" xml:space="preserve" xmlns:serif="http://www.serif.com/" style="fill-rule:evenodd;clip-rule:evenodd;stroke-linejoin:round;stroke-miterlimit:2;">
    <g transform="matrix(4.166667,0,0,4.166667,0,0)">
        <g>
            <path d="M218.191,0.952C243.079,0.952 267.23,5.835 289.971,15.465C302.119,20.607 313.721,27.07 324.494,34.693L322.191,35.869L292.621,50.951C270.043,38.399 244.326,31.767 218.194,31.767C217.799,31.767 217.4,31.768 217.003,31.771C196.911,31.922 177.346,35.93 158.853,43.684C140.366,51.436 123.786,62.581 109.572,76.81C80.557,105.861 64.579,144.482 64.579,185.559C64.579,192.247 65.017,199.006 65.882,205.648L66.159,207.773L68.066,206.8L323.562,76.464L376.462,49.481L436.382,18.915L436.382,53.499L374.656,84.987L344.389,100.428L75.066,237.816L73.858,238.498L60.085,245.525L46.111,252.655L46.079,252.602L44.825,253.242L0,276.107L0,241.522L15.151,233.791C27.874,227.304 35.401,213.889 34.326,199.617C33.979,194.963 33.803,190.233 33.803,185.559C33.803,160.641 38.679,136.462 48.295,113.695C57.586,91.713 70.879,71.972 87.806,55.022C104.735,38.074 124.453,24.765 146.415,15.465C169.156,5.835 193.305,0.952 218.191,0.952Z" style="fill:white;fill-rule:nonzero;"/>
            <path d="M436.385,99.706L436.385,134.293L421.223,142.025C408.492,148.518 400.965,161.937 402.048,176.211C402.405,180.934 402.586,185.706 402.586,190.393C402.586,215.312 397.709,239.489 388.09,262.253C378.804,284.234 365.51,303.976 348.579,320.93C331.645,337.881 311.926,351.19 289.971,360.487C267.225,370.117 243.076,375 218.194,375C193.313,375 169.164,370.117 146.418,360.487C134.223,355.325 122.577,348.83 111.768,341.165L142.397,325.543L143.62,324.918C166.232,337.525 192.003,344.185 218.203,344.185C218.562,344.185 218.925,344.184 219.285,344.181C239.393,344.042 258.975,340.039 277.487,332.284C295.993,324.53 312.589,313.379 326.814,299.139C355.828,270.092 371.806,231.471 371.806,190.393C371.806,183.689 371.364,176.886 370.492,170.171L370.216,168.046L368.308,169.019L112.554,299.485L59.653,326.468L0.003,356.898L0.003,322.317L61.46,290.962L91.723,275.525L436.385,99.706Z" style="fill:white;fill-rule:nonzero;"/>
            <path d="M744.93,127.8L711.119,127.8C702.581,99.112 674.576,89.549 649.646,89.549C630.521,89.549 597.051,98.088 597.051,125.75C597.051,147.608 614.469,158.536 637.351,163.659L666.038,170.149C703.948,178.345 749.37,192.689 749.37,242.551C749.37,291.047 704.289,316.661 655.11,316.661C596.709,316.661 559.826,284.9 553.336,235.379L587.489,235.379C593.978,269.531 617.884,287.29 655.792,287.29C692.335,287.29 713.51,269.873 713.51,245.625C713.51,219.669 691.312,208.74 660.233,201.91L629.495,195.421C595.685,187.907 561.533,169.124 561.533,127.8C561.533,80.67 611.054,60.178 651.011,60.178C695.409,60.178 735.367,79.987 744.93,127.8Z" style="fill:white;fill-rule:nonzero;"/>
            <path d="M826.208,82.378L826.208,128.483L861.044,128.483L861.044,153.414L826.208,153.414L826.208,262.36C826.208,281.485 827.576,286.266 845.334,286.266L861.044,286.266L861.044,312.222L838.503,312.222C803.327,312.222 795.13,304.366 795.13,266.116L795.13,153.414L766.101,153.414L766.101,128.483L795.13,128.483L795.13,82.378L826.208,82.378Z" style="fill:white;fill-rule:nonzero;"/>
            <path d="M1018.14,203.959C1017.46,178.003 997.993,152.048 965.207,152.048C937.544,152.048 912.613,167.074 909.88,203.959L1018.14,203.959ZM966.232,289.34C993.554,289.34 1008.58,277.045 1016.43,258.946L1048.54,258.946C1040,290.705 1010.97,316.661 966.232,316.661C908.173,316.661 876.07,274.995 876.07,220.694C876.07,162.635 915.003,125.409 965.207,125.409C1021.22,125.409 1055.03,172.539 1050.93,230.598L909.538,230.598C910.906,270.214 938.909,289.34 966.232,289.34Z" style="fill:white;fill-rule:nonzero;"/>
            <rect x="1080.3" y="64.619" width="31.08" height="247.603" style="fill:white;fill-rule:nonzero;"/>
            <rect x="1149.62" y="64.619" width="31.08" height="247.603" style="fill:white;fill-rule:nonzero;"/>
            <path d="M1243.88,263.042C1243.88,280.46 1257.2,292.072 1279.39,292.072C1308.42,292.072 1336.09,278.752 1336.09,235.379L1336.09,223.768C1279.74,229.573 1243.88,237.77 1243.88,263.042ZM1333.7,199.178L1333.7,194.738C1333.7,161.269 1314.91,149.998 1292.03,149.998C1266.42,149.998 1251.39,164.001 1250.02,186.541L1217.92,186.541C1220.99,146.925 1255.83,124.726 1291.69,124.726C1342.23,124.726 1365.12,148.974 1364.77,200.544L1364.43,242.893C1364.09,273.63 1365.8,294.804 1369.21,312.222L1337.79,312.222C1336.77,305.391 1335.75,297.878 1335.4,286.949C1324.13,305.733 1305.01,316.661 1272.56,316.661C1238.07,316.661 1209.38,297.536 1209.38,263.726C1209.38,220.352 1258.22,207.716 1333.7,199.178Z" style="fill:white;fill-rule:nonzero;"/>
            <path d="M1477.82,159.561C1449.13,159.561 1434.78,175.613 1434.78,215.912L1434.78,312.222L1403.7,312.222L1403.7,128.483L1434.1,128.483L1434.1,160.586C1443.32,139.753 1462.1,128.141 1486.01,127.458C1489.09,127.458 1491.82,127.458 1495.23,127.8L1495.23,160.927C1488.74,160.244 1482.94,159.561 1477.82,159.561Z" style="fill:white;fill-rule:nonzero;"/>
        </g>
    </g>
</svg>
