<svg width="748" height="400" viewBox="0 0 748 400" fill="none" xmlns="http://www.w3.org/2000/svg">
<path d="M366.94 100.323L110.607 122.75L110.608 122.767C104.801 123.427 99.7583 126.301 96.2359 130.46C92.481 126.662 88.2001 123.373 83.4743 120.702C73.2257 114.914 61.6051 112.392 49.8672 113.419L14.7064 116.495C2.18115 117.591 -7.10849 128.672 -6.01345 141.188L0.139664 211.519C1.2347 224.035 12.3074 233.334 24.8326 232.239L59.9934 229.162C71.7306 228.127 82.7367 223.625 91.8244 216.145C95.7157 212.944 99.139 209.284 102.04 205.26C106.323 209.181 112.116 211.42 118.332 211.045L118.358 211.043C118.554 211.044 118.758 211.026 118.961 211.008L374.665 188.619C386.713 187.565 396.132 178.478 398.086 167.094C398.431 165.121 398.555 163.078 398.409 160.996C398.408 160.791 398.39 160.579 398.371 160.367L395.192 124.03C393.937 109.682 381.288 99.0681 366.94 100.323Z" fill="#DEC9F4"/>
<path d="M116.938 188.902L113.082 144.825L128.173 143.504C135.895 142.829 141.654 144.268 145.459 147.83C149.265 151.392 151.472 156.654 152.082 163.624C152.692 170.595 151.432 176.16 148.303 180.329C145.173 184.497 139.752 186.915 132.03 187.59L116.939 188.911L116.938 188.902ZM124.355 181.88L130.909 181.307C134.226 181.016 136.904 180.247 138.935 179.009C140.975 177.77 142.394 175.952 143.21 173.563C144.026 171.175 144.264 168.096 143.935 164.328C143.605 160.56 142.835 157.57 141.617 155.359C140.398 153.148 138.678 151.614 136.462 150.739C134.238 149.873 131.476 149.579 128.159 149.87L121.604 150.443L124.353 181.862L124.355 181.88Z" fill="#014751"/>
<path d="M172.854 184.865C167.689 185.317 163.611 184.052 160.623 181.069C157.626 178.087 155.892 173.862 155.414 168.395C155.098 164.778 155.426 161.602 156.407 158.86C157.38 156.119 158.987 153.911 161.202 152.237C163.427 150.563 166.237 149.577 169.625 149.281C174.49 148.855 178.329 150.044 181.159 152.853C183.981 155.664 185.652 159.983 186.163 165.83L186.322 167.643L163.04 169.68C163.496 172.751 164.519 175.175 166.091 176.936C167.671 178.696 169.761 179.458 172.361 179.231C174.316 179.06 175.841 178.356 176.927 177.12C178.014 175.884 178.709 174.361 179.006 172.553L186.294 171.915C186.07 174.136 185.464 176.177 184.467 178.029C183.471 179.881 182.018 181.416 180.121 182.652C178.214 183.879 175.801 184.625 172.856 184.883L172.854 184.865ZM162.647 164.572L178.41 163.193C178.005 160.304 177.083 158.121 175.645 156.652C174.206 155.182 172.341 154.552 170.042 154.753C167.742 154.954 165.855 155.904 164.592 157.565C163.329 159.226 162.679 161.574 162.638 164.572L162.647 164.572Z" fill="#014751"/>
<path d="M193.063 182.242L189.206 138.156L218.033 135.634L218.592 142.02L197.628 143.854L198.622 155.212L214.889 153.789L215.413 159.786L199.146 161.209L200.926 181.554L193.063 182.242Z" fill="#014751"/>
<path d="M227.083 140.761C225.685 140.883 224.581 140.587 223.762 139.883C222.942 139.171 222.474 138.205 222.365 136.957C222.256 135.71 222.539 134.669 223.232 133.833C223.916 132.989 224.953 132.515 226.351 132.393C227.748 132.27 228.897 132.562 229.698 133.267C230.501 133.982 230.96 134.949 231.069 136.196C231.178 137.443 230.895 138.484 230.228 139.318C229.562 140.16 228.507 140.636 227.083 140.761ZM226.586 179.3L223.619 145.386L231.253 144.719L234.22 178.632L226.586 179.3Z" fill="#014751"/>
<path d="M241.899 177.969L238.931 144.055L245.875 143.448L246.32 148.534L247.674 148.415C248.2 146.587 249.154 145.059 250.544 143.833C251.935 142.615 253.939 141.887 256.53 141.66C260.414 141.32 263.366 142.265 265.407 144.502C267.438 146.731 268.636 149.826 268.982 153.78L270.876 175.425L263.251 176.092L261.481 155.862C261.25 153.226 260.595 151.242 259.543 149.908C258.473 148.585 256.925 148.007 254.891 148.185C252.405 148.403 250.562 149.544 249.352 151.602C248.141 153.66 247.671 156.126 247.921 158.992L249.523 177.302L241.899 177.969Z" fill="#014751"/>
<path d="M289.437 174.55C286.456 174.811 283.896 174.286 281.75 172.976C279.603 171.667 277.899 169.721 276.63 167.132C275.361 164.551 274.569 161.501 274.262 157.998C273.956 154.495 274.195 151.319 275.008 148.591C275.812 145.865 277.154 143.68 279.043 142.035C280.931 140.39 283.343 139.439 286.28 139.182C288.536 138.985 290.421 139.239 291.926 139.936C293.431 140.642 294.644 141.668 295.558 143.041L296.911 142.923L295.581 127.726L303.206 127.059L307.162 172.268L300.209 172.877L299.824 168.472L298.47 168.59C297.876 170.05 296.858 171.352 295.425 172.502C293.993 173.652 291.994 174.335 289.429 174.56L289.437 174.55ZM290.799 168.619C293.355 168.396 295.304 167.138 296.618 164.839C297.932 162.54 298.431 159.582 298.114 155.964C297.798 152.347 296.793 149.52 295.1 147.493C293.398 145.458 291.278 144.556 288.713 144.781C286.298 144.992 284.53 146.172 283.39 148.322C282.25 150.471 281.854 153.483 282.193 157.366C282.533 161.249 283.455 164.146 284.942 166.066C286.438 167.985 288.393 168.839 290.799 168.628L290.799 168.619Z" fill="#014751"/>
<path d="M328.553 171.243C323.387 171.695 319.31 170.43 316.321 167.447C313.324 164.465 311.591 160.24 311.112 154.773C310.796 151.155 311.124 147.98 312.105 145.238C313.078 142.497 314.685 140.289 316.901 138.615C319.125 136.941 321.936 135.955 325.323 135.659C330.188 135.233 334.027 136.422 336.858 139.231C339.679 142.042 341.35 146.361 341.861 152.208L342.02 154.021L318.739 156.058C319.195 159.129 320.218 161.553 321.798 163.313C323.369 165.074 325.468 165.835 328.068 165.608C330.023 165.437 331.548 164.733 332.634 163.497C333.73 162.26 334.416 160.738 334.713 158.93L342.001 158.292C341.777 160.513 341.171 162.554 340.174 164.406C339.178 166.258 337.725 167.793 335.828 169.029C333.921 170.257 331.5 171.003 328.563 171.26L328.553 171.243ZM318.345 150.95L334.108 149.571C333.704 146.682 332.782 144.499 331.343 143.029C329.904 141.56 328.04 140.93 325.74 141.131C323.44 141.332 321.553 142.282 320.29 143.943C319.027 145.604 318.377 147.952 318.336 150.95L318.345 150.95Z" fill="#014751"/>
<path d="M344.807 168.966L344.777 168.621L353.934 150.226L343.116 135.28L343.087 134.944L351.225 134.232L358.397 144.594L359.583 144.49L364.679 133.055L372.251 132.392L372.28 132.728L364.543 149.128L376.656 165.832L376.686 166.177L368.265 166.914L359.907 154.721L358.722 154.825L352.724 168.274L344.807 168.966Z" fill="#014751"/>
<path d="M82.4305 162.864L62.7051 164.59C50.1445 165.688 37.6516 161.754 28.0018 153.641L25.6355 151.655C25.2315 151.316 24.6001 151.639 24.6466 152.17L25.3105 159.759C25.3392 160.086 25.097 160.375 24.7697 160.404L18.5071 160.951C18.1799 160.98 17.8913 160.738 17.8626 160.411L16.0123 139.261C15.9837 138.934 16.2258 138.645 16.5531 138.617L37.7026 136.766C38.0299 136.738 38.3185 136.98 38.3471 137.307L38.8943 143.561C38.9229 143.888 38.6808 144.177 38.3535 144.205L30.7641 144.869C30.2333 144.916 30.0245 145.585 30.4292 145.933C40.0967 154.044 52.5719 157.98 65.1325 156.881L77.5692 155.793C78.0203 155.754 78.2777 155.232 78.0137 154.863C72.3547 146.926 62.7597 142.088 52.3663 142.997L46.9971 143.467C46.6698 143.496 46.3812 143.253 46.3526 142.926L45.8047 136.664C45.776 136.336 46.0182 136.048 46.3455 136.019L51.7147 135.549C66.6901 134.239 80.352 142.367 86.8135 154.993C86.8158 155.02 86.8351 155.036 86.8462 155.062C88.5799 158.475 86.2356 162.549 82.4232 162.882L82.4305 162.864Z" fill="#014751"/>
<path d="M83.476 174.815L63.7505 176.54C51.19 177.639 39.57 183.683 31.4758 193.349L29.4901 195.715C29.1511 196.119 28.4734 195.911 28.4269 195.38L27.7629 187.791C27.7343 187.464 27.4457 187.222 27.1184 187.25L20.8558 187.798C20.5285 187.827 20.2864 188.115 20.315 188.443L22.1654 209.592C22.194 209.919 22.4826 210.162 22.8099 210.133L43.9594 208.283C44.2867 208.254 44.5289 207.965 44.5002 207.638L43.9531 201.384C43.9245 201.057 43.6359 200.815 43.3086 200.844L35.7192 201.508C35.1884 201.554 34.8666 200.931 35.2048 200.519C43.3168 190.851 54.919 184.809 67.4796 183.71L79.9163 182.622C80.3675 182.583 80.7116 183.052 80.5156 183.461C76.3208 192.26 67.7117 198.691 57.3183 199.6L51.9491 200.07C51.6218 200.098 51.3797 200.387 51.4083 200.714L51.9554 206.968C51.9841 207.295 52.2726 207.537 52.5999 207.509L57.9691 207.039C72.9445 205.729 84.9875 195.352 89.1583 181.796C89.156 181.769 89.1722 181.75 89.1787 181.723C90.2933 178.06 87.2772 174.455 83.4648 174.789L83.4663 174.807L83.476 174.815Z" fill="#014751"/>
<path d="M466.997 357.727L216.765 297.781L216.761 297.799C211.044 296.584 205.35 297.713 200.691 300.541C198.333 295.749 195.315 291.273 191.679 287.243C183.792 278.506 173.569 272.432 162.111 269.687L127.787 261.464C115.56 258.535 103.238 266.102 100.311 278.32L83.8634 346.977C80.9363 359.195 88.4921 371.524 100.719 374.453L135.043 382.675C146.504 385.412 158.369 384.629 169.359 380.414C174.064 378.61 178.47 376.224 182.497 373.326C185.317 378.403 190.102 382.361 196.116 383.975L196.142 383.982C196.328 384.044 196.526 384.092 196.725 384.14L446.348 443.921C458.109 446.739 469.922 441.105 475.383 430.927C476.335 429.164 477.1 427.266 477.621 425.245C477.685 425.05 477.735 424.843 477.785 424.636L486.283 389.163C489.638 375.158 481.003 361.082 466.997 357.727Z" fill="#D3FBFF"/>
<path d="M201.811 362.532L212.118 319.504L226.85 323.033C234.388 324.839 239.394 328.029 241.875 332.613C244.356 337.197 244.783 342.887 243.153 349.692C241.523 356.496 238.564 361.375 234.275 364.338C229.986 367.3 224.078 367.875 216.54 366.07L201.809 362.541L201.811 362.532ZM211.07 358.222L217.468 359.755C220.706 360.53 223.49 360.649 225.809 360.118C228.136 359.589 230.057 358.315 231.588 356.307C233.119 354.3 234.321 351.456 235.202 347.778C236.083 344.099 236.3 341.02 235.845 338.537C235.39 336.054 234.244 334.054 232.42 332.521C230.585 330.995 228.058 329.842 224.82 329.066L218.422 327.533L211.074 358.204L211.07 358.222Z" fill="#014751"/>
<path d="M256.124 376.42C251.082 375.212 247.615 372.719 245.726 368.943C243.828 365.165 243.523 360.609 244.801 355.273C245.647 351.741 246.965 348.833 248.764 346.544C250.555 344.252 252.779 342.666 255.411 341.781C258.051 340.898 261.029 340.853 264.336 341.646C269.085 342.783 272.35 345.127 274.144 348.688C275.93 352.248 276.146 356.874 274.779 362.582L274.355 364.352L251.627 358.907C251.087 361.964 251.289 364.588 252.222 366.756C253.162 368.926 254.903 370.311 257.442 370.919C259.35 371.376 261.02 371.192 262.442 370.364C263.863 369.536 265.006 368.312 265.86 366.69L272.975 368.395C272.058 370.431 270.837 372.174 269.305 373.615C267.773 375.056 265.909 376.052 263.718 376.623C261.52 377.183 258.996 377.126 256.12 376.437L256.124 376.42ZM252.873 353.937L268.26 357.624C268.792 354.756 268.609 352.393 267.71 350.544C266.811 348.694 265.242 347.505 262.997 346.968C260.752 346.43 258.662 346.733 256.938 347.908C255.213 349.084 253.853 351.104 252.864 353.935L252.873 353.937Z" fill="#014751"/>
<path d="M276.123 380.334L286.433 337.298L314.574 344.039L313.081 350.274L292.616 345.371L289.96 356.459L305.839 360.263L304.437 366.117L288.557 362.313L283.799 382.173L276.123 380.334Z" fill="#014751"/>
<path d="M321.533 351.769C320.169 351.443 319.215 350.812 318.661 349.885C318.109 348.95 317.972 347.885 318.263 346.667C318.555 345.45 319.154 344.552 320.076 343.979C320.992 343.395 322.126 343.274 323.49 343.601C324.855 343.928 325.852 344.568 326.388 345.491C326.923 346.423 327.052 347.485 326.76 348.703C326.469 349.92 325.87 350.818 324.973 351.397C324.075 351.986 322.924 352.102 321.533 351.769ZM308.852 388.166L316.783 355.06L324.235 356.845L316.304 389.951L308.852 388.166Z" fill="#014751"/>
<path d="M323.796 391.756L331.727 358.649L338.506 360.273L337.316 365.238L338.638 365.555C339.716 363.987 341.105 362.84 342.812 362.117C344.517 361.403 346.649 361.347 349.179 361.953C352.969 362.861 355.471 364.693 356.697 367.462C357.918 370.219 358.073 373.534 357.148 377.394L352.087 398.524L344.643 396.741L349.374 376.992C349.991 374.419 349.998 372.33 349.422 370.731C348.827 369.137 347.542 368.099 345.556 367.623C343.13 367.042 341.02 367.541 339.22 369.109C337.42 370.677 336.192 372.867 335.522 375.664L331.24 393.539L323.796 391.756Z" fill="#014751"/>
<path d="M369.969 403.574C367.059 402.877 364.797 401.568 363.176 399.646C361.555 397.723 360.556 395.338 360.172 392.48C359.787 389.63 360.001 386.486 360.82 383.066C361.64 379.647 362.873 376.71 364.508 374.381C366.135 372.05 368.1 370.402 370.412 369.441C372.724 368.479 375.314 368.341 378.181 369.028C380.382 369.556 382.09 370.394 383.296 371.532C384.501 372.679 385.326 374.036 385.757 375.628L387.079 375.944L390.632 361.109L398.076 362.892L387.503 407.026L380.716 405.4L381.746 401.1L380.425 400.783C379.399 401.98 378.021 402.891 376.298 403.529C374.575 404.166 372.462 404.18 369.958 403.58L369.969 403.574ZM373.139 398.38C375.635 398.978 377.882 398.403 379.857 396.639C381.831 394.875 383.242 392.227 384.088 388.695C384.934 385.164 384.876 382.164 383.913 379.705C382.943 377.236 381.218 375.709 378.714 375.109C376.357 374.544 374.306 375.103 372.543 376.781C370.781 378.459 369.451 381.19 368.543 384.98C367.635 388.771 367.592 391.81 368.394 394.103C369.205 396.397 370.789 397.826 373.137 398.389L373.139 398.38Z" fill="#014751"/>
<path d="M408.117 412.832C403.074 411.624 399.608 409.132 397.719 405.355C395.821 401.577 395.515 397.021 396.794 391.685C397.64 388.153 398.957 385.245 400.756 382.956C402.547 380.664 404.771 379.078 407.403 378.193C410.043 377.31 413.021 377.266 416.329 378.058C421.078 379.196 424.342 381.539 426.137 385.101C427.923 388.66 428.138 393.286 426.771 398.994L426.347 400.764L403.62 395.32C403.079 398.377 403.282 401 404.223 403.17C405.155 405.338 406.904 406.725 409.443 407.333C411.351 407.791 413.021 407.606 414.443 406.778C415.873 405.952 417.007 404.726 417.861 403.105L424.976 404.809C424.059 406.845 422.838 408.588 421.306 410.029C419.774 411.47 417.91 412.466 415.719 413.037C413.521 413.597 410.988 413.538 408.121 412.851L408.117 412.832ZM404.865 390.35L420.253 394.036C420.784 391.168 420.602 388.805 419.703 386.956C418.804 385.106 417.235 383.918 414.99 383.38C412.745 382.842 410.654 383.145 408.93 384.32C407.206 385.496 405.845 387.517 404.857 390.348L404.865 390.35Z" fill="#014751"/>
<path d="M424.255 415.821L424.336 415.484L438.851 400.937L433.325 383.334L433.404 383.006L441.348 384.909L444.868 397.01L446.025 397.287L454.482 388.055L461.873 389.826L461.795 390.154L449.26 403.258L455.456 422.939L455.376 423.276L447.155 421.307L443.091 407.094L441.934 406.817L431.984 417.672L424.255 415.821Z" fill="#014751"/>
<path d="M177.33 326.902L158.074 322.289C145.813 319.351 135.21 311.662 128.628 300.909L127.013 298.276C126.737 297.826 126.036 297.932 125.912 298.45L124.137 305.859C124.06 306.179 123.739 306.376 123.42 306.299L117.306 304.834C116.987 304.758 116.79 304.437 116.866 304.117L121.812 283.471C121.889 283.152 122.21 282.955 122.529 283.031L143.176 287.977C143.495 288.054 143.692 288.375 143.615 288.694L142.153 294.799C142.076 295.119 141.755 295.316 141.436 295.239L134.027 293.464C133.509 293.34 133.099 293.909 133.373 294.367C139.972 305.124 150.557 312.809 162.819 315.747L174.96 318.655C175.4 318.761 175.809 318.347 175.676 317.914C172.823 308.593 165.256 300.964 155.109 298.533L149.868 297.277C149.549 297.201 149.352 296.88 149.428 296.56L150.893 290.447C150.969 290.127 151.29 289.93 151.61 290.007L156.851 291.262C171.47 294.765 181.853 306.802 183.981 320.825C183.975 320.851 183.988 320.873 183.99 320.901C184.553 324.688 181.039 327.808 177.317 326.917L177.33 326.902Z" fill="#014751"/>
<path d="M174.535 338.568L155.279 333.955C143.018 331.017 130.082 333.068 119.342 339.671L116.709 341.287C116.259 341.562 115.682 341.15 115.806 340.632L117.581 333.223C117.658 332.904 117.461 332.583 117.141 332.506L111.028 331.042C110.708 330.965 110.387 331.162 110.311 331.482L105.365 352.128C105.288 352.447 105.485 352.768 105.805 352.845L126.451 357.791C126.77 357.867 127.091 357.67 127.168 357.351L128.63 351.246C128.707 350.926 128.51 350.605 128.191 350.529L120.782 348.754C120.264 348.63 120.156 347.937 120.607 347.653C131.364 341.054 144.283 338.999 156.545 341.936L168.685 344.845C169.126 344.95 169.304 345.504 168.988 345.83C162.222 352.847 152.018 356.219 141.872 353.788L136.631 352.533C136.311 352.456 135.99 352.653 135.914 352.973L134.451 359.077C134.375 359.397 134.572 359.718 134.891 359.795L140.133 361.05C154.752 364.552 169.462 358.526 177.713 346.989C177.719 346.963 177.741 346.95 177.756 346.926C179.973 343.806 178.255 339.431 174.533 338.54L174.529 338.557L174.535 338.568Z" fill="#014751"/>
<path d="M713.166 191.918L456.833 214.344L456.834 214.361C451.027 215.021 445.984 217.896 442.462 222.054C438.707 218.256 434.426 214.967 429.7 212.297C419.452 206.508 407.831 203.987 396.093 205.013L360.932 208.09C348.407 209.185 339.117 220.266 340.213 232.783L346.366 303.113C347.461 315.629 358.533 324.929 371.059 323.833L406.219 320.757C417.957 319.721 428.963 315.219 438.05 307.739C441.942 304.538 445.365 300.878 448.266 296.854C452.549 300.775 458.342 303.014 464.558 302.639L464.584 302.637C464.78 302.638 464.984 302.62 465.187 302.602L720.891 280.213C732.939 279.159 742.358 270.072 744.312 258.689C744.657 256.716 744.781 254.672 744.635 252.591C744.634 252.386 744.616 252.173 744.597 251.961L741.418 215.624C740.163 201.276 727.513 190.662 713.166 191.918Z" fill="#D3FFB4"/>
<path d="M463.164 280.496L459.308 236.418L474.399 235.098C482.121 234.423 487.88 235.862 491.685 239.424C495.491 242.986 497.698 248.248 498.308 255.218C498.918 262.188 497.658 267.753 494.529 271.922C491.399 276.091 485.978 278.509 478.256 279.184L463.165 280.504L463.164 280.496ZM470.581 273.474L477.135 272.9C480.452 272.61 483.13 271.841 485.161 270.603C487.201 269.364 488.619 267.546 489.435 265.157C490.252 262.768 490.49 259.69 490.161 255.922C489.831 252.154 489.061 249.164 487.843 246.953C486.624 244.742 484.904 243.208 482.688 242.332C480.464 241.466 477.702 241.173 474.385 241.463L467.83 242.037L470.579 273.456L470.581 273.474Z" fill="#014751"/>
<path d="M519.08 276.46C513.915 276.911 509.838 275.646 506.849 272.663C503.852 269.681 502.119 265.456 501.64 259.99C501.324 256.372 501.652 253.197 502.633 250.455C503.606 247.714 505.213 245.505 507.428 243.832C509.653 242.157 512.463 241.172 515.851 240.875C520.716 240.45 524.555 241.638 527.386 244.448C530.207 247.258 531.878 251.577 532.389 257.424L532.548 259.238L509.266 261.274C509.722 264.345 510.745 266.769 512.317 268.53C513.897 270.291 515.987 271.052 518.587 270.825C520.542 270.654 522.067 269.95 523.153 268.714C524.24 267.478 524.935 265.956 525.232 264.147L532.52 263.509C532.296 265.731 531.69 267.771 530.693 269.623C529.697 271.475 528.244 273.011 526.347 274.246C524.44 275.474 522.027 276.219 519.082 276.477L519.08 276.46ZM508.873 256.166L524.636 254.787C524.231 251.899 523.31 249.715 521.871 248.246C520.432 246.776 518.567 246.146 516.268 246.347C513.968 246.548 512.081 247.498 510.818 249.159C509.555 250.821 508.905 253.168 508.864 256.167L508.873 256.166Z" fill="#014751"/>
<path d="M539.289 273.836L535.432 229.75L564.259 227.228L564.818 233.614L543.854 235.448L544.848 246.806L561.114 245.383L561.639 251.38L545.372 252.803L547.152 273.148L539.289 273.836Z" fill="#014751"/>
<path d="M573.309 232.354C571.911 232.477 570.807 232.181 569.988 231.477C569.168 230.765 568.7 229.798 568.591 228.551C568.482 227.304 568.765 226.263 569.458 225.427C570.142 224.583 571.179 224.109 572.577 223.986C573.974 223.864 575.123 224.156 575.924 224.861C576.727 225.575 577.186 226.542 577.295 227.79C577.404 229.037 577.121 230.078 576.454 230.911C575.788 231.754 574.733 232.23 573.309 232.354ZM572.812 270.894L569.845 236.98L577.479 236.312L580.446 270.226L572.812 270.894Z" fill="#014751"/>
<path d="M588.124 269.564L585.157 235.65L592.101 235.042L592.546 240.129L593.899 240.01C594.426 238.182 595.38 236.654 596.77 235.427C598.16 234.209 600.165 233.481 602.756 233.255C606.64 232.915 609.592 233.86 611.633 236.097C613.664 238.326 614.862 241.421 615.208 245.375L617.102 267.019L609.477 267.687L607.707 247.457C607.476 244.821 606.821 242.837 605.769 241.503C604.699 240.179 603.151 239.602 601.117 239.78C598.631 239.997 596.788 241.139 595.578 243.197C594.367 245.255 593.897 247.72 594.147 250.586L595.749 268.896L588.124 269.564Z" fill="#014751"/>
<path d="M635.663 266.144C632.682 266.405 630.122 265.88 627.976 264.571C625.829 263.261 624.125 261.315 622.856 258.726C621.587 256.145 620.795 253.095 620.488 249.592C620.182 246.089 620.421 242.913 621.234 240.186C622.038 237.459 623.38 235.274 625.269 233.629C627.157 231.984 629.569 231.033 632.506 230.777C634.762 230.579 636.647 230.833 638.152 231.53C639.657 232.237 640.87 233.262 641.784 234.635L643.137 234.517L641.807 219.32L649.432 218.653L653.387 263.863L646.435 264.471L646.05 260.066L644.696 260.184C644.102 261.644 643.084 262.946 641.651 264.096C640.219 265.246 638.22 265.929 635.655 266.154L635.663 266.144ZM637.024 260.214C639.581 259.99 641.53 258.732 642.844 256.433C644.158 254.135 644.657 251.176 644.34 247.559C644.024 243.941 643.019 241.114 641.326 239.087C639.624 237.053 637.504 236.151 634.939 236.375C632.524 236.586 630.756 237.766 629.616 239.916C628.476 242.066 628.079 245.077 628.419 248.96C628.759 252.844 629.681 255.74 631.168 257.66C632.664 259.579 634.619 260.433 637.025 260.222L637.024 260.214Z" fill="#014751"/>
<path d="M674.778 262.838C669.612 263.29 665.535 262.024 662.547 259.041C659.55 256.059 657.816 251.835 657.338 246.368C657.022 242.75 657.35 239.575 658.331 236.833C659.304 234.092 660.911 231.883 663.126 230.21C665.351 228.536 668.161 227.55 671.549 227.254C676.414 226.828 680.253 228.016 683.083 230.826C685.905 233.636 687.575 237.956 688.087 243.803L688.246 245.616L664.964 247.653C665.42 250.724 666.443 253.148 668.023 254.908C669.595 256.669 671.694 257.43 674.294 257.203C676.249 257.032 677.774 256.328 678.86 255.092C679.955 253.855 680.642 252.333 680.938 250.525L688.227 249.887C688.003 252.108 687.397 254.149 686.4 256.001C685.403 257.853 683.951 259.388 682.054 260.624C680.147 261.851 677.725 262.598 674.789 262.855L674.778 262.838ZM664.571 242.544L680.334 241.165C679.929 238.277 679.007 236.094 677.569 234.624C676.13 233.155 674.265 232.524 671.965 232.726C669.666 232.927 667.779 233.876 666.516 235.538C665.253 237.199 664.603 239.547 664.562 242.545L664.571 242.544Z" fill="#014751"/>
<path d="M691.033 260.561L691.003 260.216L700.161 241.82L689.343 226.874L689.313 226.538L697.451 225.826L704.624 236.188L705.809 236.085L710.905 224.649L718.477 223.986L718.506 224.323L710.769 240.722L722.882 257.427L722.912 257.771L714.491 258.508L706.134 246.315L704.948 246.419L698.95 259.868L691.033 260.561Z" fill="#014751"/>
<path d="M428.656 254.459L408.931 256.184C396.37 257.283 383.877 253.349 374.228 245.236L371.861 243.25C371.457 242.911 370.826 243.234 370.872 243.764L371.536 251.354C371.565 251.681 371.323 251.97 370.995 251.998L364.733 252.546C364.406 252.575 364.117 252.333 364.088 252.005L362.238 230.856C362.209 230.529 362.452 230.24 362.779 230.211L383.928 228.361C384.256 228.332 384.544 228.575 384.573 228.902L385.12 235.156C385.149 235.483 384.906 235.771 384.579 235.8L376.99 236.464C376.459 236.51 376.25 237.179 376.655 237.527C386.322 245.639 398.798 249.575 411.358 248.476L423.795 247.388C424.246 247.348 424.503 246.827 424.239 246.458C418.58 238.521 408.985 233.683 398.592 234.592L393.223 235.062C392.895 235.09 392.607 234.848 392.578 234.521L392.03 228.258C392.002 227.931 392.244 227.642 392.571 227.614L397.94 227.144C412.916 225.834 426.578 233.962 433.039 246.588C433.042 246.615 433.061 246.631 433.072 246.656C434.806 250.07 432.461 254.143 428.649 254.477L428.656 254.459Z" fill="#014751"/>
<path d="M429.702 266.408L409.976 268.134C397.416 269.233 385.796 275.277 377.701 284.943L375.716 287.309C375.377 287.713 374.699 287.505 374.653 286.974L373.989 279.385C373.96 279.057 373.671 278.815 373.344 278.844L367.082 279.392C366.754 279.42 366.512 279.709 366.541 280.036L368.391 301.186C368.42 301.513 368.708 301.755 369.036 301.727L390.185 299.876C390.512 299.848 390.755 299.559 390.726 299.232L390.179 292.978C390.15 292.651 389.862 292.409 389.534 292.437L381.945 293.101C381.414 293.148 381.092 292.525 381.431 292.112C389.542 282.445 401.145 276.403 413.705 275.304L426.142 274.216C426.593 274.176 426.937 274.645 426.741 275.055C422.546 283.854 413.937 290.284 403.544 291.194L398.175 291.663C397.848 291.692 397.605 291.981 397.634 292.308L398.181 298.562C398.21 298.889 398.498 299.131 398.826 299.103L404.195 298.633C419.17 297.323 431.213 286.946 435.384 273.389C435.382 273.363 435.398 273.344 435.404 273.316C436.519 269.654 433.503 266.049 429.691 266.383L429.692 266.4L429.702 266.408Z" fill="#014751"/>
<path d="M627.776 51.3459L381.305 -22.5575L381.3 -22.5404C375.66 -24.0739 369.912 -23.2668 365.102 -20.7045C363.017 -25.6217 360.255 -30.2598 356.85 -34.4879C349.467 -43.6542 339.601 -50.2925 328.315 -53.6767L294.507 -63.8139C282.464 -67.425 269.736 -60.5624 266.128 -48.5276L245.851 19.0969C242.242 31.1317 249.094 43.865 261.137 47.4761L294.945 57.6133C306.234 60.989 318.124 60.8742 329.333 57.2827C334.132 55.7461 338.666 53.6108 342.849 50.9439C345.379 56.1706 349.935 60.3917 355.848 62.3411L355.874 62.3487C356.056 62.4218 356.252 62.4805 356.447 62.5391L602.32 136.244C613.904 139.718 626.015 134.756 632.038 124.901C633.087 123.195 633.958 121.342 634.591 119.354C634.667 119.163 634.728 118.959 634.789 118.755L645.266 83.8156C649.402 70.0203 641.571 55.4824 627.776 51.3459Z" fill="#FC5B31"/>
<path d="M362.738 41.2513L375.446 -1.12988L389.956 3.22083C397.381 5.44719 402.2 8.91306 404.419 13.6295C406.639 18.346 406.745 24.051 404.736 30.753C402.726 37.4551 399.498 42.1604 395.05 44.8775C390.601 47.5945 384.67 47.8369 377.245 45.6105L362.735 41.2598L362.738 41.2513ZM372.225 37.4679L378.527 39.3576C381.716 40.314 384.489 40.5891 386.834 40.1891C389.187 39.7916 391.177 38.627 392.818 36.7089C394.459 34.7909 395.819 32.019 396.905 28.3958C397.991 24.7726 398.381 21.7099 398.066 19.2053C397.751 16.7007 396.719 14.6393 394.984 13.0066C393.238 11.3799 390.78 10.0866 387.59 9.1303L381.288 7.24057L372.23 37.4509L372.225 37.4679Z" fill="white"/>
<path d="M416.187 58.1672C411.22 56.6779 407.899 53.9951 406.225 50.1188C404.542 46.24 404.493 41.6738 406.069 36.4176C407.112 32.939 408.59 30.1101 410.516 27.9249C412.432 25.7372 414.742 24.2792 417.419 23.5431C420.105 22.8096 423.081 22.9325 426.338 23.9093C431.016 25.3119 434.144 27.8348 435.735 31.4917C437.319 35.146 437.274 39.7768 435.589 45.3987L435.066 47.1423L412.68 40.4301C411.969 43.4519 412.024 46.0825 412.833 48.2995C413.65 50.5192 415.311 51.9996 417.811 52.7494C419.691 53.313 421.368 53.2226 422.834 52.4757C424.3 51.7288 425.509 50.5711 426.453 49.0001L433.461 51.1015C432.432 53.0824 431.115 54.7547 429.504 56.1071C427.893 57.4596 425.977 58.3495 423.757 58.7963C421.531 59.2321 419.014 59.0334 416.182 58.1842L416.187 58.1672ZM414.203 35.5379L429.359 40.0824C430.051 37.2494 430.001 34.8799 429.207 32.9826C428.414 31.0853 426.914 29.8107 424.703 29.1476C422.491 28.4845 420.387 28.6694 418.6 29.7464C416.812 30.8233 415.34 32.7643 414.194 35.5353L414.203 35.5379Z" fill="white"/>
<path d="M435.933 63.1983L448.644 20.8086L476.362 29.1198L474.521 35.2605L454.364 29.2165L451.089 40.1371L466.73 44.827L465.001 50.5935L449.36 45.9036L443.494 65.4655L435.933 63.1983Z" fill="white"/>
<path d="M482.876 37.2278C481.533 36.8249 480.616 36.1421 480.115 35.1854C479.616 34.2202 479.539 33.1494 479.898 31.9502C480.258 30.751 480.906 29.8885 481.859 29.3679C482.806 28.8362 483.945 28.779 485.289 29.182C486.633 29.5849 487.592 30.2805 488.076 31.2321C488.558 32.1922 488.627 33.2604 488.267 34.4596C487.908 35.6588 487.26 36.5213 486.332 37.0496C485.402 37.5864 484.246 37.6384 482.876 37.2278ZM468.171 72.8548L477.948 40.246L485.288 42.4469L475.511 75.0557L468.171 72.8548Z" fill="white"/>
<path d="M482.891 77.2778L492.668 44.669L499.345 46.671L497.878 51.5614L499.18 51.9516C500.345 50.447 501.795 49.3803 503.541 48.7541C505.283 48.1364 507.414 48.2007 509.906 48.9479C513.64 50.0675 516.035 52.0368 517.104 54.8696C518.167 57.6914 518.137 61.01 516.997 64.8118L510.756 85.6239L503.425 83.4256L509.257 63.9743C510.017 61.4398 510.142 59.3544 509.657 57.7258C509.152 56.1006 507.927 54.9917 505.971 54.4052C503.581 53.6885 501.447 54.0682 499.561 55.5329C497.676 56.9977 496.327 59.1148 495.501 61.8704L490.222 79.4761L482.891 77.2778Z" fill="white"/>
<path d="M528.326 91.6708C525.46 90.8114 523.276 89.3778 521.765 87.3675C520.254 85.3572 519.391 82.9198 519.168 80.0444C518.943 77.1774 519.334 74.0502 520.344 70.6821C521.354 67.3141 522.75 64.4512 524.514 62.2176C526.269 59.9814 528.323 58.4468 530.686 57.6164C533.048 56.786 535.641 56.7942 538.465 57.6409C540.634 58.2912 542.292 59.2239 543.432 60.428C544.57 61.6407 545.318 63.0421 545.659 64.6554L546.961 65.0456L551.342 50.4338L558.673 52.6321L545.639 96.102L538.954 94.0975L540.224 89.8619L538.923 89.4717C537.831 90.609 536.404 91.4418 534.648 91.9812C532.892 92.5207 530.782 92.4164 528.315 91.6768L528.326 91.6708ZM531.783 86.6636C534.241 87.4006 536.517 86.9521 538.588 85.3019C540.659 83.6516 542.216 81.0872 543.259 77.6086C544.302 74.13 544.413 71.132 543.589 68.6232C542.759 66.1034 541.123 64.4817 538.656 63.7422C536.334 63.046 534.255 63.4885 532.401 65.0647C530.547 66.6409 529.066 69.2929 527.947 73.0267C526.827 76.7604 526.613 79.7924 527.285 82.1261C527.966 84.4622 529.468 85.9784 531.781 86.6721L531.783 86.6636Z" fill="white"/>
<path d="M565.894 103.056C560.927 101.567 557.606 98.8842 555.932 95.008C554.249 91.1292 554.2 86.5629 555.776 81.3068C556.819 77.8281 558.298 74.9992 560.223 72.8141C562.14 70.6264 564.449 69.1683 567.127 68.4323C569.812 67.6988 572.788 67.8217 576.046 68.7984C580.724 70.2011 583.851 72.724 585.443 76.3808C587.026 80.0351 586.982 84.666 585.296 90.2879L584.773 92.0315L562.388 85.3192C561.676 88.3411 561.731 90.9716 562.549 93.1913C563.358 95.4083 565.027 96.8914 567.527 97.6411C569.407 98.2047 571.084 98.1143 572.55 97.3674C574.025 96.623 575.225 95.4628 576.169 93.8918L583.177 95.9932C582.148 97.9741 580.831 99.6464 579.22 100.999C577.609 102.351 575.693 103.241 573.473 103.688C571.247 104.124 568.721 103.923 565.898 103.076L565.894 103.056ZM563.91 80.4271L579.066 84.9716C579.758 82.1385 579.709 79.7691 578.915 77.8718C578.121 75.9745 576.621 74.6998 574.41 74.0368C572.199 73.3737 570.095 73.5586 568.307 74.6355C566.52 75.7125 565.048 77.6535 563.902 80.4245L563.91 80.4271Z" fill="white"/>
<path d="M581.839 106.948L581.939 106.616L597.247 92.9079L592.719 75.0221L592.816 74.6989L600.641 77.0452L603.476 89.3248L604.615 89.6666L613.577 80.9241L620.858 83.1071L620.761 83.4303L607.51 95.8092L612.591 115.807L612.492 116.139L604.395 113.711L601.136 99.2928L599.996 98.9511L589.451 109.231L581.839 106.948Z" fill="white"/>
<path d="M340.298 4.30254L321.331 -1.3845C309.254 -5.00584 299.099 -13.2787 293.132 -24.3843L291.667 -27.1039C291.417 -27.5683 290.711 -27.5018 290.558 -26.9915L288.37 -19.6941C288.275 -19.3794 287.944 -19.2007 287.629 -19.2951L281.607 -21.1007C281.293 -21.195 281.114 -21.5267 281.208 -21.8414L287.306 -42.1772C287.4 -42.4919 287.732 -42.6706 288.047 -42.5762L308.383 -36.4786C308.697 -36.3842 308.876 -36.0526 308.782 -35.7379L306.979 -29.7247C306.884 -29.41 306.553 -29.2314 306.238 -29.3257L298.94 -31.5138C298.43 -31.6669 297.989 -31.1225 298.236 -30.6497C304.221 -19.539 314.358 -11.2712 326.436 -7.64986L338.394 -4.06422C338.828 -3.93416 339.26 -4.32374 339.151 -4.76427C336.826 -14.2306 329.698 -22.2726 319.705 -25.2692L314.542 -26.8171C314.228 -26.9115 314.049 -27.2432 314.143 -27.5579L315.949 -33.5795C316.043 -33.8942 316.375 -34.0729 316.69 -33.9785L321.852 -32.4305C336.251 -28.1129 345.942 -15.511 347.279 -1.39071C347.272 -1.3652 347.283 -1.34309 347.284 -1.31502C347.634 2.49763 343.95 5.41615 340.284 4.31699L340.298 4.30254Z" fill="white"/>
<path d="M336.852 15.7932L317.885 10.1062C305.808 6.48485 292.777 7.80578 281.684 13.7956L278.964 15.2605C278.5 15.5106 277.947 15.0667 278.1 14.5564L280.288 7.25898C280.382 6.94429 280.204 6.61263 279.889 6.51827L273.867 4.7127C273.553 4.61835 273.221 4.79699 273.127 5.11168L267.029 25.4475C266.935 25.7622 267.113 26.0939 267.428 26.1882L287.764 32.2859C288.078 32.3802 288.41 32.2016 288.504 31.8869L290.308 25.8737C290.402 25.559 290.223 25.2274 289.909 25.133L282.611 22.9449C282.101 22.7919 282.032 22.0945 282.499 21.8359C293.609 15.8512 306.623 14.5252 318.701 18.1465L330.659 21.7321C331.093 21.8622 331.239 22.4252 330.906 22.7331C323.756 29.3585 313.379 32.1521 303.386 29.1556L298.223 27.6076C297.908 27.5132 297.577 27.6919 297.482 28.0066L295.679 34.0197C295.585 34.3344 295.764 34.6661 296.078 34.7604L301.241 36.3084C315.64 40.626 330.666 35.4351 339.552 24.3801C339.559 24.3546 339.582 24.3427 339.598 24.3197C341.987 21.3283 340.517 16.8643 336.851 15.7652L336.846 15.7822L336.852 15.7932Z" fill="white"/>
</svg>
