<svg width="100%" height="100%" viewBox="0 0 123 25" fill="none" xmlns="http://www.w3.org/2000/svg">
<path d="M34.561 3.54225C39.2411 3.54225 41.7863 5.74309 41.7863 9.70581C41.7863 13.6685 39.2411 15.9432 34.561 15.9432H26.7349V24.162H23.2521V3.54225H34.561ZM26.737 12.8235H34.4877C36.9952 12.8235 38.1946 11.6133 38.1946 9.74068C38.1946 7.86803 37.035 6.65788 34.4877 6.65788H26.737V12.8235Z" fill="currentColor"></path>
<path d="M63.0165 14.8662C63.0165 20.335 58.77 24.5 53.2438 24.5C47.7177 24.5 43.4712 20.335 43.4712 14.8662C43.4712 9.39741 47.6799 5.23239 53.2438 5.23239C58.8078 5.23239 63.0165 9.39741 63.0165 14.8662ZM59.4844 14.8662C59.4844 11.1836 56.965 8.35771 53.2459 8.35771C49.5269 8.35771 47.0075 11.2585 47.0075 14.8662C47.0075 18.4739 49.5248 21.3747 53.2459 21.3747C56.9671 21.3747 59.4844 18.5488 59.4844 14.8662Z" fill="currentColor"></path>
<path d="M105.454 12.5602H111.731C111.731 9.73427 109.576 8.208 106.569 8.208C103.563 8.208 102.298 9.91933 102.002 10.514H98.5842C99.0679 8.32028 101.518 5.23239 106.569 5.23239C111.918 5.23239 114.963 8.24543 114.963 12.5227V19.3286C114.963 20.6303 115.41 21.1148 116.597 21.225V24.2754C113.961 24.2006 112.364 23.2337 111.88 21.4121C110.989 22.7887 109.059 24.5 105.789 24.5C101.443 24.5 98.063 22.0817 98.063 18.2889C98.063 14.4961 100.849 12.5602 105.454 12.5602ZM111.731 15.2384H105.604C103.079 15.2384 101.443 16.2428 101.443 18.2889C101.443 20.335 103.449 21.6741 106.085 21.6741C109.057 21.6741 111.731 20.2227 111.731 17.1369V15.2384Z" fill="currentColor"></path>
<path d="M119.63 0.5H123V24.162H119.63V0.5Z" fill="currentColor"></path>
<path d="M95.7041 24.1599H91.3637C87.098 24.1599 84.9454 22.1185 84.9454 18.0358V8.87045H79.5288V5.82708H84.9454V1.51408H88.3215V5.82708H95.7041V8.87045H88.3215V17.2579C88.3215 19.9299 89.1739 21.0439 92.1061 21.0439H95.7041V24.162V24.1599Z" fill="currentColor"></path>
<path d="M66.0493 24.162V5.71652H69.4424V9.07043C69.9639 7.74305 71.5306 5.57042 75.8549 5.57042H77.8438V8.92433H75.781C71.0471 8.92433 69.4445 10.4917 69.4445 13.7329V24.162H66.0493Z" fill="currentColor"></path>
<path d="M10.0777 8.61369L18.1973 4.40043L16.8322 1.85211L9.39724 4.7729C9.2058 4.84821 8.99355 4.84821 8.80211 4.7729L1.36505 1.85211L0 4.40043L8.11958 8.61369L0 12.8249L1.36505 15.3732L8.80003 12.4524C8.99147 12.3771 9.20372 12.3771 9.39516 12.4524L16.8301 15.3732L18.1952 12.8249L10.0756 8.61166L10.0777 8.61369Z" fill="currentColor"></path>
</svg>