<?xml version="1.0" encoding="UTF-8"?>
<svg id="Laag_1" data-name="Laag 1" xmlns="http://www.w3.org/2000/svg" xmlns:xlink="http://www.w3.org/1999/xlink" viewBox="0 0 249.55 232.37">
  <defs>
    <style>
      .cls-1 {
        fill: url(#linear-gradient);
      }

      .cls-1, .cls-2, .cls-3, .cls-4 {
        stroke-width: 0px;
      }

      .cls-1, .cls-4 {
        opacity: .1;
      }

      .cls-5 {
        fill: none;
        stroke: url(#Naamloos_verloop_46-2);
        stroke-miterlimit: 10;
        stroke-width: 4px;
      }

      .cls-2 {
        fill: url(#Naamloos_verloop_46);
      }

      .cls-3 {
        fill: url(#Naamloos_verloop_12);
      }

      .cls-4 {
        fill: url(#linear-gradient-2);
      }
    </style>
    <linearGradient id="Naamloos_verloop_46" data-name="Naamloos verloop 46" x1="92.07" y1="33.78" x2="161.74" y2="209.32" gradientUnits="userSpaceOnUse">
      <stop offset="0" stop-color="#ab62a3"/>
      <stop offset=".23" stop-color="#925ca0"/>
      <stop offset=".5" stop-color="#7c579e"/>
      <stop offset=".77" stop-color="#6e549d"/>
      <stop offset="1" stop-color="#6a539d"/>
    </linearGradient>
    <linearGradient id="Naamloos_verloop_46-2" data-name="Naamloos verloop 46" x1="28.34" y1="116.19" x2="221.21" y2="116.19" gradientTransform="translate(249.55 232.37) rotate(-180)" xlink:href="#Naamloos_verloop_46"/>
    <linearGradient id="Naamloos_verloop_12" data-name="Naamloos verloop 12" x1="124.96" y1="44.94" x2="124.43" y2="240.1" gradientUnits="userSpaceOnUse">
      <stop offset="0" stop-color="#f1e3f0"/>
      <stop offset="1" stop-color="#fdf8ef"/>
    </linearGradient>
    <linearGradient id="linear-gradient" x1="186.83" y1="152.58" x2="113.05" y2="156.89" gradientUnits="userSpaceOnUse">
      <stop offset="0" stop-color="#c272ab" stop-opacity="0"/>
      <stop offset=".04" stop-color="#ba6ea7" stop-opacity=".07"/>
      <stop offset=".25" stop-color="#965f96" stop-opacity=".4"/>
      <stop offset=".45" stop-color="#7a5289" stop-opacity=".66"/>
      <stop offset=".65" stop-color="#664a80" stop-opacity=".85"/>
      <stop offset=".83" stop-color="#5a447a" stop-opacity=".96"/>
      <stop offset="1" stop-color="#564379"/>
    </linearGradient>
    <linearGradient id="linear-gradient-2" x1="55.75" y1="76.75" x2="140.74" y2="82.08" xlink:href="#linear-gradient"/>
  </defs>
  <g>
    <rect class="cls-2" x="30.34" y="26.55" width="188.86" height="179.27" rx="37.78" ry="37.78"/>
    <rect class="cls-5" x="30.34" y="27.28" width="188.86" height="177.82" rx="34.63" ry="34.63" transform="translate(249.55 232.37) rotate(180)"/>
  </g>
  <g>
    <path class="cls-3" d="M174.88,156.56c-3.91,12.56-15.38,21.72-29.81,23.13-4.98.49-15.42.21-20.33.21h-48.26c-1.9,0-3.44-1.37-3.44-3.05v-39.17c0-1.43.08-2.88.24-4.31.09-.8.2-1.59.34-2.38.3-1.66.73-3.28,1.3-4.83,1.23-3.39,3.09-6.52,5.49-9.3.8-.92,1.65-1.81,2.56-2.66,2.68-2.48,5.83-4.61,9.38-6.33,2.38-1.15,4.92-2.11,7.63-2.86,2.14-.6,4.38-1.07,6.7-1.4.78-.11,1.4.58,1.09,1.23-.42.89-.85,1.79-1.27,2.68-.31.65-.62,1.3-.93,1.94-.23.5-.31.96-.23,1.37.04.23.14.46.28.66.39.56.91.64,1.52.2,1.27-.89,2.53-1.78,3.8-2.67,3-2.11,6-4.22,9-6.33h0l.05-.03c4.69-3.29,9.37-6.59,14.06-9.88.22-.16.42-.35.54-.59.02-.03.03-.06.04-.09.1-.23.14-.5.12-.83-.06-.71-.41-1.12-.89-1.37-8.58-4.63-17.16-9.26-25.74-13.9-1.23-.67-2.46-1.33-3.69-1.99-.35-.18-.83-.15-1.12.11-.36.32-.52.89-.42,1.46.03.18.09.36.18.52.13.26.29.48.44.71,1.03,1.58,2.06,3.17,3.09,4.75.56.87,1.13,1.73,1.69,2.6,0,0-.07,0-.2.04-.09.01-.2.04-.34.06-.37.07-.93.18-1.64.34-1.76.38-4.46,1.06-7.58,2.14-9.42,3.13-22.66,9.42-25.48,20.65v-.19s-.13-1.54-.02-2.41c.01-.07.02-49.19.02-49.19,0-1.68,1.54-3.05,3.44-3.05h49.68c3.51,0,13.22-.17,13.24-.16,1.15.03,2.28.07,3.37.15,10.32,1.01,19.3,7.09,24.86,15.94,2.38,3.79,4.14,8.08,5.1,12.71.19.89.35,1.78.46,2.7.21,1.5.33,3.04.37,4.6v.08c0,.29.01.59.01.88,0,20.46-15.17,37.05-33.88,37.05-.29,0-.58,0-.88,0h0s0,0-.01,0c-.02,0-.04,0-.07,0-.16,0-.32,0-.48-.02-.51-.16-.83-.66-.62-1.16.73-1.73,1.55-3.47,2.05-5.29.25-.89.08-2.23-.96-2.21-.38,0-.71.23-1.01.43-2.98,2.09-5.97,4.19-8.95,6.29-4.95,3.48-9.91,6.96-14.86,10.44l-.03.02c-.93.66-1.87,1.31-2.8,1.97-.46.32-.75.77-.69,1.51,0,.06,0,.12.02.18.1.59.42.96.86,1.19,9.82,5.3,19.62,10.6,29.43,15.89,0,0,0,0,.01.01.36.18.83.14,1.12-.11.14-.13.25-.28.32-.46.19-.44.18-1.01-.08-1.53-.13-.25-.29-.48-.44-.71-.99-1.54-2-3.08-2.99-4.61-.32-.49-.05-1.12.57-1.29,0,0,0,0,.02,0,.02,0,.04-.01.06-.02.02,0,.04,0,.07-.02.11-.03.25-.06.45-.11.13-.03.27-.06.44-.12.45-.11,1.04-.27,1.72-.46.16-.04.33-.1.5-.15.04,0,.08-.02.11-.03.14-.04.28-.08.42-.13.15-.04.29-.08.44-.13.03,0,.06-.02.09-.03,19.35-4.65,27.06-15.2,28.4-17.09-.11.15,2.88,5.94,3.14,6.74.53,1.68.92,3.4,1.17,5.14.76,5.31.23,10.81-1.36,15.94Z"/>
    <path class="cls-1" d="M174.88,156.56c-3.91,12.56-15.38,21.72-29.81,23.13-4.98.49-15.42.21-20.33.21l-5.98-2.09c-18.23-6.38-21.17-32.13-4.88-42.84h0c-.93.66-1.87,1.31-2.8,1.97-.46.32-.75.77-.69,1.51,0,.06,0,.12.02.18.1.59.42.96.86,1.19,9.82,5.3,19.62,10.6,29.43,15.89,0,0,0,0,.01.01.36.18.83.14,1.12-.11.14-.13.25-.28.32-.46.19-.44.18-1.01-.08-1.53-.13-.25-.29-.48-.44-.71-.99-1.54-2-3.08-2.99-4.61-.32-.49-.05-1.12.57-1.29,0,0,0,0,.02,0,.02,0,.04-.01.06-.02.02,0,.04,0,.07-.02.11-.03.25-.06.45-.11.13-.03.27-.06.44-.12.45-.11,1.04-.27,1.72-.46.16-.04.33-.1.5-.15.04,0,.08-.02.11-.03.14-.04.28-.08.42-.13.15-.04.29-.08.44-.13.03,0,.06-.02.09-.03,19.35-4.65,27.06-15.2,28.4-17.09-.11.15,2.88,5.94,3.14,6.74.53,1.68.92,3.4,1.17,5.14.76,5.31.23,10.81-1.36,15.94Z"/>
    <path class="cls-4" d="M134.62,92.12c.1-.23-17.93-11.46-26.51-16.1-1.23-.67-2.46-1.33-3.69-1.99-.35-.18-.83-.15-1.12.11-.36.32-.52.89-.42,1.46.03.18.09.36.18.52.13.26.29.48.44.71,1.03,1.58,2.06,3.17,3.09,4.75.56.87,1.13,1.73,1.69,2.6,0,0-.07,0-.2.04-.09.01-.2.04-.34.06-.37.07-.93.18-1.64.34-1.76.38-4.46,1.06-7.58,2.14-9.42,3.13-22.66,9.42-25.48,20.65v-.19s-.13-1.54-.02-2.41c.01-.07.02-49.19.02-49.19,0-1.68,1.54-3.05,3.44-3.05h49.68c3.51,0,8.46-.26,13.19-.16,0,0,.03,0,.09.03,14.1,4.49,16.94,24.12,4.77,32.83-5.4,3.86-9.59,6.86-9.58,6.85Z"/>
  </g>
</svg>