<svg xmlns="http://www.w3.org/2000/svg" width="48" height="48" viewBox="0 0 48 48" fill="none">
<path d="M0 5.3112C0 2.37791 2.37791 0 5.3112 0H42.5549C45.4882 0 47.8661 2.37791 47.8661 5.3112V42.5549C47.8661 45.4882 45.4882 47.8661 42.5549 47.8661H5.3112C2.37791 47.8661 0 45.4882 0 42.5549V5.3112Z" fill="white"/>
<path d="M13.1324 19.0112C13.1324 18.8645 13.252 18.7461 13.3985 18.7414C17.7569 18.6037 21.2655 15.0952 21.4032 10.7368C21.4078 10.5902 21.5263 10.4707 21.6729 10.4707H34.4731C34.6198 10.4707 34.7387 10.5896 34.7387 10.7363V26.0231C34.7387 26.1698 34.6198 26.2887 34.4731 26.2887H27.1682C27.0215 26.2887 26.9026 26.1698 26.9026 26.0231V19.7849C26.9026 19.5165 26.5396 19.4113 26.3868 19.6319C23.5258 23.7632 18.7832 26.4923 13.3985 26.5795C13.2519 26.5819 13.1324 26.4627 13.1324 26.3161V19.0112Z" fill="#221542"/>
<path d="M34.7387 29.8501C34.7387 29.7035 34.6198 29.5846 34.4731 29.5846H13.398C13.2513 29.5846 13.1324 29.7035 13.1324 29.8501V37.155C13.1324 37.3017 13.2513 37.4206 13.398 37.4206H34.4731C34.6198 37.4206 34.7387 37.3017 34.7387 37.155V29.8501Z" fill="#221542"/>
<script xmlns=""/></svg>