<svg width="3978" height="800" viewBox="0 0 3978 800" fill="none" xmlns="http://www.w3.org/2000/svg">
<path d="M1072.27 659.5V166.387H1241.1C1327.5 166.387 1390.05 187.986 1428.84 231.184C1467.63 274.381 1486.98 334.993 1486.98 412.943C1486.98 490.894 1467.63 551.505 1428.84 594.703C1390.05 637.901 1327.5 659.5 1241.1 659.5H1072.27ZM1161.43 588.724H1234.75C1271.82 588.724 1302.31 582.82 1326.08 571.012C1349.92 559.203 1367.48 540.444 1378.84 514.735C1390.2 489.025 1395.88 455.095 1395.88 412.943C1395.88 370.792 1390.2 336.861 1378.84 311.152C1367.48 285.443 1349.84 266.684 1326.08 254.875C1302.24 243.067 1271.82 237.163 1234.75 237.163H1161.43V588.724Z" fill="white"/>
<path d="M1696.91 669.011C1639.14 669.011 1595.12 650.999 1564.78 614.976C1534.43 578.953 1519.26 530.374 1519.26 469.24C1519.26 428.807 1525.99 393.83 1539.52 364.309C1552.97 334.788 1572.92 311.844 1599.23 295.402C1625.54 278.96 1657.75 270.739 1695.64 270.739C1750.05 270.739 1791.53 287.704 1820.23 321.634C1848.85 355.565 1863.2 405.19 1863.2 470.51V490.764H1602.74C1604.84 525.292 1613.81 553.169 1629.57 574.245C1645.42 595.32 1667.84 605.858 1696.91 605.858C1718.81 605.858 1736.45 599.506 1749.68 586.875C1762.98 574.245 1772.1 558.027 1777.18 538.222H1858.72C1854.08 562.66 1845.34 584.708 1832.48 604.289C1819.63 623.87 1801.99 639.565 1779.72 651.373C1757.37 663.181 1729.8 669.086 1696.91 669.086V669.011ZM1779.72 433.814C1778 401.379 1769.93 376.267 1755.36 358.554C1740.78 340.842 1720.68 332.023 1694.97 332.023C1669.26 332.023 1647.36 340.692 1631.74 357.957C1616.12 375.221 1606.63 400.556 1603.27 433.814H1779.72Z" fill="white"/>
<path d="M1923.82 659.5V166.387H2246.24V237.835H2011.71V364.888H2193.77V431.927H2011.71V659.5H1923.82Z" fill="white"/>
<path d="M2341.75 232.087C2326.13 232.087 2314.17 227.752 2305.72 219.158C2297.28 210.488 2293.09 199.278 2293.09 185.302C2293.09 171.326 2297.28 160.115 2305.72 151.446C2314.17 142.777 2326.13 138.517 2341.75 138.517C2357.37 138.517 2369.85 142.851 2378.07 151.446C2386.29 160.115 2390.4 171.326 2390.4 185.302C2390.4 199.278 2386.29 210.488 2378.07 219.158C2369.85 227.827 2357.74 232.087 2341.75 232.087ZM2298.77 659.432V280.068H2384.12V659.432H2298.77Z" fill="white"/>
<path d="M2470.09 280.154H2547.82V337.029H2562.99C2570.61 317.224 2582.72 301.23 2599.31 288.973C2615.98 276.791 2638.85 270.663 2667.92 270.663C2711.34 270.663 2743.25 284.04 2763.73 310.796C2784.13 337.552 2794.37 373.052 2794.37 417.296V659.443H2709.02V433.14C2709.02 403.619 2703.72 380.974 2693.25 365.205C2682.72 349.435 2666.05 341.513 2643.33 341.513C2615.53 341.513 2593.93 352.35 2578.53 374.098C2563.14 395.847 2555.44 422.677 2555.44 454.739V659.593H2470.09V280.154Z" fill="white"/>
<path d="M3001.15 667.73C2967.81 667.73 2939.94 659.434 2917.37 642.768C2894.8 626.101 2877.76 602.858 2866.17 572.889C2854.59 542.994 2848.76 508.391 2848.76 469.229C2848.76 430.067 2854.51 395.015 2866.17 365.569C2877.76 336.048 2894.8 313.104 2917.37 296.662C2939.94 280.22 2967.66 271.999 3000.47 271.999C3025.73 271.999 3046.44 276.632 3062.43 285.9C3078.42 295.167 3090.9 307.797 3099.72 323.866H3114.89V153.84H3200.24V659.583H3122.44V610.257H3107.27C3099.27 625.877 3086.72 639.33 3069.68 650.69C3052.64 662.05 3029.77 667.73 3001.07 667.73H3001.15ZM3022 603.232C3050.62 603.232 3073.42 591.124 3090.31 566.91C3107.12 542.695 3115.57 510.334 3115.57 469.827C3115.57 429.319 3107.12 397.033 3090.31 372.818C3073.42 348.604 3050.7 336.496 3022 336.496C2995.02 336.496 2974.17 347.856 2959.44 370.651C2944.72 393.446 2937.32 426.479 2937.32 469.901C2937.32 513.323 2944.72 546.432 2959.44 569.152C2974.17 591.872 2995.02 603.307 3022 603.307V603.232Z" fill="white"/>
<path d="M3438.59 669.011C3380.82 669.011 3336.8 650.999 3306.46 614.976C3276.11 578.953 3260.94 530.374 3260.94 469.24C3260.94 428.807 3267.67 393.83 3281.2 364.309C3294.65 334.788 3314.6 311.844 3340.91 295.402C3367.22 278.96 3399.43 270.739 3437.32 270.739C3491.73 270.739 3533.21 287.704 3561.91 321.634C3590.53 355.565 3604.88 405.19 3604.88 470.51V490.764H3344.42C3346.52 525.292 3355.48 553.169 3371.33 574.245C3387.1 595.32 3409.59 605.858 3438.67 605.858C3460.56 605.858 3478.2 599.506 3491.43 586.875C3504.73 574.245 3513.85 558.027 3518.93 538.222H3600.47C3595.84 562.66 3587.09 584.708 3574.24 604.289C3561.38 623.87 3543.75 639.565 3521.47 651.373C3499.13 663.181 3471.55 669.086 3438.67 669.086L3438.59 669.011ZM3521.4 433.814C3519.68 401.379 3511.61 376.267 3497.04 358.554C3482.46 340.842 3462.36 332.023 3436.65 332.023C3410.94 332.023 3389.04 340.692 3373.42 357.957C3357.8 375.221 3348.31 400.556 3344.95 433.814H3521.4Z" fill="white"/>
<path d="M3621.32 659.509V655.697L3740.82 460.336L3635.22 283.957V280.145H3726.25L3795.83 402.19H3809.13L3876.77 280.145H3961.44V283.957L3859.65 458.467L3977.88 655.697V659.509H3883.72L3802.78 516.014H3789.47L3709.8 659.509H3621.32Z" fill="white"/>
<path d="M714.429 333.186H493.8C353.291 333.186 218.462 277.356 119.134 177.953L94.7689 153.589C90.5836 149.403 83.3339 152.393 83.3339 158.297V243.201C83.3339 246.863 80.3443 249.852 76.6821 249.852H6.65176C2.98956 249.852 0 246.863 0 243.201V6.65176C0 2.98956 2.98956 0 6.65176 0H243.2C246.863 0 249.852 2.98956 249.852 6.65176V76.6074C249.852 80.2696 246.863 83.2592 243.2 83.2592H158.297C152.318 83.2592 149.403 90.4341 153.588 94.6942C252.991 194.097 387.745 249.927 528.255 249.927H667.344C672.426 249.927 675.789 244.396 673.173 239.987C618.091 146.339 516.222 83.3339 400.003 83.3339H339.913C336.25 83.3339 333.261 80.3444 333.261 76.6822V6.65176C333.261 2.98956 336.25 0 339.913 0H400.003C567.567 0 711.29 103.513 770.782 249.927C770.857 250.226 771.007 250.45 771.081 250.749C787.001 290.286 757.03 333.261 714.429 333.261V333.186Z" fill="#DEC9F4"/>
<path d="M714.43 466.814H493.8C353.291 466.814 218.462 522.644 119.134 622.047L94.7693 646.411C90.5839 650.597 83.3342 647.607 83.3342 641.703V556.8C83.3342 553.137 80.3447 550.148 76.6825 550.148H6.6521C2.9899 550.148 0.000339882 553.137 0.000339882 556.8V793.348C0.000339882 797.01 2.9899 800 6.6521 800H243.201C246.863 800 249.853 797.01 249.853 793.348V723.393C249.853 719.73 246.863 716.741 243.201 716.741H158.297C152.318 716.741 149.403 709.566 153.589 705.306C252.992 605.903 387.746 550.073 528.255 550.073H667.344C672.426 550.073 675.79 555.604 673.174 560.013C618.091 653.661 516.222 716.666 400.003 716.666H339.913C336.251 716.666 333.261 719.656 333.261 723.318V793.273C333.261 796.936 336.251 799.925 339.913 799.925H400.003C567.568 799.925 711.291 696.412 770.783 549.998C770.857 549.699 771.007 549.475 771.082 549.176C787.001 509.639 757.031 466.664 714.43 466.664V466.814Z" fill="#DEC9F4"/>
</svg>
